<?xml version="1.0" standalone="no"?>
<!DOCTYPE svg PUBLIC "-//W3C//DTD SVG 1.1//EN" "http://www.w3.org/Graphics/SVG/1.1/DTD/svg11.dtd" >
<svg xmlns="http://www.w3.org/2000/svg">
<metadata>Generated by IcoMoon</metadata>
<defs>
<font id="icomoon" horiz-adv-x="1024">
<font-face units-per-em="1024" ascent="960" descent="-64" />
<missing-glyph horiz-adv-x="1024" />
<glyph unicode="&#x20;" horiz-adv-x="512" d="" />
<glyph unicode="&#xe500;" glyph-name="dms" d="M901.547 846.080c-6.4 6.4-15.36 10.667-25.6 10.667-9.813 0-18.773-3.84-25.6-10.667-6.4-6.4-10.667-15.36-10.667-25.6 0-9.813 3.84-18.773 10.667-25.6 6.4-6.4 15.36-10.667 25.6-10.667 9.813 0 18.773 3.84 25.6 10.667 6.4 6.4 10.667 15.36 10.667 25.6 0 9.813-3.84 18.773-10.667 25.6zM763.307 846.080c-6.4 6.4-15.36 10.667-25.6 10.667-9.813 0-18.773-3.84-25.6-10.667-6.4-6.4-10.667-15.36-10.667-25.6 0-9.813 3.84-18.773 10.667-25.6 6.4-6.4 15.36-10.667 25.6-10.667 9.813 0 18.773 3.84 25.6 10.667 6.4 6.4 10.667 15.36 10.667 25.6 0 9.813-3.84 18.773-10.667 25.6zM926.293 918.613h-829.013c-15.787 0-29.867-6.4-40.107-16.64s-16.64-24.32-16.64-40.107v-828.16c0-15.787 6.4-29.867 16.64-40.107s24.32-16.64 40.107-16.64h829.013c15.787 0 29.867 6.4 40.107 16.64s16.64 24.32 16.64 40.107v828.16c0 15.787-6.4 29.867-16.64 40.107s-24.32 16.64-40.107 16.64zM97.28 959.573h829.013c26.88 0 51.2-11.093 69.12-28.587 17.493-17.493 28.587-41.813 28.587-69.12v-828.16c0-26.88-11.093-51.2-28.587-69.12-17.493-17.493-42.24-28.587-69.12-28.587h-829.013c-26.88 0-51.2 11.093-69.12 28.587-17.493 17.493-28.587 42.24-28.587 69.12v828.16c0 26.88 11.093 51.2 28.587 69.12 17.493 17.493 42.24 28.587 69.12 28.587zM461.227 589.653c59.307 0 113.067-23.893 151.893-63.147 38.827-38.827 63.147-92.587 63.147-151.893 0-54.187-20.053-104.107-53.333-141.653l203.947-159.573-25.173-32-209.067 163.413c-36.267-28.16-81.92-44.8-131.84-44.8-59.307 0-113.067 23.893-151.893 63.147-38.827 38.827-63.147 92.587-63.147 151.893s23.893 113.067 63.147 151.893c38.827 38.827 92.587 63.147 151.893 63.147zM584.533 497.92c-31.573 31.573-75.093 50.773-123.307 50.773s-91.733-19.627-123.307-50.773c-31.573-31.573-50.773-75.093-50.773-123.307s19.627-91.733 50.773-123.307c31.573-31.573 75.093-50.773 123.307-50.773s91.733 19.627 123.307 50.773c31.573 31.573 50.773 75.093 50.773 123.307s-19.627 91.733-50.773 123.307zM19.2 729.173h989.867v-40.96h-989.867z" />
<glyph unicode="&#xe501;" glyph-name="setup" d="M571.307 888.747l37.547-105.387c25.173-7.253 49.067-17.493 71.68-29.867l101.12 48.213 84.053-84.053-48.213-101.12c12.373-22.613 22.613-46.507 29.867-71.68l105.387-37.547v-118.613l-105.387-37.547c-7.253-25.173-17.493-49.067-29.867-71.68l48.213-101.12-84.053-84.053-101.12 48.213c-22.613-12.373-46.507-22.613-71.68-29.867l-37.547-105.387h-118.613l-37.547 105.387c-25.173 7.253-49.067 17.493-71.68 29.867l-101.12-48.213-84.053 84.053 48.213 101.12c-12.373 22.613-22.613 46.507-29.867 71.68l-105.387 37.547v118.613l105.387 37.547c7.253 25.173 17.493 49.067 29.867 71.68l-48.213 101.12 84.053 84.053 101.12-48.213c22.613 12.373 46.507 22.613 71.68 29.867l37.547 105.387h118.613zM512 286.72c89.173 0 161.707 72.533 161.707 161.707s-72.533 161.707-161.707 161.707c-89.173 0-161.707-72.533-161.707-161.707s72.533-161.707 161.707-161.707zM621.653 960h-219.307l-17.067-47.36-26.027-72.96c-5.547-2.133-11.093-4.693-16.64-6.827l-115.2 55.040-35.413-35.413-84.053-83.627-35.413-35.84 21.76-45.653 33.28-69.973c-2.56-5.547-4.693-11.093-6.827-16.64l-72.96-26.027-47.36-16.64v-219.307l47.36-16.64 72.96-26.027c2.133-5.547 4.267-11.093 6.827-16.64l-33.28-69.973-21.76-45.653 154.88-154.88 45.653 21.76 69.547 33.28c5.547-2.133 11.093-4.693 16.64-6.827l26.027-72.96 17.067-47.36h219.307l17.067 47.36 26.027 72.96c5.547 2.133 11.093 4.267 16.64 6.827l115.2-55.040 154.88 154.88-21.76 45.653-33.28 69.973c2.56 5.547 4.693 11.093 6.827 16.64l72.96 26.027 47.36 16.64v219.307l-47.36 16.64-72.96 26.027c-2.133 5.547-4.267 11.093-6.827 16.64l33.28 69.973 21.76 45.653-35.413 35.84-84.053 83.627-35.413 35.413-45.653-21.76-69.547-33.28c-5.547 2.56-11.093 4.693-16.64 6.827l-26.027 72.96-17.067 47.36zM512 357.973c-49.92 0-90.027 40.533-90.027 90.027 0 49.92 40.533 90.453 90.027 90.453 49.92 0 90.027-40.533 90.027-90.453s-40.533-90.027-90.027-90.027v0z" />
<glyph unicode="&#xe502;" glyph-name="obj273" d="M698.88 258.133l-106.24 238.507-123.733-343.040-180.48 675.413-131.413-517.547c-42.667-5.973-75.52-41.813-75.52-86.187 0-48.213 39.253-87.040 87.040-87.040 48.213 0 87.040 38.827 87.040 87.040 0 29.013-14.080 54.187-35.84 69.973l69.547 274.773 169.387-634.453 139.52 386.56 57.6-129.28h285.013v65.28h-242.773zM474.453 960h172.8c34.133 0 61.867-9.813 82.773-29.013 20.907-19.627 31.573-46.507 31.573-81.92 0-30.293-9.387-56.32-28.16-78.933-18.773-22.187-47.36-33.707-86.187-33.707h-120.747v-163.413h-52.48v386.56zM677.547 906.667c-11.52 5.547-27.307 8.107-47.36 8.107h-103.253v-133.973h103.253c23.467 0 42.24 5.12 57.173 14.933 14.507 9.813 21.76 27.733 21.76 52.907 0 28.587-10.24 47.787-31.147 58.027z" />
<glyph unicode="&#xe504;" glyph-name="move" d="M639.573 957.867h-464.64c-49.92 0-67.84-31.147-67.84-58.027v-888.32c0-36.693 29.013-77.653 67.84-77.653h666.453c36.693 0 77.653 29.013 77.653 67.84v708.267l-279.040 247.893zM640.853 878.507l201.387-179.2h-142.933c-19.627 0-58.453 53.76-58.453 81.067v98.133zM860.16 333.653v-331.093c-1.28-3.84-11.52-10.24-19.2-10.24h-665.6c-3.84 1.28-10.24 11.52-10.24 19.2v887.040c1.707 0.427 5.12 0.853 9.387 0.853h421.973v-119.040c0-44.8 51.627-125.013 102.4-125.013h160.853v-321.707zM622.080 602.88c5.547 2.56 11.52 1.28 16.213-2.56l162.987-147.627c6.4-5.547 6.4-16.64 0-22.187l-161.28-145.92c-2.56-3.413-6.827-5.547-11.947-5.547-8.533 0-15.36 6.827-14.933 14.933 0 0 0 0 0 0v78.507h-137.813c-8.107 0-14.933 6.827-14.933 14.933v108.373c0 8.107 6.827 14.933 14.933 14.933h137.813v78.507c0 5.973 3.413 11.52 8.96 13.653zM642.987 555.52v-59.733c0-3.84-1.707-7.68-4.267-10.667-2.987-2.987-6.827-4.267-10.667-4.267h-137.813v-78.507h137.813c3.84 0 7.68-1.707 10.667-4.267 2.56-2.987 4.267-6.827 4.267-10.667v-59.733l125.867 113.92-125.867 113.92zM387.84 117.333c-5.547-2.56-11.52-1.28-16.213 2.56l-162.987 147.627c-6.4 5.547-6.4 16.64 0 22.187l161.28 145.92c2.987 3.413 6.827 5.547 11.947 5.547 8.533 0 15.36-6.827 14.933-14.933v0-78.507h137.813c8.107 0 14.933-6.827 14.933-14.933v-108.373c0-8.107-6.827-14.933-14.933-14.933h-137.813v-78.507c0-5.973-3.413-11.52-8.96-13.653zM366.933 164.693v59.733c0 3.84 1.707 7.68 4.267 10.667 2.987 2.56 6.827 4.267 10.667 4.267h137.813v78.507h-137.813c-3.84 0-7.68 1.707-10.667 4.267-2.56 2.987-4.267 6.827-4.267 10.667v59.733l-125.867-113.92 125.867-113.92z" />
<glyph unicode="&#xe505;" glyph-name="twitter20" d="M765.281 192.046h-252.666c-35.123 0-64.99 12.288-89.532 36.978-24.656 24.713-36.841 54.579-36.841 89.862v89.93h360.027c32.472 0 60.439 11.662 83.672 34.839 23.222 23.37 34.884 51.302 34.884 83.809 0 32.62-11.662 60.518-34.953 83.809-23.313 23.233-51.371 34.884-83.979 34.884h-359.663v185.799c0 35.157-12.538 65.252-37.433 90.328-24.781 25.122-54.773 37.717-89.589 37.717-35.794 0-66.276-12.413-91.068-36.978-24.883-24.644-37.296-55-37.296-91.182v-513.013c0-105.518 37.296-195.664 111.923-270.484 74.684-74.968 164.716-112.344 269.983-112.344h252.621c35.066 0 65.183 12.595 90.226 37.706 25.065 24.997 37.569 55.171 37.569 90.294 0 35.135-12.504 65.24-37.569 90.351-25.054 25.054-55.205 37.695-90.317 37.695z" />
<glyph unicode="&#xe506;" glyph-name="horizontal-menu" d="M43.52 621.653c9.813 4.267 16.64 14.080 16.64 25.6 0 15.36-12.373 27.733-27.733 27.733h-14.080c-15.36 0-27.733-12.373-27.733-27.733v-14.080c0-15.36 12.373-27.733 27.733-27.733 11.52 0 20.907 6.827 25.6 16.64zM170.24 646.827c0-15.36 12.373-27.733 27.733-27.733h33.28c15.36 0 27.733 12.373 27.733 27.733s-12.373 27.733-27.733 27.733h-33.28c-15.36 0-27.733-12.373-27.733-27.733zM369.493 646.827c0-11.52 6.827-20.907 16.64-25.6 4.267-9.813 14.080-16.64 25.6-16.64 15.36 0 27.733 12.373 27.733 27.733v14.080c0 15.36-12.373 27.733-27.733 27.733h-14.080c-15.36 0-27.733-12.373-27.733-27.733zM439.467 461.653v28.587c0 6.827-2.56 13.227-6.827 18.347h555.52c15.36 0 27.733 12.373 27.733 27.733v393.387c0 15.36-12.373 27.733-27.733 27.733h-685.653c-15.36 0-27.733-12.373-27.733-27.733v-393.387c0-15.36 12.373-27.733 27.733-27.733h88.32c-4.267-4.693-6.827-11.093-6.827-18.347v-28.587c0-15.36 12.373-27.733 27.733-27.733s27.733 12.373 27.733 27.733zM330.24 564.48v337.493h629.76v-337.493h-629.76zM439.467 289.707v28.587c0 15.36-12.373 27.733-27.733 27.733s-27.733-12.373-27.733-27.733v-28.587c0-15.36 12.373-27.733 27.733-27.733s27.733 12.373 27.733 27.733zM439.467 118.187v28.587c0 15.36-12.373 27.733-27.733 27.733s-27.733-12.373-27.733-27.733v-28.587c0-15.36 12.373-27.733 27.733-27.733s27.733 12.373 27.733 27.733zM439.467-38.827v14.080c0 15.36-12.373 27.733-27.733 27.733-11.52 0-20.907-6.827-25.6-16.64-9.813-4.267-16.64-14.080-16.64-25.6 0-15.36 12.373-27.733 27.733-27.733h14.080c15.36 0 27.733 12.373 27.733 27.733zM259.413-38.827c0 15.36-12.373 27.733-27.733 27.733h-33.28c-15.36 0-27.733-12.373-27.733-27.733s12.373-27.733 27.733-27.733h33.28c15.36 0 27.733 12.373 27.733 27.733zM60.16-38.827c0 11.52-6.827 20.907-16.64 25.6-4.267 9.813-14.080 16.64-25.6 16.64-15.36 0-27.733-12.373-27.733-27.733v-14.080c0-15.36 12.373-27.733 27.733-27.733h14.080c15.36 0 27.733 12.373 27.733 27.733zM46.080 461.653v28.587c0 15.36-12.373 27.733-27.733 27.733s-27.733-12.373-27.733-27.733v-28.587c0-15.36 12.373-27.733 27.733-27.733s27.733 12.373 27.733 27.733zM46.080 118.187v28.587c0 15.36-12.373 27.733-27.733 27.733s-27.733-12.373-27.733-27.733v-28.587c0-15.36 12.373-27.733 27.733-27.733s27.733 12.373 27.733 27.733zM46.080 289.707v28.587c0 15.36-12.373 27.733-27.733 27.733s-27.733-12.373-27.733-27.733v-28.587c0-15.36 12.373-27.733 27.733-27.733s27.733 12.373 27.733 27.733zM659.627 154.88l22.613 23.040c11.093 11.093 23.467 29.44 12.373 40.533-5.547 5.547-12.8 8.107-20.053 8.107s-14.933-2.987-20.48-8.533l-72.107-72.96c-5.547-5.547-8.533-12.8-8.107-20.48 0-7.68 2.987-14.933 8.533-20.48l72.107-71.253c11.093-11.093 29.44-11.093 40.533 0.427 11.093 11.093-1.707 29.44-12.8 40.533l-23.040 23.040c-0.427 45.653 3.84 7.253 0.853 57.6zM915.2 373.76v-145.067c0-35.84-14.507-68.693-37.973-92.587s-55.893-38.4-91.733-38.4h-157.867v57.173h157.867c20.48 0 39.253 6.827 52.907 20.48s22.187 32.427 22.187 53.333c0 48.213 0 96.853 0 145.067-2.133 28.587 53.333 34.133 55.040 0z" />
<glyph unicode="&#xe507;" glyph-name="vertical-menu" d="M326.827 904.96c-4.267-9.813-14.080-16.64-25.6-16.64-15.36 0-27.733 12.373-27.733 27.733v14.080c0 15.36 12.373 27.733 27.733 27.733h14.080c15.36 0 27.733-12.373 27.733-27.733 0-11.52-6.827-20.907-16.64-25.6zM301.653 778.24c15.36 0 27.733-12.373 27.733-27.733v-33.28c0-15.36-12.373-27.733-27.733-27.733s-27.733 12.373-27.733 27.733v33.28c0 15.36 12.373 27.733 27.733 27.733zM301.653 578.987c11.52 0 20.907-6.827 25.6-16.64 9.813-4.267 16.64-14.080 16.64-25.6 0-15.36-12.373-27.733-27.733-27.733h-14.080c-15.36 0-27.733 12.373-27.733 27.733v14.080c0 15.36 12.373 27.733 27.733 27.733zM486.827 509.013h-28.587c-6.827 0-13.227 2.56-18.347 6.827v-555.52c0-15.36-12.373-27.733-27.733-27.733h-393.387c-15.36 0-27.733 12.373-27.733 27.733v685.653c0 15.36 12.373 27.733 27.733 27.733h393.387c15.36 0 27.733-12.373 27.733-27.733v-88.32c4.693 4.267 11.093 6.827 18.347 6.827h28.587c15.36 0 27.733-12.373 27.733-27.733s-12.373-27.733-27.733-27.733zM384 618.24h-337.493v-629.76h337.493v629.76zM658.773 509.013h-28.587c-15.36 0-27.733 12.373-27.733 27.733s12.373 27.733 27.733 27.733h28.587c15.36 0 27.733-12.373 27.733-27.733s-12.373-27.733-27.733-27.733zM830.293 509.013h-28.587c-15.36 0-27.733 12.373-27.733 27.733s12.373 27.733 27.733 27.733h28.587c15.36 0 27.733-12.373 27.733-27.733s-12.373-27.733-27.733-27.733zM987.307 509.013h-14.080c-15.36 0-27.733 12.373-27.733 27.733 0 11.52 6.827 20.907 16.64 25.6 4.267 9.813 14.080 16.64 25.6 16.64 15.36 0 27.733-12.373 27.733-27.733v-14.080c0-15.36-12.373-27.733-27.733-27.733zM987.307 689.067c-15.36 0-27.733 12.373-27.733 27.733v33.28c0 15.36 12.373 27.733 27.733 27.733s27.733-12.373 27.733-27.733v-33.28c0-15.36-12.373-27.733-27.733-27.733zM987.307 888.32c-11.52 0-20.907 6.827-25.6 16.64-9.813 4.267-16.64 14.080-16.64 25.6 0 15.36 12.373 27.733 27.733 27.733h14.080c15.36 0 27.733-12.373 27.733-27.733v-14.080c0-15.36-12.373-27.733-27.733-27.733zM486.827 902.4h-28.587c-15.36 0-27.733 12.373-27.733 27.733s12.373 27.733 27.733 27.733h28.587c15.36 0 27.733-12.373 27.733-27.733s-12.373-27.733-27.733-27.733zM830.293 902.4h-28.587c-15.36 0-27.733 12.373-27.733 27.733s12.373 27.733 27.733 27.733h28.587c15.36 0 27.733-12.373 27.733-27.733s-12.373-27.733-27.733-27.733zM658.773 902.4h-28.587c-15.36 0-27.733 12.373-27.733 27.733s12.373 27.733 27.733 27.733h28.587c15.36 0 27.733-12.373 27.733-27.733s-12.373-27.733-27.733-27.733zM801.28 296.107l-23.040-22.613c-11.093-11.093-29.44-23.467-40.533-12.373-5.547 5.547-8.107 12.8-8.107 20.053s2.987 14.933 8.533 20.48l72.96 72.107c5.547 5.547 12.8 8.533 20.48 8.107 7.68 0 14.933-2.987 20.48-8.533l71.253-72.107c11.093-11.093 11.093-29.44-0.427-40.533-11.093-11.093-29.44 1.707-40.533 12.8l-23.040 23.040c-45.653 0.427-7.253-3.84-57.6-0.853zM581.973 40.533h145.067c35.84 0 68.693 14.507 92.587 37.973s38.4 55.893 38.4 91.733v157.867h-57.173v-157.867c0-20.48-6.827-39.253-20.48-52.907s-32.427-22.187-53.333-22.187c-48.213 0-96.853 0-145.067 0-28.587 2.133-34.133-53.333 0-55.040z" />
<glyph unicode="&#xe508;" glyph-name="obj208" d="M548.693 498.773h141.653v87.040h-153.173v153.173h-72.96c-2.133-11.093-4.267-21.76-7.253-32-3.84-13.653-8.107-26.027-13.227-37.547l-0.853-1.707c-5.973-9.813-12.8-19.627-20.48-29.013s-15.787-18.347-24.747-26.027c-8.533-7.253-19.627-14.080-31.573-19.627-10.24-5.12-21.333-9.387-32-12.8v-62.72h82.347v-228.693c0-13.227 1.28-25.173 2.56-34.987 1.707-9.813 3.84-17.92 5.973-24.32l0.427-0.427c3.84-12.8 14.507-23.467 26.88-36.267 5.973-5.973 13.227-11.093 21.333-15.787s17.067-8.107 26.88-11.52c6.4-1.28 6.827-1.28 7.253-1.707 16.64-3.84 31.573-7.253 55.040-7.253 11.52 0 23.040 0.427 34.133 1.707s21.333 2.987 31.573 5.12c9.813 2.133 20.907 5.12 32.427 8.96 8.96 2.987 17.92 6.4 27.307 10.24v58.88c-7.68-3.84-14.933-6.4-22.187-8.533-13.653-3.84-27.307-5.12-43.947-5.12-10.667 0-20.053 1.28-29.013 3.84-8.533 2.133-16.64 5.547-24.32 9.813-5.973 2.987-11.947 7.68-16.64 13.227-5.12 5.973-9.813 12.8-13.227 18.773l-1.28 2.987c-2.987 11.093-2.987 33.28-2.987 69.547v153.173h14.080v-0.427zM512 912.64c-128.427 0-244.48-52.053-328.533-136.107s-136.107-200.107-136.107-328.533c0-128.427 52.053-244.48 136.107-328.533s200.107-136.107 328.533-136.107c128.427 0 244.48 52.053 328.533 136.107s136.107 200.107 136.107 328.533c0 128.427-52.053 244.48-136.107 328.533s-200.107 136.107-328.533 136.107zM149.76 810.24c92.587 92.587 220.587 149.76 362.24 149.76s269.653-57.173 362.24-149.76c92.587-92.587 149.76-220.587 149.76-362.24s-57.173-269.653-149.76-362.24c-92.587-92.587-220.587-149.76-362.24-149.76s-269.653 57.173-362.24 149.76c-92.587 92.587-149.76 220.587-149.76 362.24s57.173 269.653 149.76 362.24z" />
<glyph unicode="&#xe509;" glyph-name="obj209" d="M800.853 232.96h-113.493v245.333c0 29.44-8.533 48.213-43.947 48.213-58.88 0-69.12-48.213-69.12-48.213v-245.333h-113.493v398.507h113.493v-37.973c16.64 12.8 56.747 37.973 113.493 37.973 37.973 0 113.493-23.040 113.493-155.307v-243.2zM349.867 654.933c-29.44 0-52.48 23.040-52.48 52.48s23.040 52.48 52.48 52.48c29.44 0 52.48-23.040 52.48-52.48s-23.040-52.48-52.48-52.48zM402.347 232.96h-113.493v398.933h113.493zM512 912.64c-128.427 0-244.48-52.053-328.533-136.107s-136.107-200.107-136.107-328.533c0-128.427 52.053-244.48 136.107-328.533s200.107-136.107 328.533-136.107c128.427 0 244.48 52.053 328.533 136.107s136.107 200.107 136.107 328.533c0 128.427-52.053 244.48-136.107 328.533s-200.107 136.107-328.533 136.107zM149.76 810.24c92.587 92.587 220.587 149.76 362.24 149.76s269.653-57.173 362.24-149.76c92.587-92.587 149.76-220.587 149.76-362.24s-57.173-269.653-149.76-362.24c-92.587-92.587-220.587-149.76-362.24-149.76s-269.653 57.173-362.24 149.76c-92.587 92.587-149.76 220.587-149.76 362.24s57.173 269.653 149.76 362.24z" />
<glyph unicode="&#xe50a;" glyph-name="obj210" d="M637.867 448h-81.067v-292.693h-110.080v292.693h-72.107v101.12h72.107v58.453c0 83.2 22.613 132.693 119.467 132.693h81.067v-101.12h-49.493c-38.4 0-40.533-13.653-40.533-40.533v-49.493h90.027l-11.093-101.12h2.133zM512 912.64c-128.427 0-244.48-52.053-328.533-136.107s-136.107-200.107-136.107-328.533c0-128.427 52.053-244.48 136.107-328.533s200.107-136.107 328.533-136.107c128.427 0 244.48 52.053 328.533 136.107s136.107 200.107 136.107 328.533c0 128.427-52.053 244.48-136.107 328.533s-200.107 136.107-328.533 136.107zM149.76 810.24c92.587 92.587 220.587 149.76 362.24 149.76s269.653-57.173 362.24-149.76c92.587-92.587 149.76-220.587 149.76-362.24s-57.173-269.653-149.76-362.24c-92.587-92.587-220.587-149.76-362.24-149.76s-269.653 57.173-362.24 149.76c-92.587 92.587-149.76 220.587-149.76 362.24s57.173 269.653 149.76 362.24z" />
<glyph unicode="&#xe50b;" glyph-name="obj314" d="M512 912.64c-128.427 0-244.48-52.053-328.533-136.107s-136.107-200.107-136.107-328.533c0-128.427 52.053-244.48 136.107-328.533s200.107-136.107 328.533-136.107c128.427 0 244.48 52.053 328.533 136.107s136.107 200.107 136.107 328.533c0 128.427-52.053 244.48-136.107 328.533s-200.107 136.107-328.533 136.107zM149.76 810.24c92.587 92.587 220.587 149.76 362.24 149.76s269.653-57.173 362.24-149.76c92.587-92.587 149.76-220.587 149.76-362.24s-57.173-269.653-149.76-362.24c-92.587-92.587-220.587-149.76-362.24-149.76s-269.653 57.173-362.24 149.76c-92.587 92.587-149.76 220.587-149.76 362.24s57.173 269.653 149.76 362.24zM738.56 501.76v-110.933h-55.467v110.933h-110.933v57.6h110.933v110.933h55.467v-110.933h110.933v-57.6h-110.933zM390.827 147.627c-98.987 0-180.907 40.96-180.907 104.96 0 65.707 75.947 127.573 174.933 127.573h30.72c-14.507 12.373-24.747 29.013-24.747 49.493 0 12.373 4.267 22.613 8.107 32.853h-16.64c-80.213 0-135.68 57.6-135.68 129.707 0 69.973 74.24 129.707 154.453 129.707h177.067l-39.253-29.013h-55.467c37.12-14.507 57.6-57.6 57.6-102.827 0-37.12-20.48-69.973-49.493-92.587s-34.987-30.72-34.987-51.627c0-16.64 30.72-43.093 47.36-55.467 47.36-32.853 61.867-64 61.867-115.2 0-64-61.867-127.573-174.933-127.573v0zM446.293 355.413c-14.507 4.267-29.013 5.973-45.227 5.973-67.84 0-129.707-40.96-129.707-92.587s49.493-94.72 117.333-94.72c96.853 0 129.707 40.96 129.707 92.587 0 5.973 0 12.373-2.133 18.347-8.107 29.013-34.987 43.093-72.107 69.973v0h2.133zM475.307 585.813c-8.107 59.733-51.627 109.227-96.853 109.227-45.227 2.133-75.947-45.227-67.84-104.96s51.627-109.227 96.853-110.933c45.227-2.133 75.947 45.227 67.84 107.093v0z" />
<glyph unicode="&#xe50c;" glyph-name="arrow3" d="M0 376.747h666.453v-113.493l357.547 184.747-357.547 184.747v-112.64h-666.453z" />
<glyph unicode="&#xe50d;" glyph-name="cardview" d="M157.867 846.933h292.267v-799.147h-316.587v799.147h24.32zM401.067 798.293h-218.88v-701.867h218.88v701.867zM571.733 400.64h292.267v-354.133h-316.587v354.133h24.32zM814.933 352h-218.88v-256.853h218.88v256.853zM571.733 846.933h292.267v-354.133h-316.587v354.133h24.32zM814.933 798.293h-218.88v-256.853h218.88v256.853zM24.32 960h999.68v-1024h-1024v1024h24.32zM975.36 911.36h-926.293v-926.293h926.293v926.293z" />
<glyph unicode="&#xe50e;" glyph-name="tabview" d="M367.36 790.613v88.32c0 44.373-35.84 80.213-80.213 80.213h-206.933c-44.373 0-80.213-35.84-80.213-80.213v-862.72c0-44.373 35.84-80.213 80.213-80.213h863.573c44.373 0 80.213 35.84 80.213 80.213v771.84l-656.64 2.133zM932.267 28.16h-840.533v685.653h840.533v-685.653zM672.427 811.52h-245.76v59.733c0 29.44 23.893 53.76 53.76 53.76h138.667c29.44 0 53.76-23.893 53.76-53.76v-59.733zM992 811.52h-245.76v59.733c0 29.44 23.893 53.76 53.76 53.76h138.667c29.44 0 53.76-23.893 53.76-53.76v-59.733z" />
<glyph unicode="&#xe50f;" glyph-name="graphchange2" d="M1022.293 518.827c-0.427 0.427-0.853 0.853-1.28 0.853-0.853 0.427-1.707 0.853-2.987 0.853h-80.64l-2.56 14.507c-20.48 110.507-79.36 208.213-162.56 277.333-81.92 68.267-186.88 109.227-301.653 109.227-130.133 0-247.893-52.907-333.653-138.24-85.333-85.333-138.24-203.52-138.24-333.653s52.907-247.893 138.24-333.653c85.333-85.333 203.52-138.24 333.653-138.24 84.053 0 165.547 22.613 235.947 63.147 70.827 40.533 130.987 99.84 172.8 172.373v0c3.84 6.4 4.267 13.653 2.56 20.48s-5.973 12.8-12.8 16.64v0c-6.4 3.84-13.653 4.267-20.053 2.56-6.827-1.707-12.8-5.973-16.64-12.373-37.12-64.427-90.453-116.907-153.173-153.173s-134.4-56.32-209.067-56.32c-115.627 0-220.16 46.933-295.68 122.453-75.947 75.947-122.453 180.48-122.453 295.68 0 115.627 46.933 220.16 122.453 295.68 75.947 75.947 180.48 122.453 295.68 122.453 98.133 0 188.587-34.133 260.267-91.307 72.96-58.027 125.867-140.373 147.2-234.24l4.693-21.333h-87.467c-0.853 0-1.707-0.427-2.56-0.427-0.853-0.427-1.28-1.28-1.707-2.133s-0.427-1.707-0.427-2.56c0-0.853 0.427-1.707 0.853-2.56l110.933-133.12c0.853-0.853 1.28-1.28 2.133-1.707 0.427-0.427 1.28-0.427 1.707-0.427 0.853 0 1.28 0 1.707 0.427 0.853 0.427 1.707 0.853 2.133 1.707v0l110.933 133.12v0.427c0.427 0.427 0.853 1.28 0.853 1.707 0 1.28 0 2.133-0.427 3.413v0zM588.8 599.040v-300.8c0-13.653 5.547-25.6 14.507-34.56s21.333-14.507 34.56-14.507c13.653 0 25.6 5.547 34.56 14.507s14.507 21.333 14.507 34.56v300.8c0 13.653-5.547 25.6-14.507 34.56s-21.333 14.507-34.56 14.507c-13.653 0-25.6-5.547-34.56-14.507s-14.507-21.333-14.507-34.56zM421.973 532.48v-233.813c0-13.653 5.547-25.6 14.507-34.56s21.333-14.507 34.56-14.507c13.653 0 25.6 5.547 34.56 14.507s14.507 21.333 14.507 34.56v233.813c0 13.653-5.547 25.6-14.507 34.56s-21.333 14.507-34.56 14.507c-13.653 0-25.6-5.547-34.56-14.507s-14.507-21.333-14.507-34.56zM255.147 465.493v-166.827c0-13.653 5.547-25.6 14.507-34.56s21.333-14.507 34.56-14.507c13.653 0 25.6 5.547 34.56 14.507s14.507 21.333 14.507 34.56v166.827c0 13.653-5.547 25.6-14.507 34.56s-21.333 14.507-34.56 14.507c-13.653 0-25.6-5.547-34.56-14.507s-14.507-21.333-14.507-34.56z" />
<glyph unicode="&#xe510;" glyph-name="manageview" d="M118.613 624.64h104.107v-100.693h-104.107v100.693zM118.613 455.253h104.107v-101.12h-104.107v101.12zM270.080 624.64h412.16v-100.693h-412.16v100.693zM270.080 455.253h412.16v-101.12h-412.16v101.12zM41.813 59.307v632.747h792.32v-331.947c9.387 1.28 19.2 1.707 28.587 1.707 15.36 0 30.293-1.707 44.8-4.693v519.253c0 27.307-22.187 49.067-49.067 49.067h-841.387c-27.307 0-49.067-22.187-49.067-49.067v-841.387c0-26.88 22.187-49.067 49.067-49.067h614.827c-28.16 28.587-49.493 55.467-62.293 73.813 0 0-527.787 0-527.787 0zM809.387 317.867c-136.107 0-246.613-173.653-246.613-173.653s110.507-173.653 246.613-173.653c136.107 0 246.613 173.653 246.613 173.653s-110.507 173.653-246.613 173.653zM809.387 61.44c-46.080 0-83.2 37.12-83.2 83.2s37.12 83.2 83.2 83.2c45.653 0 83.2-37.12 83.2-83.2 0-45.653-37.12-83.2-83.2-83.2z" />
<glyph unicode="&#xe511;" glyph-name="rss" d="M256 64c0-70.692-57.308-128-128-128s-128 57.308-128 128c0 70.692 57.308 128 128 128s128-57.308 128-128zM0 960v-192c459.52 0 832-372.48 832-832h192c0 565.76-458.24 1024-1024 1024zM448-64h192c0 353.28-286.72 640-640 640v-192c247.467 0 448-200.533 448-448v0z" />
<glyph unicode="&#xe512;" glyph-name="refresh3" d="M805.12 194.56h-557.227v279.893l61.44-65.707c9.387-10.24 22.613-15.36 35.413-15.36 11.947 0 23.467 4.267 32.853 12.8 19.627 18.347 20.48 48.64 2.56 68.267l-145.067 155.733c-0.427 0.427-1.28 0.853-1.707 1.28-3.413 3.413-7.68 6.4-11.947 8.533-0.853 0.427-1.28 0.853-2.133 1.28 0 0-0.427 0-0.427 0-5.12 2.133-10.24 2.987-15.787 3.413-1.707 0-3.413 0-5.12 0-3.84 0-7.68-0.853-11.52-1.707-1.707-0.427-3.413-0.853-5.12-1.707-4.693-2.133-9.387-4.693-13.653-8.107-0.427-0.427-0.427-0.427-0.853-0.427 0 0 0 0 0 0s-0.427 0-0.427-0.427l-160.853-153.6c-19.2-18.347-20.053-49.067-1.707-68.267s49.067-20.053 68.267-1.707l79.36 75.52v-337.92c0-26.88 21.76-48.213 48.213-48.213h605.44c26.88 0 48.213 21.76 48.213 48.213 0 26.88-21.76 48.213-48.213 48.213zM932.693 514.56l-79.36-75.52v337.92c0 26.88-21.76 48.213-48.213 48.213h-605.44c-26.88 0-48.213-21.76-48.213-48.213 0-26.88 21.76-48.213 48.213-48.213h557.227v-279.893l-61.44 65.707c-18.347 19.627-48.64 20.48-68.267 2.56-19.627-18.347-20.48-48.64-2.56-68.267l145.067-155.733c0.853-0.853 2.133-1.707 2.987-2.56s1.707-1.707 2.56-2.56c7.68-5.973 17.067-9.387 26.453-10.24 0.853 0 2.133-0.427 2.987-0.427v0 0c5.973 0 11.947 1.28 17.493 3.413 2.56 0.853 4.693 2.987 6.827 4.267 2.987 1.707 5.973 2.987 8.533 5.12 0 0 0 0 0 0s0.427 0 0.427 0l160.853 153.6c19.2 18.347 20.053 49.067 1.707 68.267s-49.067 20.053-68.267 1.707z" />
<glyph unicode="&#xe513;" glyph-name="comment" d="M955.307 704.853c-45.653 56.32-107.947 100.693-186.453 133.12s-164.267 49.067-257.28 49.067c-93.013 0-178.773-16.213-257.28-49.067-78.507-32.427-140.373-76.8-186.453-133.12-45.653-56.32-68.693-117.333-68.693-183.893 0-57.173 17.067-110.507 51.627-160.427s81.493-91.733 141.227-125.867c-4.267-15.36-8.96-29.867-14.933-43.52-5.547-13.653-10.667-24.747-15.36-33.707s-10.667-18.347-18.773-29.013c-7.68-10.667-13.653-18.347-17.92-22.613-3.84-4.267-10.667-11.52-19.627-21.76s-14.933-16.64-17.92-19.627c-0.427 0-1.707-1.707-4.693-5.12-2.56-3.413-3.84-4.693-3.84-4.693l-3.413-5.12c-1.707-2.987-2.56-4.693-2.56-5.547s0-2.56-1.28-5.547c-0.853-2.987-0.853-5.547 0.427-6.827v-0.427c1.707-6.4 4.693-11.52 8.96-15.787 4.693-3.84 9.813-5.973 15.36-5.973h2.987c24.747 2.987 46.507 7.253 65.28 12.373 99.84 25.6 187.307 71.68 262.827 138.24 28.587-2.987 56.32-4.693 82.773-4.693 93.013 0 178.773 16.213 257.28 49.067 78.507 32.427 140.373 76.8 186.453 133.12 45.653 56.32 68.693 117.333 68.693 183.893 0 66.133-23.040 127.573-68.693 183.893zM890.88 375.467c-39.68-44.8-93.44-80.64-161.28-107.093-67.413-26.453-140.373-39.68-218.027-39.68-23.040 0-47.787 1.707-74.24 4.693l-32.427 3.413-24.747-21.76c-46.933-40.96-99.413-73.813-157.013-97.707 17.493 30.72 30.72 63.573 40.107 98.133l15.36 55.040-49.92 28.587c-49.493 28.16-87.893 61.44-115.2 100.267s-40.96 79.36-40.96 122.027c0 52.053 20.053 100.693 59.733 145.92 39.68 44.8 93.44 80.64 161.28 107.093 67.413 26.453 140.373 39.68 218.027 39.68s150.187-13.227 218.027-39.68c67.413-26.453 121.173-62.293 161.28-107.093 39.68-44.8 59.733-93.44 59.733-145.92 0-52.053-20.053-100.693-59.733-145.92z" />
<glyph unicode="&#xe514;" glyph-name="dateview" d="M352 576h128v-128h-128v128zM544 576h128v-128h-128v128zM736 576h128v-128h-128v128zM160 192h128v-128h-128v128zM352 192h128v-128h-128v128zM544 192h128v-128h-128v128zM352 384h128v-128h-128v128zM544 384h128v-128h-128v128zM736 384h128v-128h-128v128zM160 384h128v-128h-128v128zM864 960v-64h-128v64h-448v-64h-128v64h-128v-1024h960v1024h-128zM928 0h-832v704h832v-704z" />
<glyph unicode="&#xe515;" glyph-name="favourite3" d="M1024 557.653c0 15.36-11.52 24.747-34.56 28.16l-308.907 44.8-138.667 279.893c-7.68 16.64-17.92 25.173-30.293 25.173s-22.187-8.533-30.293-25.173l-138.667-279.893-308.907-44.8c-23.040-3.84-34.56-13.227-34.56-28.16 0-8.533 5.12-18.347 15.36-29.44l224-218.027-52.907-307.627c-0.853-5.547-1.28-9.813-1.28-12.373 0-8.533 2.133-15.787 6.4-21.76s10.667-8.96 19.2-8.96c7.253 0 15.787 2.56 24.747 7.253l276.48 145.067 276.48-145.067c8.533-5.12 16.64-7.253 24.747-7.253 16.64 0 25.173 10.24 25.173 30.72 0 5.12 0 9.387-0.427 12.373l-52.907 307.627 223.573 218.027c10.667 10.667 15.787 20.48 15.787 29.44zM699.733 337.92l44.373-258.987-232.107 122.453-232.533-122.453 44.8 258.987-188.16 182.613 259.84 37.973 116.48 235.093 116.48-235.093 259.84-37.973-188.16-182.613z" />
<glyph unicode="&#xe516;" glyph-name="gridview" d="M0 896v-896h1024v896h-1024zM384 320v192h256v-192h-256zM640 256v-192h-256v192h256zM640 768v-192h-256v192h256zM320 768v-192h-256v192h256zM64 512h256v-192h-256v192zM704 512h256v-192h-256v192zM704 576v192h256v-192h-256zM64 256h256v-192h-256v192zM704 64v192h256v-192h-256z" />
<glyph unicode="&#xe517;" glyph-name="listview" d="M972.373 808.533h-576c-28.587 0-51.627 23.040-51.627 51.627s23.040 51.627 51.627 51.627h576c28.587 0 51.627-23.040 51.627-51.627s-23.040-51.627-51.627-51.627zM972.373 396.373h-576c-28.587 0-51.627 23.040-51.627 51.627s23.040 51.627 51.627 51.627h576c28.587 0 51.627-23.040 51.627-51.627s-23.040-51.627-51.627-51.627zM972.373-15.36h-576c-28.587 0-51.627 23.040-51.627 51.627s23.040 51.627 51.627 51.627h576c28.587 0 51.627-23.040 51.627-51.627s-23.040-51.627-51.627-51.627zM0 966.827h213.333v-213.76h-213.333v213.76zM0 554.667h213.333v-213.76h-213.333v213.76zM0 142.933h213.333v-213.333h-213.333v213.333z" />
<glyph unicode="&#xe518;" glyph-name="notes" d="M958.293 960h-821.76v-136.533h-99.84c-18.773 0-36.693-13.227-36.693-32v-68.267c0-18.773 17.92-36.267 36.693-36.267h99.84v-68.267h-99.84c-18.773 0-36.693-13.227-36.693-32v-68.267c0-18.773 17.92-36.267 36.693-36.267h99.84v-68.267h-99.84c-18.773 0-36.693-13.227-36.693-32v-68.267c0-18.773 17.92-36.267 36.693-36.267h99.84v-68.267h-99.84c-18.773 0-36.693-13.227-36.693-32v-68.267c0-18.773 17.92-36.267 36.693-36.267h99.84v-136.533h821.76c37.547 0 65.707 32.427 65.707 70.4v887.467c0 37.547-28.16 66.133-65.707 66.133zM341.333 4.267h-136.533v68.267h36.693c18.773 0 31.573 17.493 31.573 36.267v68.267c0 18.773-12.8 32-31.573 32h-36.693v68.267h36.693c18.773 0 31.573 17.493 31.573 36.267v68.267c0 18.773-12.8 32-31.573 32h-36.693v68.267h36.693c18.773 0 31.573 17.493 31.573 36.267v68.267c0 18.773-12.8 32-31.573 32h-36.693v68.267h36.693c18.773 0 31.573 17.493 31.573 36.267v68.267c0 18.773-12.8 32-31.573 32h-36.693v68.267h136.533v-887.467z" />
<glyph unicode="&#xe519;" glyph-name="share4" d="M361.387 448c0-3.413-0.853-6.827-0.853-10.24l366.933-183.467c31.573 26.453 71.68 43.093 116.053 43.093 99.84 0 180.907-81.067 180.907-180.48 0-99.84-81.067-180.907-180.907-180.907s-180.907 81.067-180.907 180.907c0 3.84 0.853 6.827 0.853 10.24l-366.933 183.467c-31.573-26.453-71.68-43.093-116.053-43.093-99.84 0-180.907 80.64-180.907 180.48s81.067 180.907 180.907 180.907c44.373 0 84.48-16.64 116.053-43.093l366.933 183.467c0 3.413-0.853 6.827-0.853 10.667 0 99.84 80.64 180.48 180.907 180.48 99.84 0 180.907-81.067 180.907-180.48 0-99.84-81.067-180.907-180.907-180.907-44.373 0-84.48 16.64-116.053 43.093l-366.933-183.467c0-3.413 0.853-6.827 0.853-10.24z" />
<glyph unicode="&#xe51a;" glyph-name="bulk" d="M901.547 827.733h-72.96v72.96c0 15.787-6.4 29.867-16.64 40.107s-24.32 16.64-40.107 16.64h-650.667c-15.787 0-29.867-6.4-40.107-16.64s-16.64-24.32-16.64-40.107v-780.8c0-15.787 6.4-29.867 16.64-40.107s24.32-16.64 40.107-16.64h72.96v-72.96c0-15.787 6.4-29.867 16.64-40.107s24.32-16.64 40.107-16.64h650.667c15.787 0 29.867 6.4 40.107 16.64s16.64 24.32 16.64 40.107v780.8c0 15.787-6.4 29.867-16.64 40.107s-24.32 16.64-40.107 16.64zM112.64 120.32v788.907h666.88v-797.013h-666.88v8.107zM901.547-17.92h-658.773v81.067h528.64c15.787 0 29.867 6.4 40.107 16.64s16.64 24.32 16.64 40.107v658.773h81.067v-797.013h-8.107l0.427 0.427zM212.053 327.253h450.133c8.96 0 17.067-2.987 22.613-8.107 5.973-4.693 9.387-11.947 9.387-19.627s-3.84-14.507-9.387-19.627c-5.973-4.693-14.080-7.68-22.613-7.68h-450.133c-8.96 0-17.067 2.987-22.613 7.68-5.973 4.693-9.387 11.947-9.387 19.627s3.84 14.507 9.387 19.627c5.973 4.693 14.080 7.68 22.613 7.68v0.427zM662.187 326.4h-450.133c-8.96 0-17.067-2.987-22.613-7.68-5.973-4.693-9.387-11.947-9.387-19.2s3.413-14.080 9.387-19.2c5.973-4.693 14.080-7.68 22.613-7.68h450.133c8.96 0 17.067 2.987 22.613 7.68 5.973 4.693 9.387 11.947 9.387 19.2s-3.84 14.080-9.387 19.2c-5.973 4.693-14.080 7.68-22.613 7.68zM212.053 475.733h450.133c8.96 0 17.067-2.987 22.613-7.68 5.973-4.693 9.387-11.947 9.387-19.627s-3.84-14.507-9.387-19.627c-5.973-4.693-14.080-8.107-22.613-8.107h-450.133c-8.96 0-17.067 2.987-22.613 7.68-5.973 4.693-9.387 11.947-9.387 19.627s3.84 14.507 9.387 19.627c5.973 4.693 14.080 7.68 22.613 7.68v0.427zM662.187 475.307h-450.133c-8.96 0-17.067-2.987-22.613-7.68-5.973-4.693-9.387-11.947-9.387-19.2s3.413-14.080 9.387-19.2c5.973-4.693 14.080-7.68 22.613-7.68h450.133c8.96 0 17.067 2.987 22.613 7.68 5.973 4.693 9.387 11.947 9.387 19.2s-3.413 14.080-9.387 19.2c-5.973 4.693-14.080 7.68-22.613 7.68zM212.053 624.64h450.133c8.96 0 17.067-2.987 22.613-7.68 5.973-4.693 9.387-11.947 9.387-19.627s-3.84-14.507-9.387-19.627c-5.973-4.693-14.080-7.68-22.613-7.68h-450.133c-8.96 0-17.067 2.987-22.613 7.68-5.973 4.693-9.387 11.947-9.387 19.627s3.84 14.507 9.387 19.627c5.973 4.693 14.080 7.68 22.613 7.68zM662.187 624.213h-450.133c-8.96 0-17.067-2.987-22.613-7.68-5.973-4.693-9.387-11.947-9.387-19.2s3.413-14.080 9.387-19.2c5.973-4.693 14.080-7.68 22.613-7.68h450.133c8.96 0 17.067 2.987 22.613 7.68 5.973 4.693 9.387 11.947 9.387 19.2s-3.413 14.080-9.387 19.2c-5.973 4.693-14.080 7.68-22.613 7.68zM340.48 808.533h321.28c8.96 0 17.067-2.987 22.613-7.68 5.973-4.693 9.387-11.947 9.387-19.627s-3.84-14.507-9.387-19.627c-5.973-4.693-14.080-7.68-22.613-7.68h-321.28c-8.96 0-17.067 2.987-22.613 7.68-5.973 4.693-9.387 11.947-9.387 19.627s3.84 14.507 9.387 19.627c5.973 4.693 14.080 7.68 22.613 7.68zM662.187 808.107h-321.28c-8.96 0-17.067-2.987-22.613-7.68-5.973-4.693-9.387-11.947-9.387-19.2s3.413-14.080 9.387-19.2c5.973-4.693 14.080-7.68 22.613-7.68h321.28c8.96 0 17.067 2.987 22.613 7.68 5.973 4.693 9.387 11.947 9.387 19.2s-3.413 14.080-9.387 19.2c-5.973 4.693-14.080 7.68-22.613 7.68z" />
<glyph unicode="&#xe51b;" glyph-name="cab_clone" d="M901.547 827.733h-72.96v72.96c0 15.787-6.4 29.867-16.64 40.107s-24.32 16.64-40.107 16.64h-650.667c-15.787 0-29.867-6.4-40.107-16.64s-16.64-24.32-16.64-40.107v-780.8c0-15.787 6.4-29.867 16.64-40.107s24.32-16.64 40.107-16.64h72.96v-72.96c0-15.787 6.4-29.867 16.64-40.107s24.32-16.64 40.107-16.64h650.667c15.787 0 29.867 6.4 40.107 16.64s16.64 24.32 16.64 40.107v780.8c0 15.787-6.4 29.867-16.64 40.107s-24.32 16.64-40.107 16.64zM112.64 120.32v788.907h666.88v-797.013h-666.88v8.107zM901.547-17.92h-658.773v81.067h528.64c15.787 0 29.867 6.4 40.107 16.64s16.64 24.32 16.64 40.107v658.773h81.067v-797.013h-8.107l0.427 0.427zM212.053 327.253h450.133c8.96 0 17.067-2.987 22.613-8.107 5.973-4.693 9.387-11.947 9.387-19.627s-3.84-14.507-9.387-19.627c-5.973-4.693-14.080-7.68-22.613-7.68h-450.133c-8.96 0-17.067 2.987-22.613 7.68-5.973 4.693-9.387 11.947-9.387 19.627s3.84 14.507 9.387 19.627c5.973 4.693 14.080 7.68 22.613 7.68v0.427zM662.187 326.4h-450.133c-8.96 0-17.067-2.987-22.613-7.68-5.973-4.693-9.387-11.947-9.387-19.2s3.413-14.080 9.387-19.2c5.973-4.693 14.080-7.68 22.613-7.68h450.133c8.96 0 17.067 2.987 22.613 7.68 5.973 4.693 9.387 11.947 9.387 19.2s-3.84 14.080-9.387 19.2c-5.973 4.693-14.080 7.68-22.613 7.68zM212.053 475.733h450.133c8.96 0 17.067-2.987 22.613-7.68 5.973-4.693 9.387-11.947 9.387-19.627s-3.84-14.507-9.387-19.627c-5.973-4.693-14.080-8.107-22.613-8.107h-450.133c-8.96 0-17.067 2.987-22.613 7.68-5.973 4.693-9.387 11.947-9.387 19.627s3.84 14.507 9.387 19.627c5.973 4.693 14.080 7.68 22.613 7.68v0.427zM662.187 475.307h-450.133c-8.96 0-17.067-2.987-22.613-7.68-5.973-4.693-9.387-11.947-9.387-19.2s3.413-14.080 9.387-19.2c5.973-4.693 14.080-7.68 22.613-7.68h450.133c8.96 0 17.067 2.987 22.613 7.68 5.973 4.693 9.387 11.947 9.387 19.2s-3.413 14.080-9.387 19.2c-5.973 4.693-14.080 7.68-22.613 7.68zM212.053 624.64h450.133c8.96 0 17.067-2.987 22.613-7.68 5.973-4.693 9.387-11.947 9.387-19.627s-3.84-14.507-9.387-19.627c-5.973-4.693-14.080-7.68-22.613-7.68h-450.133c-8.96 0-17.067 2.987-22.613 7.68-5.973 4.693-9.387 11.947-9.387 19.627s3.84 14.507 9.387 19.627c5.973 4.693 14.080 7.68 22.613 7.68zM662.187 624.213h-450.133c-8.96 0-17.067-2.987-22.613-7.68-5.973-4.693-9.387-11.947-9.387-19.2s3.413-14.080 9.387-19.2c5.973-4.693 14.080-7.68 22.613-7.68h450.133c8.96 0 17.067 2.987 22.613 7.68 5.973 4.693 9.387 11.947 9.387 19.2s-3.413 14.080-9.387 19.2c-5.973 4.693-14.080 7.68-22.613 7.68zM340.48 808.533h321.28c8.96 0 17.067-2.987 22.613-7.68 5.973-4.693 9.387-11.947 9.387-19.627s-3.84-14.507-9.387-19.627c-5.973-4.693-14.080-7.68-22.613-7.68h-321.28c-8.96 0-17.067 2.987-22.613 7.68-5.973 4.693-9.387 11.947-9.387 19.627s3.84 14.507 9.387 19.627c5.973 4.693 14.080 7.68 22.613 7.68zM662.187 808.107h-321.28c-8.96 0-17.067-2.987-22.613-7.68-5.973-4.693-9.387-11.947-9.387-19.2s3.413-14.080 9.387-19.2c5.973-4.693 14.080-7.68 22.613-7.68h321.28c8.96 0 17.067 2.987 22.613 7.68 5.973 4.693 9.387 11.947 9.387 19.2s-3.413 14.080-9.387 19.2c-5.973 4.693-14.080 7.68-22.613 7.68z" />
<glyph unicode="&#xe51c;" glyph-name="demographic" d="M512 960c-282.88 0-512-229.12-512-512s229.12-512 512-512c282.88 0 512 229.12 512 512s-229.12 512-512 512zM957.013 464.64h-197.973c-1.707 72.96-14.933 143.36-37.973 206.933 44.373 18.773 85.76 43.52 123.307 72.533 66.987-75.093 108.8-172.373 112.64-279.467zM493.653 2.987c-55.040 45.653-101.12 104.96-134.827 174.080 43.093 13.653 89.173 20.907 136.533 22.613v-196.693c-0.427 0-1.28 0-1.707 0zM530.347 893.013c62.293-52.053 113.067-121.173 147.627-202.24-46.933-16.213-97.28-25.6-149.333-26.88v229.547c0.427 0 1.28 0 1.707 0zM585.387 887.467c91.307-15.36 172.8-57.6 236.8-119.467-34.56-26.453-72.533-49.067-113.067-66.133-30.293 71.253-72.107 134.4-123.307 185.6zM495.787 893.013v-229.547c-52.053 1.707-102.4 11.093-149.333 26.88 34.56 81.067 85.333 150.613 147.627 202.24 0.427 0 1.28 0 1.707 0zM315.733 701.867c-40.96 17.067-78.507 39.68-113.067 66.133 63.573 61.867 145.493 104.107 236.8 119.467-51.2-51.2-93.44-114.347-123.307-185.6zM334.080 660.053c51.2-17.493 105.387-27.733 161.707-29.867v-165.973h-197.547c1.707 69.12 14.080 135.253 35.84 195.84zM495.787 431.36v-199.253c-52.053-1.707-102.4-10.24-149.76-25.173-28.587 68.267-45.653 143.787-47.36 224.427h197.547zM439.040 8.533c-81.493 13.653-155.733 49.067-216.32 100.693 32.427 22.613 67.84 41.813 105.387 56.32 28.587-59.733 66.56-112.64 110.933-157.013zM528.64 2.56v196.693c47.36-1.707 93.013-8.96 136.533-22.613-33.707-69.12-79.787-128.427-134.827-174.080-0.427 0-1.28 0-1.707 0zM696.32 165.12c37.547-14.507 72.533-33.707 105.387-56.32-60.16-51.627-134.4-87.040-216.32-100.693 44.373 44.373 81.92 97.28 110.933 157.013zM678.827 206.507c-47.36 15.36-97.707 23.893-149.76 25.173v199.253h197.547c-2.133-80.213-18.773-156.16-47.36-224.427zM529.067 463.787v165.973c56.32 1.707 110.933 11.947 161.707 29.867 21.76-60.587 34.133-126.72 35.84-195.84h-197.547zM180.053 743.253c37.547-29.44 78.933-54.187 123.307-72.533-23.040-64-36.267-133.973-37.973-206.933h-197.973c3.84 107.093 45.653 204.8 112.64 279.467zM67.413 430.507h197.973c2.133-84.48 19.627-164.267 49.493-235.947-41.813-16.213-80.64-37.973-116.907-64-77.653 77.227-126.293 182.613-130.987 299.52zM826.88 130.987c-35.84 25.6-75.093 47.36-116.907 64 29.867 71.68 47.787 151.467 49.493 235.947h197.973c-4.267-116.907-53.333-222.293-130.987-299.52z" />
<glyph unicode="&#xe51d;" glyph-name="mass" d="M855.467 637.44c0 3.84-2.133 7.68-5.973 11.52s-7.68 5.973-11.52 5.973h-146.773v40.96h146.773c15.36 0 29.013-8.107 40.533-19.627 9.813-9.813 17.493-25.173 17.493-40.533v-274.347c0-15.36-5.973-29.013-17.493-40.533-5.973-5.973-14.080-11.093-23.040-14.507 0 110.507 0 221.013 0 331.093zM322.133 695.893v-41.387h-150.613c-3.84 0-7.68-2.133-11.52-5.973s-5.973-7.68-5.973-11.52v-274.347c0-3.84 2.133-7.68 5.973-11.52s7.68-5.973 11.52-5.973h120.32v-40.533h-120.32c-15.36 0-29.013 5.973-40.533 17.493-9.813 9.813-17.493 25.173-17.493 40.533v274.347c0 15.36 5.973 29.013 17.493 40.533 9.813 9.813 25.173 17.493 40.533 17.493v0l150.613 0.853zM598.613 902.4h-237.227v-237.227h291.413v189.013l-54.613 0.853 0.427 47.36zM606.293 942.933c86.613-72.107-0.853-0.427 85.333-71.68v-247.467c-123.733 0-247.467 0-371.2 0v317.013c93.44 0 190.72 2.133 285.867 2.133zM820.053 506.027c0 17.493-15.36 32.853-32.853 32.853s-32.853-15.36-32.853-32.853c0-17.493 15.36-32.853 32.853-32.853s32.853 15.36 32.853 32.853zM884.907 349.867h-11.52zM165.973 309.333v0h-7.68zM356.693 215.040h37.973v-37.973h-79.36v353.707h371.2v-71.253h-38.4v34.133h-291.413v-278.613zM494.933 90.027h37.973v-38.4h-78.933v353.707h370.773v-71.253h-38.4v34.133h-291.413v-278.187zM610.133-25.6h291.413v278.187h-291.413v-278.187zM920.747-64h-352v354.133h371.627v-354.133h-19.627zM641.707 194.987h225.707v29.867h-225.707zM641.707 129.707h225.707v29.867h-225.707zM641.707 62.293h225.707v29.867h-225.707zM641.707 0.427h225.707v29.867h-225.707z" />
<glyph unicode="&#xe51e;" glyph-name="import" d="M643.84 456.96c2.133-4.267 1.28-9.387-2.133-13.227l-120.32-133.12c-4.693-5.12-13.653-5.12-18.347 0l-119.040 131.84c-2.987 2.133-4.693 5.547-4.693 9.813 0 6.827 5.547 12.373 12.373 12.373v0h64v112.64c0 6.827 5.547 12.373 12.373 12.373h88.747c6.827 0 11.947-5.547 11.947-12.373v-112.64h64c4.693 0 9.387-2.56 11.093-7.253zM605.013 439.893h-48.64c-2.987 0-6.4 1.28-8.533 3.413s-3.413 5.547-3.413 8.533v112.64h-64.427v-112.64c0-3.413-1.28-6.4-3.413-8.533s-5.547-3.413-8.533-3.413h-48.64l93.013-102.827 93.013 102.827zM953.6 770.987h-882.773c-12.8 0-23.467-10.667-23.467-23.467v-599.040c0-12.8 10.667-23.467 23.467-23.467h882.773c12.8 0 23.467 10.667 23.467 23.467v599.040c0 12.8-10.667 23.467-23.467 23.467zM930.133 657.067h-314.88l-30.293 66.987h345.173v-66.987zM93.867 171.947v552.107h439.467l45.227-99.84c3.84-8.533 11.947-13.653 21.333-13.653h329.813v-438.613h-836.267z" />
<glyph unicode="&#xe51f;" glyph-name="configure" d="M236.8 160.427c-11.947 0-21.333 10.24-21.333 23.467s9.387 23.467 21.333 23.467h117.76c11.947 0 21.333-10.24 21.333-23.467s-9.387-23.467-21.333-23.467h-117.76zM236.8 306.773c-11.947 0-21.333 10.24-21.333 23.467s9.387 23.467 21.333 23.467h160.427c11.947 0 21.333-10.24 21.333-23.467s-9.387-23.467-21.333-23.467h-160.427zM236.8 465.067c-11.947 0-21.333 10.24-21.333 23.467s9.387 23.467 21.333 23.467h450.56c11.947 0 21.333-10.24 21.333-23.467s-9.387-23.467-21.333-23.467h-450.56zM236.8 599.467c-11.947 0-21.333 10.24-21.333 23.467s9.387 23.467 21.333 23.467h450.56c11.947 0 21.333-10.24 21.333-23.467s-9.387-23.467-21.333-23.467h-450.56zM668.587 231.253c0 0 2.56 0 2.56 0 7.253 2.56 14.080 2.56 18.773 0 7.253 0 14.080-2.56 18.773-4.693 7.253-2.56 11.947-7.253 16.64-11.947v0c7.253-7.253 11.947-11.947 14.080-21.333 4.693-7.253 4.693-16.64 4.693-23.467 0-9.387 0-16.64-4.693-26.027-2.56-7.253-7.253-14.080-14.080-21.333-4.693-7.253-11.947-11.947-21.333-14.080v0c-7.253-4.693-16.64-4.693-23.467-4.693-9.387 0-16.64 0-26.027 4.693-7.253 2.56-14.080 7.253-21.333 14.080v0c-4.693 4.693-9.387 9.387-11.947 16.64-10.24 20.907-6.4 21.76-7.253 40.107l-75.52 70.827c-4.693 2.56-7.253 7.253-9.387 11.947-2.56 4.693-2.56 9.387-2.56 14.080v0c0 4.693 0 9.387 2.56 14.080s4.693 9.387 7.253 11.947v0c2.56 4.693 7.253 7.253 11.947 7.253 4.693 2.56 9.387 2.56 14.080 2.56s9.387 0 14.080-2.56v0c4.693-2.56 9.387-4.693 11.947-7.253v0 0l80.213-70.827zM746.24 183.893c0 0 0-2.56 0-2.56 0-7.253 0-14.080 0-18.773 0-7.253-2.56-14.080-7.253-18.773v0c-2.56-4.693-7.253-11.947-11.947-16.64-7.253-7.253-14.080-11.947-21.333-14.080-7.253-2.56-16.64-4.693-26.027-4.693s-16.64 2.56-23.467 4.693c-7.253 2.56-14.080 7.253-21.333 14.080-7.253 7.253-11.947 14.080-14.080 21.333-2.56 7.253-4.693 16.64-4.693 26.027s2.56 16.64 4.693 23.467c2.56 7.253 7.253 14.080 14.080 21.333v0c4.693 4.693 9.387 9.387 16.64 11.947 4.693 2.56 11.947 4.693 18.773 7.253 7.253 0 14.080 0 18.773 0v0c0 0 2.56 0 2.56 0l32.853 32.853c4.693 2.56 7.253 4.693 11.947 7.253s9.387 2.56 14.080 2.56c4.693 0 9.387 0 14.080-2.56v0c4.693-2.56 7.253-4.693 11.947-7.253v0c2.56-4.693 4.693-7.253 7.253-11.947s2.56-9.387 2.56-14.080v0c0-4.693 0-9.387-2.56-14.080v0c-7.68-15.36-26.453-34.133-37.547-47.36zM670.72 405.76c-58.88 0-113.067-23.467-153.173-63.573-40.107-37.547-63.573-92.16-63.573-151.040s23.467-110.933 63.573-151.040c40.107-37.547 94.293-63.573 153.173-63.573s113.067 23.467 153.173 63.573c40.107 37.547 63.573 92.16 63.573 151.040s-23.467 110.933-63.573 151.040c-40.107 37.547-94.293 63.573-153.173 63.573zM486.827 375.040c47.36 47.36 113.067 75.52 183.893 75.52 72.96 0 136.96-28.16 183.893-75.52 47.36-47.36 75.52-110.933 75.52-181.76s-28.16-134.4-75.52-181.76c-47.36-47.36-113.067-75.52-183.893-75.52-72.96 0-136.96 28.16-183.893 75.52-47.36 47.36-75.52 110.933-75.52 181.76s28.16 134.4 75.52 181.76zM772.267 820.907h-139.093v-52.053c0-16.64-7.253-30.72-16.64-40.107-9.387-11.947-23.467-16.64-40.107-16.64v0 0h-235.947c-9.387 0-18.773 2.56-26.027 7.253-14.080 7.253-21.333 21.333-26.027 37.547-4.693 14.080-4.693 28.16-4.693 42.667 0 7.253 0 14.080 2.56 23.467h-129.707c-4.693 0-7.253-2.56-9.387-4.693-2.56-2.56-4.693-4.693-4.693-9.387v-719.787c0-2.56 2.56-7.253 4.693-9.387 2.56-2.56 7.253-4.693 9.387-4.693v0h285.44c-7.253 11.947-11.947 23.467-16.64 37.547-9.387 26.027-14.080 52.053-14.080 80.213 0 70.827 28.16 134.4 75.52 181.76s113.067 75.52 183.893 75.52c26.027 0 54.187-4.693 77.653-11.947 11.947-4.693 23.467-9.387 35.413-14.080v382.293c0 2.56-2.56 7.253-4.693 9.387-2.56 2.56-7.253 4.693-9.387 4.693v0h2.56zM604.587 865.707h167.68c16.64 0 30.72-7.253 40.107-16.64 11.947-9.387 16.64-23.467 16.64-40.107v0-462.507l-35.413 23.467c-18.773 11.947-37.547 21.333-58.88 28.16-21.333 7.253-42.667 9.387-66.133 9.387-58.88 0-113.067-23.467-153.173-63.573-40.107-37.547-63.573-92.16-63.573-151.040 0-23.467 4.693-44.8 11.947-66.133s18.773-42.667 30.72-58.88l26.027-35.413h-370.347c-16.64 0-30.72 7.253-40.107 16.64-11.947 9.387-16.64 23.467-16.64 40.107v719.787c0 16.64 7.253 30.72 16.64 40.107s26.027 16.64 40.107 16.64h162.987c2.56 9.387 7.253 16.64 14.080 23.467 9.387 11.947 23.467 16.64 40.107 16.64h14.080c4.693 11.947 11.947 23.467 21.333 32.853 14.080 14.080 32.853 21.333 54.187 21.333s40.107-7.253 54.187-21.333c9.387-9.387 16.64-18.773 21.333-32.853h14.080c16.64 0 30.72-7.253 40.107-16.64 7.253-7.253 11.947-14.080 14.080-23.467h4.693zM545.707 861.013h-49.493l-2.56 18.773c0 9.387-4.693 18.773-11.947 23.467s-14.080 9.387-23.467 9.387c-9.387 0-16.64-4.693-23.467-9.387-7.253-7.253-11.947-14.080-11.947-23.467l-2.56-18.773h-49.493c-2.56 0-7.253-2.56-7.253-4.693-2.56-2.56-4.693-7.253-4.693-9.387v-44.8c0-4.693 2.56-7.253 4.693-9.387 2.56-2.56 4.693-4.693 7.253-4.693v0h177.067c2.56 0 7.253 2.56 7.253 4.693 2.56 2.56 4.693 7.253 4.693 9.387v44.8c0 4.693-2.56 7.253-4.693 9.387-2.56 2.56-4.693 4.693-7.253 4.693v0h-2.56z" />
<glyph unicode="&#xe520;" glyph-name="popup" d="M236.8 160.427c-11.947 0-21.333 10.24-21.333 23.467s9.387 23.467 21.333 23.467h117.76c11.947 0 21.333-10.24 21.333-23.467s-9.387-23.467-21.333-23.467h-117.76zM236.8 306.773c-11.947 0-21.333 10.24-21.333 23.467s9.387 23.467 21.333 23.467h160.427c11.947 0 21.333-10.24 21.333-23.467s-9.387-23.467-21.333-23.467h-160.427zM236.8 465.067c-11.947 0-21.333 10.24-21.333 23.467s9.387 23.467 21.333 23.467h450.56c11.947 0 21.333-10.24 21.333-23.467s-9.387-23.467-21.333-23.467h-450.56zM236.8 599.467c-11.947 0-21.333 10.24-21.333 23.467s9.387 23.467 21.333 23.467h450.56c11.947 0 21.333-10.24 21.333-23.467s-9.387-23.467-21.333-23.467h-450.56zM668.587 231.253c0 0 2.56 0 2.56 0 7.253 2.56 14.080 2.56 18.773 0 7.253 0 14.080-2.56 18.773-4.693 7.253-2.56 11.947-7.253 16.64-11.947v0c7.253-7.253 11.947-11.947 14.080-21.333 4.693-7.253 4.693-16.64 4.693-23.467 0-9.387 0-16.64-4.693-26.027-2.56-7.253-7.253-14.080-14.080-21.333-4.693-7.253-11.947-11.947-21.333-14.080v0c-7.253-4.693-16.64-4.693-23.467-4.693-9.387 0-16.64 0-26.027 4.693-7.253 2.56-14.080 7.253-21.333 14.080v0c-4.693 4.693-9.387 9.387-11.947 16.64-10.24 20.907-6.4 21.76-7.253 40.107l-75.52 70.827c-4.693 2.56-7.253 7.253-9.387 11.947-2.56 4.693-2.56 9.387-2.56 14.080v0c0 4.693 0 9.387 2.56 14.080s4.693 9.387 7.253 11.947v0c2.56 4.693 7.253 7.253 11.947 7.253 4.693 2.56 9.387 2.56 14.080 2.56s9.387 0 14.080-2.56v0c4.693-2.56 9.387-4.693 11.947-7.253v0 0l80.213-70.827zM746.24 183.893c0 0 0-2.56 0-2.56 0-7.253 0-14.080 0-18.773 0-7.253-2.56-14.080-7.253-18.773v0c-2.56-4.693-7.253-11.947-11.947-16.64-7.253-7.253-14.080-11.947-21.333-14.080-7.253-2.56-16.64-4.693-26.027-4.693s-16.64 2.56-23.467 4.693c-7.253 2.56-14.080 7.253-21.333 14.080-7.253 7.253-11.947 14.080-14.080 21.333-2.56 7.253-4.693 16.64-4.693 26.027s2.56 16.64 4.693 23.467c2.56 7.253 7.253 14.080 14.080 21.333v0c4.693 4.693 9.387 9.387 16.64 11.947 4.693 2.56 11.947 4.693 18.773 7.253 7.253 0 14.080 0 18.773 0v0c0 0 2.56 0 2.56 0l32.853 32.853c4.693 2.56 7.253 4.693 11.947 7.253s9.387 2.56 14.080 2.56c4.693 0 9.387 0 14.080-2.56v0c4.693-2.56 7.253-4.693 11.947-7.253v0c2.56-4.693 4.693-7.253 7.253-11.947s2.56-9.387 2.56-14.080v0c0-4.693 0-9.387-2.56-14.080v0c-7.68-15.36-26.453-34.133-37.547-47.36zM670.72 405.76c-58.88 0-113.067-23.467-153.173-63.573-40.107-37.547-63.573-92.16-63.573-151.040s23.467-110.933 63.573-151.040c40.107-37.547 94.293-63.573 153.173-63.573s113.067 23.467 153.173 63.573c40.107 37.547 63.573 92.16 63.573 151.040s-23.467 110.933-63.573 151.040c-40.107 37.547-94.293 63.573-153.173 63.573zM486.827 375.040c47.36 47.36 113.067 75.52 183.893 75.52 72.96 0 136.96-28.16 183.893-75.52 47.36-47.36 75.52-110.933 75.52-181.76s-28.16-134.4-75.52-181.76c-47.36-47.36-113.067-75.52-183.893-75.52-72.96 0-136.96 28.16-183.893 75.52-47.36 47.36-75.52 110.933-75.52 181.76s28.16 134.4 75.52 181.76zM772.267 820.907h-139.093v-52.053c0-16.64-7.253-30.72-16.64-40.107-9.387-11.947-23.467-16.64-40.107-16.64v0 0h-235.947c-9.387 0-18.773 2.56-26.027 7.253-14.080 7.253-21.333 21.333-26.027 37.547-4.693 14.080-4.693 28.16-4.693 42.667 0 7.253 0 14.080 2.56 23.467h-129.707c-4.693 0-7.253-2.56-9.387-4.693-2.56-2.56-4.693-4.693-4.693-9.387v-719.787c0-2.56 2.56-7.253 4.693-9.387 2.56-2.56 7.253-4.693 9.387-4.693v0h285.44c-7.253 11.947-11.947 23.467-16.64 37.547-9.387 26.027-14.080 52.053-14.080 80.213 0 70.827 28.16 134.4 75.52 181.76s113.067 75.52 183.893 75.52c26.027 0 54.187-4.693 77.653-11.947 11.947-4.693 23.467-9.387 35.413-14.080v382.293c0 2.56-2.56 7.253-4.693 9.387-2.56 2.56-7.253 4.693-9.387 4.693v0h2.56zM604.587 865.707h167.68c16.64 0 30.72-7.253 40.107-16.64 11.947-9.387 16.64-23.467 16.64-40.107v0-462.507l-35.413 23.467c-18.773 11.947-37.547 21.333-58.88 28.16-21.333 7.253-42.667 9.387-66.133 9.387-58.88 0-113.067-23.467-153.173-63.573-40.107-37.547-63.573-92.16-63.573-151.040 0-23.467 4.693-44.8 11.947-66.133s18.773-42.667 30.72-58.88l26.027-35.413h-370.347c-16.64 0-30.72 7.253-40.107 16.64-11.947 9.387-16.64 23.467-16.64 40.107v719.787c0 16.64 7.253 30.72 16.64 40.107s26.027 16.64 40.107 16.64h162.987c2.56 9.387 7.253 16.64 14.080 23.467 9.387 11.947 23.467 16.64 40.107 16.64h14.080c4.693 11.947 11.947 23.467 21.333 32.853 14.080 14.080 32.853 21.333 54.187 21.333s40.107-7.253 54.187-21.333c9.387-9.387 16.64-18.773 21.333-32.853h14.080c16.64 0 30.72-7.253 40.107-16.64 7.253-7.253 11.947-14.080 14.080-23.467h4.693zM545.707 861.013h-49.493l-2.56 18.773c0 9.387-4.693 18.773-11.947 23.467s-14.080 9.387-23.467 9.387c-9.387 0-16.64-4.693-23.467-9.387-7.253-7.253-11.947-14.080-11.947-23.467l-2.56-18.773h-49.493c-2.56 0-7.253-2.56-7.253-4.693-2.56-2.56-4.693-7.253-4.693-9.387v-44.8c0-4.693 2.56-7.253 4.693-9.387 2.56-2.56 4.693-4.693 7.253-4.693v0h177.067c2.56 0 7.253 2.56 7.253 4.693 2.56 2.56 4.693 7.253 4.693 9.387v44.8c0 4.693-2.56 7.253-4.693 9.387-2.56 2.56-4.693 4.693-7.253 4.693v0h-2.56z" />
<glyph unicode="&#xe521;" glyph-name="advanced" d="M666.359 290.832l19.414 19.414c8.857 8.857 34.202-2.127 56.61-24.534l251.261-251.261c22.407-22.407 33.391-47.752 24.534-56.61l-19.414-19.414c-8.857-8.857-34.202 2.127-56.61 24.534l-251.261 251.261c-22.407 22.407-33.391 47.752-24.534 56.61zM656.64 787.627v0c-62.72 62.72-152.32 104.533-250.453 104.533-98.56 0-188.16-38.827-250.453-104.533v0c-62.72-62.72-104.533-152.32-104.533-250.453 0-98.56 38.827-188.16 104.533-250.453v0c62.72-62.72 152.32-104.533 250.453-104.533 98.56 0 188.16 38.827 250.453 104.533v0c62.72 62.72 104.533 152.32 104.533 250.453 0 98.56-38.827 188.16-104.533 250.453zM406.187 942.933c113.067 0 212.48-45.653 287.573-118.187v0c72.533-72.533 118.187-174.933 118.187-287.573 0-113.067-45.653-212.48-118.187-287.573v0c-72.533-72.533-174.933-118.187-287.573-118.187-113.067 0-212.48 45.653-287.573 118.187v0c-72.533 72.533-118.187 174.933-118.187 287.573 0 113.067 45.653 212.48 118.187 287.573v0c72.533 72.533 174.933 118.187 287.573 118.187z" />
<glyph unicode="&#xe522;" glyph-name="geography" d="M512 960c-282.88 0-512-229.12-512-512s229.12-512 512-512c282.88 0 512 229.12 512 512s-229.12 512-512 512zM957.013 464.64h-197.973c-1.707 72.96-14.933 143.36-37.973 206.933 44.373 18.773 85.76 43.52 123.307 72.533 66.987-75.093 108.8-172.373 112.64-279.467zM493.653 2.987c-55.040 45.653-101.12 104.96-134.827 174.080 43.093 13.653 89.173 20.907 136.533 22.613v-196.693c-0.427 0-1.28 0-1.707 0zM530.347 893.013c62.293-52.053 113.067-121.173 147.627-202.24-46.933-16.213-97.28-25.6-149.333-26.88v229.547c0.427 0 1.28 0 1.707 0zM585.387 887.467c91.307-15.36 172.8-57.6 236.8-119.467-34.56-26.453-72.533-49.067-113.067-66.133-30.293 71.253-72.107 134.4-123.307 185.6zM495.787 893.013v-229.547c-52.053 1.707-102.4 11.093-149.333 26.88 34.56 81.067 85.333 150.613 147.627 202.24 0.427 0 1.28 0 1.707 0zM315.733 701.867c-40.96 17.067-78.507 39.68-113.067 66.133 63.573 61.867 145.493 104.107 236.8 119.467-51.2-51.2-93.44-114.347-123.307-185.6zM334.080 660.053c51.2-17.493 105.387-27.733 161.707-29.867v-165.973h-197.547c1.707 69.12 14.080 135.253 35.84 195.84zM495.787 431.36v-199.253c-52.053-1.707-102.4-10.24-149.76-25.173-28.587 68.267-45.653 143.787-47.36 224.427h197.547zM439.040 8.533c-81.493 13.653-155.733 49.067-216.32 100.693 32.427 22.613 67.84 41.813 105.387 56.32 28.587-59.733 66.56-112.64 110.933-157.013zM528.64 2.56v196.693c47.36-1.707 93.013-8.96 136.533-22.613-33.707-69.12-79.787-128.427-134.827-174.080-0.427 0-1.28 0-1.707 0zM696.32 165.12c37.547-14.507 72.533-33.707 105.387-56.32-60.16-51.627-134.4-87.040-216.32-100.693 44.373 44.373 81.92 97.28 110.933 157.013zM678.827 206.507c-47.36 15.36-97.707 23.893-149.76 25.173v199.253h197.547c-2.133-80.213-18.773-156.16-47.36-224.427zM529.067 463.787v165.973c56.32 1.707 110.933 11.947 161.707 29.867 21.76-60.587 34.133-126.72 35.84-195.84h-197.547zM180.053 743.253c37.547-29.44 78.933-54.187 123.307-72.533-23.040-64-36.267-133.973-37.973-206.933h-197.973c3.84 107.093 45.653 204.8 112.64 279.467zM67.413 430.507h197.973c2.133-84.48 19.627-164.267 49.493-235.947-41.813-16.213-80.64-37.973-116.907-64-77.653 77.227-126.293 182.613-130.987 299.52zM826.88 130.987c-35.84 25.6-75.093 47.36-116.907 64 29.867 71.68 47.787 151.467 49.493 235.947h197.973c-4.267-116.907-53.333-222.293-130.987-299.52z" />
<glyph unicode="&#xe523;" glyph-name="scope" horiz-adv-x="1014" d="M516.775 845.159c-211.083 0-382.794-171.728-382.794-382.804s171.711-382.804 382.794-382.804c211.085 0 382.813 171.728 382.813 382.804s-171.728 382.804-382.813 382.804v0zM516.775 129.756c-183.392 0-332.589 149.205-332.589 332.599 0 183.392 149.198 332.599 332.589 332.599 183.401 0 332.609-149.207 332.609-332.599s-149.217-332.599-332.609-332.599v0zM655.374 587.673l-197.393-197.383-79.795 79.776c-9.812 9.793-25.691 9.802-35.495-0.010-9.812-9.805-9.812-25.691 0-35.505l97.543-97.524c4.897-4.897 11.317-7.345 17.748-7.345 6.419 0 12.86 2.448 17.757 7.355 0.010 0.019 0.026 0.038 0.045 0.065l215.085 215.076c9.805 9.805 9.805 25.7 0 35.495-9.805 9.805-25.7 9.805-35.495 0v0z" />
<glyph unicode="&#xe524;" glyph-name="inactive" horiz-adv-x="1014" d="M516.775 845.159c-211.083 0-382.794-171.728-382.794-382.804s171.711-382.804 382.794-382.804c211.085 0 382.813 171.728 382.813 382.804s-171.728 382.804-382.813 382.804v0zM516.775 129.756c-183.392 0-332.589 149.205-332.589 332.599 0 183.392 149.198 332.599 332.589 332.599 183.401 0 332.609-149.207 332.609-332.599s-149.217-332.599-332.609-332.599v0zM655.374 587.673l-197.393-197.383-79.795 79.776c-9.812 9.793-25.691 9.802-35.495-0.010-9.812-9.805-9.812-25.691 0-35.505l97.543-97.524c4.897-4.897 11.317-7.345 17.748-7.345 6.419 0 12.86 2.448 17.757 7.355 0.010 0.019 0.026 0.038 0.045 0.065l215.085 215.076c9.805 9.805 9.805 25.7 0 35.495-9.805 9.805-25.7 9.805-35.495 0v0z" />
<glyph unicode="&#xe525;" glyph-name="active" horiz-adv-x="1014" d="M516.775 845.159c-211.083 0-382.794-171.728-382.794-382.804s171.711-382.804 382.794-382.804c211.085 0 382.813 171.728 382.813 382.804s-171.728 382.804-382.813 382.804v0zM516.775 129.756c-183.392 0-332.589 149.205-332.589 332.599 0 183.392 149.198 332.599 332.589 332.599 183.401 0 332.609-149.207 332.609-332.599s-149.217-332.599-332.609-332.599v0zM655.374 587.673l-197.393-197.383-79.795 79.776c-9.812 9.793-25.691 9.802-35.495-0.010-9.812-9.805-9.812-25.691 0-35.505l97.543-97.524c4.897-4.897 11.317-7.345 17.748-7.345 6.419 0 12.86 2.448 17.757 7.355 0.010 0.019 0.026 0.038 0.045 0.065l215.085 215.076c9.805 9.805 9.805 25.7 0 35.495-9.805 9.805-25.7 9.805-35.495 0v0z" />
<glyph unicode="&#xe526;" glyph-name="action" d="M448 927.147c-11.52-1.28-23.040-2.56-34.987-4.693l-0.853-3.413c-12.8-1.28-24.747-3.413-37.12-6.4-11.52-2.987-24.32-6.827-37.12-10.667v0l-0.853-0.427c2.56-8.533 5.547-17.493 8.533-26.027 3.84-11.093 6.4-19.627 8.533-26.453l1.707 0.427c11.947 3.84 22.613 7.253 33.28 9.813 11.52 2.987 22.613 5.12 33.28 6.4v0c8.533 1.28 17.92 2.56 29.867 3.413 11.52 0.853 23.893 1.707 36.693 1.707 60.587 0 118.187-11.52 170.24-33.28 54.187-22.187 102.827-54.613 143.787-95.573l0.427-0.427c40.107-41.387 72.96-90.453 95.573-145.493 21.333-51.627 33.28-108.373 33.28-168.107 0-21.76-2.56-42.667-5.12-64v0l-0.427-1.707c-0.427-2.56-2.133-10.667-3.84-18.347-0.853-3.84-1.707-7.253-3.84-17.493l-5.12-25.173-24.32 7.68-33.28 10.24h-0.853l32.853-190.72v-0.427l0.427-1.28 0.853 0.853 134.4 142.080-1.707 0.427-57.6 16.64 6.4 22.187c2.56 8.533 4.267 15.787 5.547 23.467 1.707 7.68 2.56 15.787 3.84 24.32v0c1.28 11.52 2.133 23.040 3.413 36.693 0.853 11.947 1.707 24.32 1.707 36.267v0c-1.28 68.693-14.933 133.547-39.68 192.853-24.747 60.16-61.013 114.347-106.667 159.573-46.080 46.080-100.693 83.2-161.707 108.373-58.453 24.32-122.88 37.547-190.72 37.547-13.653 0-26.453-0.427-38.4-1.707zM346.453 4.693c58.453-24.32 122.88-37.547 190.72-37.547 24.747 0 49.067 3.413 73.387 8.96s49.92 12.8 75.52 20.48v0l0.853 0.427c-2.56 8.533-5.547 17.493-8.533 26.027-3.413 9.813-5.973 17.92-8.107 24.32l-1.28-0.427c-12.373-4.267-23.467-7.253-34.56-10.24-11.52-2.987-22.613-5.12-33.28-6.4v0c-8.533-1.28-17.92-2.56-29.867-3.413-11.52-0.853-23.893-1.707-36.693-1.707-60.587 0-118.187 11.52-170.24 33.28-54.187 22.187-102.827 54.613-143.787 95.573l-0.427 0.427c-40.107 41.387-72.96 90.453-95.573 145.493-21.333 51.627-33.28 108.373-33.28 168.107 0 21.333 2.133 39.253 4.693 58.453 3.413 26.453-7.68-60.16 0.427 5.547l0.427 1.707c0.427 2.56 2.133 10.667 3.84 18.347 0.853 3.84 1.707 7.253 3.84 17.493l5.12 25.173 24.32-7.68 33.28-10.24h0.853l-32.853 190.72v0.427l-0.427 1.28-0.853-0.853-134.4-142.080 1.707-0.427 57.6-16.64-6.4-22.187c-2.56-8.533-4.267-15.787-5.547-23.467-1.707-7.68-2.56-15.787-3.84-24.32v0c-1.28-11.52-2.133-23.040-3.413-36.693-0.853-11.947-1.707-24.32-1.707-36.267v0c1.28-68.693 14.933-133.547 39.68-192.853 24.747-60.16 61.013-114.347 106.667-159.573 46.080-46.080 100.693-83.2 161.707-108.373z" />
<glyph unicode="&#xe527;" glyph-name="coach" d="M448 927.147c-11.52-1.28-23.040-2.56-34.987-4.693l-0.853-3.413c-12.8-1.28-24.747-3.413-37.12-6.4-11.52-2.987-24.32-6.827-37.12-10.667v0l-0.853-0.427c2.56-8.533 5.547-17.493 8.533-26.027 3.84-11.093 6.4-19.627 8.533-26.453l1.707 0.427c11.947 3.84 22.613 7.253 33.28 9.813 11.52 2.987 22.613 5.12 33.28 6.4v0c8.533 1.28 17.92 2.56 29.867 3.413 11.52 0.853 23.893 1.707 36.693 1.707 60.587 0 118.187-11.52 170.24-33.28 54.187-22.187 102.827-54.613 143.787-95.573l0.427-0.427c40.107-41.387 72.96-90.453 95.573-145.493 21.333-51.627 33.28-108.373 33.28-168.107 0-21.76-2.56-42.667-5.12-64v0l-0.427-1.707c-0.427-2.56-2.133-10.667-3.84-18.347-0.853-3.84-1.707-7.253-3.84-17.493l-5.12-25.173-24.32 7.68-33.28 10.24h-0.853l32.853-190.72v-0.427l0.427-1.28 0.853 0.853 134.4 142.080-1.707 0.427-57.6 16.64 6.4 22.187c2.56 8.533 4.267 15.787 5.547 23.467 1.707 7.68 2.56 15.787 3.84 24.32v0c1.28 11.52 2.133 23.040 3.413 36.693 0.853 11.947 1.707 24.32 1.707 36.267v0c-1.28 68.693-14.933 133.547-39.68 192.853-24.747 60.16-61.013 114.347-106.667 159.573-46.080 46.080-100.693 83.2-161.707 108.373-58.453 24.32-122.88 37.547-190.72 37.547-13.653 0-26.453-0.427-38.4-1.707zM346.453 4.693c58.453-24.32 122.88-37.547 190.72-37.547 24.747 0 49.067 3.413 73.387 8.96s49.92 12.8 75.52 20.48v0l0.853 0.427c-2.56 8.533-5.547 17.493-8.533 26.027-3.413 9.813-5.973 17.92-8.107 24.32l-1.28-0.427c-12.373-4.267-23.467-7.253-34.56-10.24-11.52-2.987-22.613-5.12-33.28-6.4v0c-8.533-1.28-17.92-2.56-29.867-3.413-11.52-0.853-23.893-1.707-36.693-1.707-60.587 0-118.187 11.52-170.24 33.28-54.187 22.187-102.827 54.613-143.787 95.573l-0.427 0.427c-40.107 41.387-72.96 90.453-95.573 145.493-21.333 51.627-33.28 108.373-33.28 168.107 0 21.333 2.133 39.253 4.693 58.453 3.413 26.453-7.68-60.16 0.427 5.547l0.427 1.707c0.427 2.56 2.133 10.667 3.84 18.347 0.853 3.84 1.707 7.253 3.84 17.493l5.12 25.173 24.32-7.68 33.28-10.24h0.853l-32.853 190.72v0.427l-0.427 1.28-0.853-0.853-134.4-142.080 1.707-0.427 57.6-16.64-6.4-22.187c-2.56-8.533-4.267-15.787-5.547-23.467-1.707-7.68-2.56-15.787-3.84-24.32v0c-1.28-11.52-2.133-23.040-3.413-36.693-0.853-11.947-1.707-24.32-1.707-36.267v0c1.28-68.693 14.933-133.547 39.68-192.853 24.747-60.16 61.013-114.347 106.667-159.573 46.080-46.080 100.693-83.2 161.707-108.373z" />
<glyph unicode="&#xe528;" glyph-name="convert" d="M448 927.147c-11.52-1.28-23.040-2.56-34.987-4.693l-0.853-3.413c-12.8-1.28-24.747-3.413-37.12-6.4-11.52-2.987-24.32-6.827-37.12-10.667v0l-0.853-0.427c2.56-8.533 5.547-17.493 8.533-26.027 3.84-11.093 6.4-19.627 8.533-26.453l1.707 0.427c11.947 3.84 22.613 7.253 33.28 9.813 11.52 2.987 22.613 5.12 33.28 6.4v0c8.533 1.28 17.92 2.56 29.867 3.413 11.52 0.853 23.893 1.707 36.693 1.707 60.587 0 118.187-11.52 170.24-33.28 54.187-22.187 102.827-54.613 143.787-95.573l0.427-0.427c40.107-41.387 72.96-90.453 95.573-145.493 21.333-51.627 33.28-108.373 33.28-168.107 0-21.76-2.56-42.667-5.12-64v0l-0.427-1.707c-0.427-2.56-2.133-10.667-3.84-18.347-0.853-3.84-1.707-7.253-3.84-17.493l-5.12-25.173-24.32 7.68-33.28 10.24h-0.853l32.853-190.72v-0.427l0.427-1.28 0.853 0.853 134.4 142.080-1.707 0.427-57.6 16.64 6.4 22.187c2.56 8.533 4.267 15.787 5.547 23.467 1.707 7.68 2.56 15.787 3.84 24.32v0c1.28 11.52 2.133 23.040 3.413 36.693 0.853 11.947 1.707 24.32 1.707 36.267v0c-1.28 68.693-14.933 133.547-39.68 192.853-24.747 60.16-61.013 114.347-106.667 159.573-46.080 46.080-100.693 83.2-161.707 108.373-58.453 24.32-122.88 37.547-190.72 37.547-13.653 0-26.453-0.427-38.4-1.707zM346.453 4.693c58.453-24.32 122.88-37.547 190.72-37.547 24.747 0 49.067 3.413 73.387 8.96s49.92 12.8 75.52 20.48v0l0.853 0.427c-2.56 8.533-5.547 17.493-8.533 26.027-3.413 9.813-5.973 17.92-8.107 24.32l-1.28-0.427c-12.373-4.267-23.467-7.253-34.56-10.24-11.52-2.987-22.613-5.12-33.28-6.4v0c-8.533-1.28-17.92-2.56-29.867-3.413-11.52-0.853-23.893-1.707-36.693-1.707-60.587 0-118.187 11.52-170.24 33.28-54.187 22.187-102.827 54.613-143.787 95.573l-0.427 0.427c-40.107 41.387-72.96 90.453-95.573 145.493-21.333 51.627-33.28 108.373-33.28 168.107 0 21.333 2.133 39.253 4.693 58.453 3.413 26.453-7.68-60.16 0.427 5.547l0.427 1.707c0.427 2.56 2.133 10.667 3.84 18.347 0.853 3.84 1.707 7.253 3.84 17.493l5.12 25.173 24.32-7.68 33.28-10.24h0.853l-32.853 190.72v0.427l-0.427 1.28-0.853-0.853-134.4-142.080 1.707-0.427 57.6-16.64-6.4-22.187c-2.56-8.533-4.267-15.787-5.547-23.467-1.707-7.68-2.56-15.787-3.84-24.32v0c-1.28-11.52-2.133-23.040-3.413-36.693-0.853-11.947-1.707-24.32-1.707-36.267v0c1.28-68.693 14.933-133.547 39.68-192.853 24.747-60.16 61.013-114.347 106.667-159.573 46.080-46.080 100.693-83.2 161.707-108.373z" />
<glyph unicode="&#xe529;" glyph-name="create" d="M512 919.467c-259.84 0-471.467-211.627-471.467-471.467s211.627-471.467 471.467-471.467c259.84 0 471.467 211.627 471.467 471.467s-211.627 471.467-471.467 471.467zM512 31.147c-229.973 0-416.853 186.88-416.853 416.853s186.88 416.853 416.853 416.853c229.973 0 416.853-186.88 416.853-416.853s-186.88-416.853-416.853-416.853zM730.453 684.8c-14.933 11.52-36.267 8.533-47.787-6.827l-225.707-315.307-57.6 57.6c-13.227 13.227-34.987 13.227-48.213 0s-13.227-34.987 0-48.213l113.067-113.067 273.067 378.027c11.093 14.933 8.107 36.267-6.827 47.787z" />
<glyph unicode="&#xe52a;" glyph-name="customer" d="M291.84 321.28c14.080 0 26.027-11.947 26.027-26.027s-11.947-26.027-26.027-26.027c-82.773 0-170.667-75.947-215.467-151.467-11.947-21.333-21.333-42.667-23.893-61.44-2.56-16.64-2.56-30.72 2.56-42.667 9.387-18.773 33.28-30.72 78.080-30.72h810.667c16.64 0 26.027 7.253 28.587 18.773 4.693 11.947 4.693 26.027 0 45.227-2.56 18.773-9.387 40.107-18.773 61.44-35.413 78.080-111.36 161.28-196.693 161.28-14.080 0-26.027 11.947-26.027 26.027s11.947 26.027 26.027 26.027c109.227 0 199.253-97.28 241.92-189.44 11.947-26.027 18.773-52.053 23.893-73.387 4.693-26.027 2.56-49.92-2.56-68.693-11.947-33.28-35.413-54.613-75.947-54.613h-810.667c-66.56 0-106.667 23.893-123.307 59.307-9.387 21.333-11.947 47.36-7.253 75.947 4.693 23.893 16.64 52.053 30.72 78.080 52.053 87.893 158.72 175.36 258.133 175.36v0-2.56zM512.427 961.28c82.773 0 158.72-40.107 213.333-106.667 54.613-64 87.893-151.467 87.893-248.747s-33.28-184.747-87.893-248.747c-54.613-66.56-130.133-106.667-213.333-106.667-82.773 0-158.72 40.107-213.333 106.667-54.613 64-87.893 151.467-87.893 248.747s33.28 184.747 87.893 248.747c54.613 66.56 130.133 106.667 213.333 106.667zM687.787 823.893c-45.227 54.613-106.667 87.893-175.36 87.893s-130.133-33.28-175.36-87.893c-45.227-54.613-73.387-132.693-73.387-215.467 0-85.333 28.587-161.28 73.387-218.027 45.227-54.613 106.667-87.893 175.36-87.893s130.133 33.28 175.36 87.893c45.227 54.613 73.387 132.693 73.387 218.027s-28.587 161.28-73.387 215.467z" />
<glyph unicode="&#xe52b;" glyph-name="enable" d="M512 919.467c-259.84 0-471.467-211.627-471.467-471.467s211.627-471.467 471.467-471.467c259.84 0 471.467 211.627 471.467 471.467s-211.627 471.467-471.467 471.467zM512 31.147c-229.973 0-416.853 186.88-416.853 416.853s186.88 416.853 416.853 416.853c229.973 0 416.853-186.88 416.853-416.853s-186.88-416.853-416.853-416.853zM730.453 684.8c-14.933 11.52-36.267 8.533-47.787-6.827l-225.707-315.307-57.6 57.6c-13.227 13.227-34.987 13.227-48.213 0s-13.227-34.987 0-48.213l113.067-113.067 273.067 378.027c11.093 14.933 8.107 36.267-6.827 47.787z" />
<glyph unicode="&#xe52c;" glyph-name="reject" d="M512 919.467c-259.84 0-471.467-211.627-471.467-471.467s211.627-471.467 471.467-471.467c259.84 0 471.467 211.627 471.467 471.467s-211.627 471.467-471.467 471.467zM512 31.147c-229.973 0-416.853 186.88-416.853 416.853s186.88 416.853 416.853 416.853c229.973 0 416.853-186.88 416.853-416.853s-186.88-416.853-416.853-416.853zM718.507 669.013c12.373 12.373 32.427 12.373 44.8 0l6.827-6.827c12.373-12.373 12.373-32.427 0-44.8l-433.493-433.493c-12.373-12.373-32.427-12.373-44.8 0l-6.827 6.827c-12.373 12.373-12.373 32.427 0 44.8l433.493 433.493z" />
<glyph unicode="&#xe52d;" glyph-name="remove" d="M15.36 928l957.44-992 35.84 32-957.44 992zM1008.64 928l-957.44-992-35.84 32 957.44 992z" />
<glyph unicode="&#xe52e;" glyph-name="schedule" d="M749.653 960h74.667v-1024h-85.333v1024zM563.627 603.733h75.52v-667.733h-85.333v667.733zM379.733 839.253h75.947v-903.253h-85.333v903.253zM209.92 365.227h75.093v-429.227h-85.333v429.227z" />
<glyph unicode="&#xe52f;" glyph-name="send" d="M991.147 85.333h-957.44c-9.387 0-17.493 3.84-23.467 9.813v0c-5.973 5.973-9.813 14.507-9.813 23.467v656.64c0 9.387 3.84 17.493 9.813 23.467s14.507 9.813 23.467 9.813h957.44c9.387 0 17.493-3.84 23.467-9.813s9.813-14.507 9.813-23.467v-656.64c0-9.387-3.84-17.493-9.813-23.467v0c-5.973-5.973-14.507-9.813-23.467-9.813zM66.987 151.893h890.453v458.24l-430.507-213.333c-4.693-2.133-9.813-3.413-14.933-3.413s-10.24 1.28-14.933 3.413v0l-430.507 213.333v-458.24zM957.44 684.373v57.6h-890.453v-57.6l445.44-220.587 445.44 220.587z" />
<glyph unicode="&#xe530;" glyph-name="sendemail" d="M991.147 85.333h-957.44c-9.387 0-17.493 3.84-23.467 9.813v0c-5.973 5.973-9.813 14.507-9.813 23.467v656.64c0 9.387 3.84 17.493 9.813 23.467s14.507 9.813 23.467 9.813h957.44c9.387 0 17.493-3.84 23.467-9.813s9.813-14.507 9.813-23.467v-656.64c0-9.387-3.84-17.493-9.813-23.467v0c-5.973-5.973-14.507-9.813-23.467-9.813zM66.987 151.893h890.453v458.24l-430.507-213.333c-4.693-2.133-9.813-3.413-14.933-3.413s-10.24 1.28-14.933 3.413v0l-430.507 213.333v-458.24zM957.44 684.373v57.6h-890.453v-57.6l445.44-220.587 445.44 220.587z" />
<glyph unicode="&#xe531;" glyph-name="test" d="M749.653 960h74.667v-1024h-85.333v1024zM563.627 603.733h75.52v-667.733h-85.333v667.733zM379.733 839.253h75.947v-903.253h-85.333v903.253zM209.92 365.227h75.093v-429.227h-85.333v429.227z" />
<glyph unicode="&#xe532;" glyph-name="widget" d="M448 927.147c-11.52-1.28-23.040-2.56-34.987-4.693l-0.853-3.413c-12.8-1.28-24.747-3.413-37.12-6.4-11.52-2.987-24.32-6.827-37.12-10.667v0l-0.853-0.427c2.56-8.533 5.547-17.493 8.533-26.027 3.84-11.093 6.4-19.627 8.533-26.453l1.707 0.427c11.947 3.84 22.613 7.253 33.28 9.813 11.52 2.987 22.613 5.12 33.28 6.4v0c8.533 1.28 17.92 2.56 29.867 3.413 11.52 0.853 23.893 1.707 36.693 1.707 60.587 0 118.187-11.52 170.24-33.28 54.187-22.187 102.827-54.613 143.787-95.573l0.427-0.427c40.107-41.387 72.96-90.453 95.573-145.493 21.333-51.627 33.28-108.373 33.28-168.107 0-21.76-2.56-42.667-5.12-64v0l-0.427-1.707c-0.427-2.56-2.133-10.667-3.84-18.347-0.853-3.84-1.707-7.253-3.84-17.493l-5.12-25.173-24.32 7.68-33.28 10.24h-0.853l32.853-190.72v-0.427l0.427-1.28 0.853 0.853 134.4 142.080-1.707 0.427-57.6 16.64 6.4 22.187c2.56 8.533 4.267 15.787 5.547 23.467 1.707 7.68 2.56 15.787 3.84 24.32v0c1.28 11.52 2.133 23.040 3.413 36.693 0.853 11.947 1.707 24.32 1.707 36.267v0c-1.28 68.693-14.933 133.547-39.68 192.853-24.747 60.16-61.013 114.347-106.667 159.573-46.080 46.080-100.693 83.2-161.707 108.373-58.453 24.32-122.88 37.547-190.72 37.547-13.653 0-26.453-0.427-38.4-1.707zM346.453 4.693c58.453-24.32 122.88-37.547 190.72-37.547 24.747 0 49.067 3.413 73.387 8.96s49.92 12.8 75.52 20.48v0l0.853 0.427c-2.56 8.533-5.547 17.493-8.533 26.027-3.413 9.813-5.973 17.92-8.107 24.32l-1.28-0.427c-12.373-4.267-23.467-7.253-34.56-10.24-11.52-2.987-22.613-5.12-33.28-6.4v0c-8.533-1.28-17.92-2.56-29.867-3.413-11.52-0.853-23.893-1.707-36.693-1.707-60.587 0-118.187 11.52-170.24 33.28-54.187 22.187-102.827 54.613-143.787 95.573l-0.427 0.427c-40.107 41.387-72.96 90.453-95.573 145.493-21.333 51.627-33.28 108.373-33.28 168.107 0 21.333 2.133 39.253 4.693 58.453 3.413 26.453-7.68-60.16 0.427 5.547l0.427 1.707c0.427 2.56 2.133 10.667 3.84 18.347 0.853 3.84 1.707 7.253 3.84 17.493l5.12 25.173 24.32-7.68 33.28-10.24h0.853l-32.853 190.72v0.427l-0.427 1.28-0.853-0.853-134.4-142.080 1.707-0.427 57.6-16.64-6.4-22.187c-2.56-8.533-4.267-15.787-5.547-23.467-1.707-7.68-2.56-15.787-3.84-24.32v0c-1.28-11.52-2.133-23.040-3.413-36.693-0.853-11.947-1.707-24.32-1.707-36.267v0c1.28-68.693 14.933-133.547 39.68-192.853 24.747-60.16 61.013-114.347 106.667-159.573 46.080-46.080 100.693-83.2 161.707-108.373z" />
<glyph unicode="&#xe534;" glyph-name="format_painter" d="M306.347 307.627c12.8 0 116.053-0.427 212.48-0.427 81.067-0.427 167.68-0.853 200.96-0.853v0c5.547 0 9.387 0 11.52 0 31.573 0.427 58.027 5.12 61.867 58.88 0 1.28 0.427 5.12 0.427 7.68s-0.427 6.4-0.427 7.253c-3.413 54.187-31.147 58.88-61.44 59.733-8.107 0-48.64 0.427-107.947 0.427 0.427 118.613 15.36 217.173 24.32 239.787 20.48 29.013 31.147 63.147 31.147 98.56 0.427 104.107-59.733 174.507-149.76 174.933h-0.853c-89.6 0-149.76-69.547-150.187-173.227 0-36.267 10.667-70.827 31.573-100.693 13.653-38.4 17.92-122.88 12.373-238.933-60.587 0.427-107.52 0.427-115.627 0.427-31.573-0.427-58.027-5.12-61.867-58.88 0-1.28-0.427-5.12-0.427-7.68s0.427-6.4 0.427-7.253c3.413-54.187 31.147-59.307 61.44-59.733v0zM266.24 380.587c2.56 37.547 14.507 39.253 40.533 39.253 2.133 0 6.4 0 12.8 0 20.907 0 62.72 0 112.64-0.427v0c5.547 0 10.24 4.267 10.667 10.24 3.84 72.533 7.253 202.667-13.653 258.987-0.427 0.853-0.853 1.707-1.28 2.56-18.773 26.027-28.587 57.173-28.587 89.173 0.427 75.52 40.107 151.893 128.853 151.893h0.853c78.507-0.427 128.853-60.587 128.427-153.173 0-31.573-9.813-61.44-28.16-87.467-0.427-0.853-0.853-1.28-1.28-2.133-11.093-26.453-26.88-134.4-26.453-259.84 0-5.973 4.693-10.667 10.667-10.667 56.32 0 109.653 0 118.187-0.427 26.453-0.427 37.973-2.133 40.533-39.68 0-1.707 0.427-4.267 0.427-5.12 0-0.427 0-0.853 0-0.853 0-0.853 0-3.413-0.427-5.547-2.56-37.12-14.507-38.827-40.533-39.253-1.707 0-5.547 0-11.093 0v0c-33.28 0-119.893 0.427-200.96 0.853-96.427 0-199.253 0-212.053 0.427-26.453 0.427-37.973 2.133-40.533 39.68 0 0-0.427 3.84-0.427 5.547 0 0 0 0.427 0 0.427 0 0.853 0 3.413 0.427 5.547v0zM831.573-56.32l-56.747 335.36c-0.853 5.12-5.12 8.96-10.667 8.96l-490.667 1.707c-5.12 0-9.813-3.84-10.667-8.96l-59.733-336.64c-0.427-2.987 0.427-6.4 2.133-8.533 2.133-2.56 5.12-3.84 8.107-3.84l81.92-0.427c3.84 0 7.253 2.133 8.96 5.12 1.707-2.987 5.12-5.12 8.96-5.12l200.96-0.853c2.56 0 5.12 1.28 7.253 2.987 1.707-1.707 4.267-2.987 7.253-2.987l200.533-0.853c3.84 0 7.253 2.133 9.387 5.547 1.707-3.413 5.547-5.547 9.387-5.547l72.96-0.427c0 0 0 0 0 0 5.973 0 10.667 4.693 10.667 10.667 0 1.28 0 2.133-0.427 3.413v0zM757.76-48.64l-8.533 56.32c-0.853 5.12-5.12 8.96-10.667 8.96v0c-5.547 0-9.813-3.84-10.667-9.387l-7.68-55.893-181.333 0.853-5.973 82.773c-0.427 5.547-5.12 9.813-10.667 9.813v0c-5.547 0-10.24-4.267-10.667-9.813l-6.827-82.773-181.76 0.853-8.107 54.613c-0.853 5.12-5.12 8.96-10.667 8.96v0c-5.12 0-9.813-3.84-10.667-9.387l-7.253-54.613-59.733 0.427 55.893 315.307 472.747-1.707 53.333-315.733h-50.773z" />
<glyph unicode="&#xe535;" glyph-name="fullscreen" d="M939.093-63.147h-851.2c-47.787 0-86.187 38.827-86.187 86.187v851.2c0 47.787 38.827 86.187 86.187 86.187h851.2c47.787 0 86.187-38.827 86.187-86.187v-851.2c0-47.787-38.827-86.187-86.187-86.187zM87.893 927.147c-29.013 0-52.48-23.467-52.48-52.48v-851.2c0-29.013 23.467-52.48 52.48-52.48h851.2c29.013 0 52.48 23.467 52.48 52.48v851.2c0 29.013-23.467 52.48-52.48 52.48h-851.2zM939.947 616.533v244.907h-246.613v-41.387h174.507l-190.72-191.147 29.44-29.44 191.573 191.573v-174.507zM694.613 22.613h244.907v247.040h-41.387v-174.933l-191.147 190.72-29.44-29.44 191.573-191.573h-174.507zM101.12 616.533v244.907h246.613v-41.387h-174.507l190.72-191.147-29.44-29.44-191.573 191.573v-174.507zM346.453 22.613h-244.907v247.040h41.813v-174.933l190.72 190.72 29.44-29.44-191.573-191.573h174.507z" />
<glyph unicode="&#xe536;" glyph-name="update_assign" d="M448 927.147c-11.52-1.28-23.040-2.56-34.987-4.693l-0.853-3.413c-12.8-1.28-24.747-3.413-37.12-6.4-11.52-2.987-24.32-6.827-37.12-10.667v0l-0.853-0.427c2.56-8.533 5.547-17.493 8.533-26.027 3.84-11.093 6.4-19.627 8.533-26.453l1.707 0.427c11.947 3.84 22.613 7.253 33.28 9.813 11.52 2.987 22.613 5.12 33.28 6.4v0c8.533 1.28 17.92 2.56 29.867 3.413 11.52 0.853 23.893 1.707 36.693 1.707 60.587 0 118.187-11.52 170.24-33.28 54.187-22.187 102.827-54.613 143.787-95.573l0.427-0.427c40.107-41.387 72.96-90.453 95.573-145.493 21.333-51.627 33.28-108.373 33.28-168.107 0-21.76-2.56-42.667-5.12-64v0l-0.427-1.707c-0.427-2.56-2.133-10.667-3.84-18.347-0.853-3.84-1.707-7.253-3.84-17.493l-5.12-25.173-24.32 7.68-33.28 10.24h-0.853l32.853-190.72v-0.427l0.427-1.28 0.853 0.853 134.4 142.080-1.707 0.427-57.6 16.64 6.4 22.187c2.56 8.533 4.267 15.787 5.547 23.467 1.707 7.68 2.56 15.787 3.84 24.32v0c1.28 11.52 2.133 23.040 3.413 36.693 0.853 11.947 1.707 24.32 1.707 36.267v0c-1.28 68.693-14.933 133.547-39.68 192.853-24.747 60.16-61.013 114.347-106.667 159.573-46.080 46.080-100.693 83.2-161.707 108.373-58.453 24.32-122.88 37.547-190.72 37.547-13.653 0-26.453-0.427-38.4-1.707zM346.453 4.693c58.453-24.32 122.88-37.547 190.72-37.547 24.747 0 49.067 3.413 73.387 8.96s49.92 12.8 75.52 20.48v0l0.853 0.427c-2.56 8.533-5.547 17.493-8.533 26.027-3.413 9.813-5.973 17.92-8.107 24.32l-1.28-0.427c-12.373-4.267-23.467-7.253-34.56-10.24-11.52-2.987-22.613-5.12-33.28-6.4v0c-8.533-1.28-17.92-2.56-29.867-3.413-11.52-0.853-23.893-1.707-36.693-1.707-60.587 0-118.187 11.52-170.24 33.28-54.187 22.187-102.827 54.613-143.787 95.573l-0.427 0.427c-40.107 41.387-72.96 90.453-95.573 145.493-21.333 51.627-33.28 108.373-33.28 168.107 0 21.333 2.133 39.253 4.693 58.453 3.413 26.453-7.68-60.16 0.427 5.547l0.427 1.707c0.427 2.56 2.133 10.667 3.84 18.347 0.853 3.84 1.707 7.253 3.84 17.493l5.12 25.173 24.32-7.68 33.28-10.24h0.853l-32.853 190.72v0.427l-0.427 1.28-0.853-0.853-134.4-142.080 1.707-0.427 57.6-16.64-6.4-22.187c-2.56-8.533-4.267-15.787-5.547-23.467-1.707-7.68-2.56-15.787-3.84-24.32v0c-1.28-11.52-2.133-23.040-3.413-36.693-0.853-11.947-1.707-24.32-1.707-36.267v0c1.28-68.693 14.933-133.547 39.68-192.853 24.747-60.16 61.013-114.347 106.667-159.573 46.080-46.080 100.693-83.2 161.707-108.373z" />
<glyph unicode="&#xe537;" glyph-name="amount" d="M448 927.147c-11.52-1.28-23.040-2.56-34.987-4.693l-0.853-3.413c-12.8-1.28-24.747-3.413-37.12-6.4-11.52-2.987-24.32-6.827-37.12-10.667v0l-0.853-0.427c2.56-8.533 5.547-17.493 8.533-26.027 3.84-11.093 6.4-19.627 8.533-26.453l1.707 0.427c11.947 3.84 22.613 7.253 33.28 9.813 11.52 2.987 22.613 5.12 33.28 6.4v0c8.533 1.28 17.92 2.56 29.867 3.413 11.52 0.853 23.893 1.707 36.693 1.707 60.587 0 118.187-11.52 170.24-33.28 54.187-22.187 102.827-54.613 143.787-95.573l0.427-0.427c40.107-41.387 72.96-90.453 95.573-145.493 21.333-51.627 33.28-108.373 33.28-168.107 0-21.76-2.56-42.667-5.12-64v0l-0.427-1.707c-0.427-2.56-2.133-10.667-3.84-18.347-0.853-3.84-1.707-7.253-3.84-17.493l-5.12-25.173-24.32 7.68-33.28 10.24h-0.853l32.853-190.72v-0.427l0.427-1.28 0.853 0.853 134.4 142.080-1.707 0.427-57.6 16.64 6.4 22.187c2.56 8.533 4.267 15.787 5.547 23.467 1.707 7.68 2.56 15.787 3.84 24.32v0c1.28 11.52 2.133 23.040 3.413 36.693 0.853 11.947 1.707 24.32 1.707 36.267v0c-1.28 68.693-14.933 133.547-39.68 192.853-24.747 60.16-61.013 114.347-106.667 159.573-46.080 46.080-100.693 83.2-161.707 108.373-58.453 24.32-122.88 37.547-190.72 37.547-13.653 0-26.453-0.427-38.4-1.707zM346.453 4.693c58.453-24.32 122.88-37.547 190.72-37.547 24.747 0 49.067 3.413 73.387 8.96s49.92 12.8 75.52 20.48v0l0.853 0.427c-2.56 8.533-5.547 17.493-8.533 26.027-3.413 9.813-5.973 17.92-8.107 24.32l-1.28-0.427c-12.373-4.267-23.467-7.253-34.56-10.24-11.52-2.987-22.613-5.12-33.28-6.4v0c-8.533-1.28-17.92-2.56-29.867-3.413-11.52-0.853-23.893-1.707-36.693-1.707-60.587 0-118.187 11.52-170.24 33.28-54.187 22.187-102.827 54.613-143.787 95.573l-0.427 0.427c-40.107 41.387-72.96 90.453-95.573 145.493-21.333 51.627-33.28 108.373-33.28 168.107 0 21.333 2.133 39.253 4.693 58.453 3.413 26.453-7.68-60.16 0.427 5.547l0.427 1.707c0.427 2.56 2.133 10.667 3.84 18.347 0.853 3.84 1.707 7.253 3.84 17.493l5.12 25.173 24.32-7.68 33.28-10.24h0.853l-32.853 190.72v0.427l-0.427 1.28-0.853-0.853-134.4-142.080 1.707-0.427 57.6-16.64-6.4-22.187c-2.56-8.533-4.267-15.787-5.547-23.467-1.707-7.68-2.56-15.787-3.84-24.32v0c-1.28-11.52-2.133-23.040-3.413-36.693-0.853-11.947-1.707-24.32-1.707-36.267v0c1.28-68.693 14.933-133.547 39.68-192.853 24.747-60.16 61.013-114.347 106.667-159.573 46.080-46.080 100.693-83.2 161.707-108.373z" />
<glyph unicode="&#xe538;" glyph-name="applicationmanagement" d="M240.64 98.987c-14.080 0-26.027 10.667-26.027 23.467s11.947 23.467 26.027 23.467h540.16c14.080 0 26.027-10.667 26.027-23.467s-11.947-23.467-26.027-23.467h-540.16zM240.64 276.053c-14.080 0-26.027 10.667-26.027 23.467s11.947 23.467 26.027 23.467h540.16c14.080 0 26.027-10.667 26.027-23.467s-11.947-23.467-26.027-23.467h-540.16zM240.64 453.12c-14.080 0-26.027 10.667-26.027 23.467s11.947 23.467 26.027 23.467h540.16c14.080 0 26.027-10.667 26.027-23.467s-11.947-23.467-26.027-23.467h-540.16zM881.067 824.32h-134.827v79.36c0 2.56-2.56 4.693-4.693 7.253-2.56 2.56-7.253 4.693-11.947 4.693s-9.813-2.56-11.947-4.693c-2.56-2.56-4.693-4.693-4.693-7.253v-79.36h-110.933v79.36c0 2.56-2.56 4.693-4.693 7.253-2.56 2.56-7.253 4.693-11.947 4.693s-9.813-2.56-11.947-4.693c-2.56-2.56-4.693-4.693-4.693-7.253v-79.36h-110.933v79.36c0 2.56-2.56 4.693-4.693 7.253-2.56 2.56-7.253 4.693-11.947 4.693s-9.813-2.56-11.947-4.693c-2.56-2.56-4.693-4.693-4.693-7.253v-79.36h-110.933v79.36c0 2.56-2.56 4.693-4.693 7.253-2.56 2.56-7.253 4.693-11.947 4.693s-9.813-2.56-11.947-4.693c-2.56-2.56-4.693-4.693-4.693-7.253v-79.36h-134.827c-4.693 0-9.813-2.56-11.947-4.693-2.56-2.56-4.693-4.693-4.693-7.253v-817.493c0-2.56 2.56-4.693 4.693-7.253 2.56-2.56 7.253-4.693 11.947-4.693v0h737.707c4.693 0 9.813 2.56 11.947 4.693 2.56 2.56 4.693 4.693 4.693 7.253v0 817.493c0 2.56-2.56 4.693-4.693 7.253-2.56 2.56-7.253 4.693-11.947 4.693v0zM792.747 868.267h80.213c18.773 0 35.413-7.253 47.36-18.773 14.080-11.947 21.333-28.16 21.333-47.36v0-800c0-18.773-7.253-35.413-21.333-47.36-11.947-11.947-28.16-18.773-47.36-18.773v0h-721.92c-18.773 0-35.413 7.253-47.36 18.773-14.080 11.947-21.333 28.16-21.333 47.36v800c0 18.773 7.253 35.413 21.333 47.36 11.947 11.947 28.16 18.773 47.36 18.773h80.213v26.027c0 18.773 7.253 35.413 21.333 47.36 11.947 11.947 28.16 18.773 47.36 18.773 18.773 0 35.413-7.253 47.36-18.773 14.080-11.947 21.333-28.16 21.333-47.36v-26.027h4.693v26.027c0 18.773 7.253 35.413 21.333 47.36 11.947 11.947 28.16 18.773 47.36 18.773 18.773 0 35.413-7.253 47.36-18.773 14.080-11.947 21.333-28.16 21.333-47.36v-26.027h4.693v26.027c0 18.773 7.253 35.413 21.333 47.36 11.947 11.947 28.16 18.773 47.36 18.773 18.773 0 35.413-7.253 47.36-18.773 14.080-11.947 21.333-28.16 21.333-47.36v-26.027h4.693v26.027c0 18.773 7.253 35.413 21.333 47.36 11.947 11.947 28.16 18.773 47.36 18.773 18.773 0 35.413-7.253 47.36-18.773 14.080-11.947 21.333-28.16 21.333-47.36v-26.027zM240.64 627.627c-14.080 0-26.027 10.667-26.027 23.467s11.947 23.467 26.027 23.467h540.16c14.080 0 26.027-10.667 26.027-23.467s-11.947-23.467-26.027-23.467h-540.16z" />
<glyph unicode="&#xe539;" glyph-name="customize" d="M23.893 838.4h780.373l220.16-220.16v-560.213h-1023.573v779.947h23.467zM785.493 788.907h-735.573v-683.52h927.147v491.947l-191.573 191.573zM139.52 731.733h302.507v-46.933h-302.507v46.933zM139.52 644.267h302.507v-46.933h-302.507v46.933zM139.52 556.8h302.507v-46.933h-302.507v46.933zM139.52 471.467h302.507v-46.933h-302.507v46.933zM139.52 384h302.507v-46.933h-302.507v46.933zM139.52 296.533h302.507v-46.933h-302.507v46.933zM139.52 211.2h302.507v-46.933h-302.507v46.933zM501.76 731.733h217.173v-46.933h-217.173zM501.76 645.12h217.173v-46.933h-217.173zM501.76 557.653h302.507v-46.933h-302.507zM501.76 471.467h302.507v-46.933h-302.507zM501.76 385.28h302.507v-46.933h-302.507zM501.76 297.813h302.507v-46.933h-302.507zM501.76 211.2h302.507v-46.933h-302.507zM993.28 584.96h-212.907c-14.080 0-23.467 11.947-23.467 23.467v205.653c0 14.080 11.947 23.467 23.467 23.467 7.253 0 14.080-2.56 18.773-7.253l210.347-203.52c9.387-9.387 9.387-23.467 0-35.413-4.693-4.693-11.947-7.253-16.64-7.253v0 0z" />
<glyph unicode="&#xe53a;" glyph-name="layout" d="M23.893 838.4h780.373l220.16-220.16v-560.213h-1023.573v779.947h23.467zM785.493 788.907h-735.573v-683.52h927.147v491.947l-191.573 191.573zM139.52 731.733h302.507v-46.933h-302.507v46.933zM139.52 644.267h302.507v-46.933h-302.507v46.933zM139.52 556.8h302.507v-46.933h-302.507v46.933zM139.52 471.467h302.507v-46.933h-302.507v46.933zM139.52 384h302.507v-46.933h-302.507v46.933zM139.52 296.533h302.507v-46.933h-302.507v46.933zM139.52 211.2h302.507v-46.933h-302.507v46.933zM501.76 731.733h217.173v-46.933h-217.173zM501.76 645.12h217.173v-46.933h-217.173zM501.76 557.653h302.507v-46.933h-302.507zM501.76 471.467h302.507v-46.933h-302.507zM501.76 385.28h302.507v-46.933h-302.507zM501.76 297.813h302.507v-46.933h-302.507zM501.76 211.2h302.507v-46.933h-302.507zM993.28 584.96h-212.907c-14.080 0-23.467 11.947-23.467 23.467v205.653c0 14.080 11.947 23.467 23.467 23.467 7.253 0 14.080-2.56 18.773-7.253l210.347-203.52c9.387-9.387 9.387-23.467 0-35.413-4.693-4.693-11.947-7.253-16.64-7.253v0 0z" />
<glyph unicode="&#xe53b;" glyph-name="manage" d="M901.547 827.733h-72.96v72.96c0 15.787-6.4 29.867-16.64 40.107s-24.32 16.64-40.107 16.64h-650.667c-15.787 0-29.867-6.4-40.107-16.64s-16.64-24.32-16.64-40.107v-780.8c0-15.787 6.4-29.867 16.64-40.107s24.32-16.64 40.107-16.64h72.96v-72.96c0-15.787 6.4-29.867 16.64-40.107s24.32-16.64 40.107-16.64h650.667c15.787 0 29.867 6.4 40.107 16.64s16.64 24.32 16.64 40.107v780.8c0 15.787-6.4 29.867-16.64 40.107s-24.32 16.64-40.107 16.64zM112.64 120.32v788.907h666.88v-797.013h-666.88v8.107zM901.547-17.92h-658.773v81.067h528.64c15.787 0 29.867 6.4 40.107 16.64s16.64 24.32 16.64 40.107v658.773h81.067v-797.013h-8.107l0.427 0.427zM212.053 327.253h450.133c8.96 0 17.067-2.987 22.613-8.107 5.973-4.693 9.387-11.947 9.387-19.627s-3.84-14.507-9.387-19.627c-5.973-4.693-14.080-7.68-22.613-7.68h-450.133c-8.96 0-17.067 2.987-22.613 7.68-5.973 4.693-9.387 11.947-9.387 19.627s3.84 14.507 9.387 19.627c5.973 4.693 14.080 7.68 22.613 7.68v0.427zM662.187 326.4h-450.133c-8.96 0-17.067-2.987-22.613-7.68-5.973-4.693-9.387-11.947-9.387-19.2s3.413-14.080 9.387-19.2c5.973-4.693 14.080-7.68 22.613-7.68h450.133c8.96 0 17.067 2.987 22.613 7.68 5.973 4.693 9.387 11.947 9.387 19.2s-3.84 14.080-9.387 19.2c-5.973 4.693-14.080 7.68-22.613 7.68zM212.053 475.733h450.133c8.96 0 17.067-2.987 22.613-7.68 5.973-4.693 9.387-11.947 9.387-19.627s-3.84-14.507-9.387-19.627c-5.973-4.693-14.080-8.107-22.613-8.107h-450.133c-8.96 0-17.067 2.987-22.613 7.68-5.973 4.693-9.387 11.947-9.387 19.627s3.84 14.507 9.387 19.627c5.973 4.693 14.080 7.68 22.613 7.68v0.427zM662.187 475.307h-450.133c-8.96 0-17.067-2.987-22.613-7.68-5.973-4.693-9.387-11.947-9.387-19.2s3.413-14.080 9.387-19.2c5.973-4.693 14.080-7.68 22.613-7.68h450.133c8.96 0 17.067 2.987 22.613 7.68 5.973 4.693 9.387 11.947 9.387 19.2s-3.413 14.080-9.387 19.2c-5.973 4.693-14.080 7.68-22.613 7.68zM212.053 624.64h450.133c8.96 0 17.067-2.987 22.613-7.68 5.973-4.693 9.387-11.947 9.387-19.627s-3.84-14.507-9.387-19.627c-5.973-4.693-14.080-7.68-22.613-7.68h-450.133c-8.96 0-17.067 2.987-22.613 7.68-5.973 4.693-9.387 11.947-9.387 19.627s3.84 14.507 9.387 19.627c5.973 4.693 14.080 7.68 22.613 7.68zM662.187 624.213h-450.133c-8.96 0-17.067-2.987-22.613-7.68-5.973-4.693-9.387-11.947-9.387-19.2s3.413-14.080 9.387-19.2c5.973-4.693 14.080-7.68 22.613-7.68h450.133c8.96 0 17.067 2.987 22.613 7.68 5.973 4.693 9.387 11.947 9.387 19.2s-3.413 14.080-9.387 19.2c-5.973 4.693-14.080 7.68-22.613 7.68zM340.48 808.533h321.28c8.96 0 17.067-2.987 22.613-7.68 5.973-4.693 9.387-11.947 9.387-19.627s-3.84-14.507-9.387-19.627c-5.973-4.693-14.080-7.68-22.613-7.68h-321.28c-8.96 0-17.067 2.987-22.613 7.68-5.973 4.693-9.387 11.947-9.387 19.627s3.84 14.507 9.387 19.627c5.973 4.693 14.080 7.68 22.613 7.68zM662.187 808.107h-321.28c-8.96 0-17.067-2.987-22.613-7.68-5.973-4.693-9.387-11.947-9.387-19.2s3.413-14.080 9.387-19.2c5.973-4.693 14.080-7.68 22.613-7.68h321.28c8.96 0 17.067 2.987 22.613 7.68 5.973 4.693 9.387 11.947 9.387 19.2s-3.413 14.080-9.387 19.2c-5.973 4.693-14.080 7.68-22.613 7.68z" />
<glyph unicode="&#xe53c;" glyph-name="obj403" d="M240.64 98.987c-14.080 0-26.027 10.667-26.027 23.467s11.947 23.467 26.027 23.467h540.16c14.080 0 26.027-10.667 26.027-23.467s-11.947-23.467-26.027-23.467h-540.16zM240.64 276.053c-14.080 0-26.027 10.667-26.027 23.467s11.947 23.467 26.027 23.467h540.16c14.080 0 26.027-10.667 26.027-23.467s-11.947-23.467-26.027-23.467h-540.16zM240.64 453.12c-14.080 0-26.027 10.667-26.027 23.467s11.947 23.467 26.027 23.467h540.16c14.080 0 26.027-10.667 26.027-23.467s-11.947-23.467-26.027-23.467h-540.16zM881.067 824.32h-134.827v79.36c0 2.56-2.56 4.693-4.693 7.253-2.56 2.56-7.253 4.693-11.947 4.693s-9.813-2.56-11.947-4.693c-2.56-2.56-4.693-4.693-4.693-7.253v-79.36h-110.933v79.36c0 2.56-2.56 4.693-4.693 7.253-2.56 2.56-7.253 4.693-11.947 4.693s-9.813-2.56-11.947-4.693c-2.56-2.56-4.693-4.693-4.693-7.253v-79.36h-110.933v79.36c0 2.56-2.56 4.693-4.693 7.253-2.56 2.56-7.253 4.693-11.947 4.693s-9.813-2.56-11.947-4.693c-2.56-2.56-4.693-4.693-4.693-7.253v-79.36h-110.933v79.36c0 2.56-2.56 4.693-4.693 7.253-2.56 2.56-7.253 4.693-11.947 4.693s-9.813-2.56-11.947-4.693c-2.56-2.56-4.693-4.693-4.693-7.253v-79.36h-134.827c-4.693 0-9.813-2.56-11.947-4.693-2.56-2.56-4.693-4.693-4.693-7.253v-817.493c0-2.56 2.56-4.693 4.693-7.253 2.56-2.56 7.253-4.693 11.947-4.693v0h737.707c4.693 0 9.813 2.56 11.947 4.693 2.56 2.56 4.693 4.693 4.693 7.253v0 817.493c0 2.56-2.56 4.693-4.693 7.253-2.56 2.56-7.253 4.693-11.947 4.693v0zM792.747 868.267h80.213c18.773 0 35.413-7.253 47.36-18.773 14.080-11.947 21.333-28.16 21.333-47.36v0-800c0-18.773-7.253-35.413-21.333-47.36-11.947-11.947-28.16-18.773-47.36-18.773v0h-721.92c-18.773 0-35.413 7.253-47.36 18.773-14.080 11.947-21.333 28.16-21.333 47.36v800c0 18.773 7.253 35.413 21.333 47.36 11.947 11.947 28.16 18.773 47.36 18.773h80.213v26.027c0 18.773 7.253 35.413 21.333 47.36 11.947 11.947 28.16 18.773 47.36 18.773 18.773 0 35.413-7.253 47.36-18.773 14.080-11.947 21.333-28.16 21.333-47.36v-26.027h4.693v26.027c0 18.773 7.253 35.413 21.333 47.36 11.947 11.947 28.16 18.773 47.36 18.773 18.773 0 35.413-7.253 47.36-18.773 14.080-11.947 21.333-28.16 21.333-47.36v-26.027h4.693v26.027c0 18.773 7.253 35.413 21.333 47.36 11.947 11.947 28.16 18.773 47.36 18.773 18.773 0 35.413-7.253 47.36-18.773 14.080-11.947 21.333-28.16 21.333-47.36v-26.027h4.693v26.027c0 18.773 7.253 35.413 21.333 47.36 11.947 11.947 28.16 18.773 47.36 18.773 18.773 0 35.413-7.253 47.36-18.773 14.080-11.947 21.333-28.16 21.333-47.36v-26.027zM240.64 627.627c-14.080 0-26.027 10.667-26.027 23.467s11.947 23.467 26.027 23.467h540.16c14.080 0 26.027-10.667 26.027-23.467s-11.947-23.467-26.027-23.467h-540.16z" />
<glyph unicode="&#xe53d;" glyph-name="process" d="M0 790.187h1024v-130.133h-1024v130.133zM0 513.28h1024v-130.133h-1024v130.133zM0 236.373h1024v-130.133h-1024v130.133z" />
<glyph unicode="&#xe53e;" glyph-name="qualify" d="M0 790.187h1024v-130.133h-1024v130.133zM0 513.28h1024v-130.133h-1024v130.133zM0 236.373h1024v-130.133h-1024v130.133z" />
<glyph unicode="&#xe53f;" glyph-name="Area" d="M102.4 338.347l69.547 122.027 81.067-73.387 121.173 144.213 186.027-160.427 361.387 324.693v-192.853l-374.613-234.667-164.693 161.707-144.213-117.333-65.707 61.44-78.507-137.387zM102.4 202.24l69.547 122.027 67.413-116.053 134.827 186.453 146.773-189.013 402.347 233.813v-90.88l-402.347-207.36-146.773 120.32-134.827-118.613-67.413 73.813-69.547-77.653v63.147zM501.333 28.587v0zM102.4 103.253l69.547 52.48 67.413-49.92 134.827 80.213 146.773-81.067 402.347 152.32v-229.12h-820.907zM46.507 881.92c0 16.213 13.227 29.867 29.867 29.867 16.213 0 29.867-13.227 29.867-29.867v-837.973h841.813c16.64 0 29.867-13.227 29.867-29.867s-13.227-29.867-29.867-29.867h-901.547v897.707z" />
<glyph unicode="&#xe540;" glyph-name="Barometer" d="M610.987 170.667v-203.947h-287.147v203.947zM610.987 477.013v-270.080h-287.147v270.507zM323.84 929.28h287.147v-108.373h-287.147zM323.413 740.267l287.573-1.28v-225.707h-287.147c0 13.227 0 283.733 0 226.56zM323.84 795.733h294.827l81.067 87.040 0.853-189.867-82.347 71.68-294.4 1.28z" />
<glyph unicode="&#xe541;" glyph-name="Composite" d="M197.12 406.187h148.053v-97.707c-11.947 1.707-23.893-1.707-34.133-9.813l-114.347-93.867v200.96zM345.173 205.227v-151.467h-148.053v35.84l144.213 118.613 3.84-2.987zM421.12 610.987h148.053v-106.667c-0.853-2.133-2.133-4.267-2.56-6.827l-88.32-279.040-57.173 41.813v350.72zM569.173 209.493v-157.013h-148.053v97.707l54.613-40.107c20.053-14.507 47.787-10.24 62.293 9.813 2.987 3.84 5.12 8.533 6.4 12.8v0l24.32 76.8v-0.427zM645.12 851.2h148.053v-294.4l-10.667-22.613-137.387-3.84v321.28zM793.173 445.013v-394.24h-148.053v389.973l148.053 4.267zM57.173 909.227c0 16.213 13.227 29.867 29.867 29.867 16.213 0 29.867-13.227 29.867-29.867v-837.973h841.813c16.64 0 29.867-13.227 29.867-29.867s-13.227-29.867-29.867-29.867h-901.547v897.707z" />
<glyph unicode="&#xe542;" glyph-name="custom-menu" d="M597.333 448c0-47.128-38.205-85.333-85.333-85.333s-85.333 38.205-85.333 85.333c0 47.128 38.205 85.333 85.333 85.333s85.333-38.205 85.333-85.333zM597.333 746.667c0-47.128-38.205-85.333-85.333-85.333s-85.333 38.205-85.333 85.333c0 47.128 38.205 85.333 85.333 85.333s85.333-38.205 85.333-85.333zM597.333 149.333c0-47.128-38.205-85.333-85.333-85.333s-85.333 38.205-85.333 85.333c0 47.128 38.205 85.333 85.333 85.333s85.333-38.205 85.333-85.333z" />
<glyph unicode="&#xe543;" glyph-name="Menu" d="M298.24 890.027c0 16.213-13.227 29.44-29.44 29.44h-197.12c-16.213 0-29.44-13.227-29.44-29.44v-197.547c0-16.213 13.227-29.44 29.44-29.44h197.547c16.213 0 29.44 13.227 29.44 29.44v197.547zM640 890.027c0 16.213-13.227 29.44-29.44 29.44h-197.12c-16.213 0-29.44-13.227-29.44-29.44v-197.547c0-16.213 13.227-29.44 29.44-29.44h197.12c16.213 0 29.44 13.227 29.44 29.44v197.547zM981.333 890.027c0 16.213-13.227 29.44-29.44 29.44h-197.12c-16.213 0-29.44-13.227-29.44-29.44v-197.547c0-16.213 13.227-29.44 29.44-29.44h197.547c16.213 0 29.44 13.227 29.44 29.44v197.547zM298.24 546.56c0 16.213-13.227 29.44-29.44 29.44h-197.12c-16.213 0-29.44-13.227-29.44-29.44v-197.12c0-16.213 13.227-29.44 29.44-29.44h197.547c16.213 0 29.44 13.227 29.44 29.44v197.12zM640 546.56c0 16.213-13.227 29.44-29.44 29.44h-197.12c-16.213 0-29.44-13.227-29.44-29.44v-197.12c0-16.213 13.227-29.44 29.44-29.44h197.12c16.213 0 29.44 13.227 29.44 29.44v197.12zM981.333 546.56c0 16.213-13.227 29.44-29.44 29.44h-197.12c-16.213 0-29.44-13.227-29.44-29.44v-197.12c0-16.213 13.227-29.44 29.44-29.44h197.547c16.213 0 29.44 13.227 29.44 29.44v197.12zM269.227 232.533h-197.12c-16.213 0-29.44-13.227-29.44-29.44v-197.547c0-16.213 13.227-29.44 29.44-29.44h197.547c16.213 0 29.44 13.227 29.44 29.44v197.547c0 16.213-13.227 29.44-29.44 29.44zM610.56 232.533h-197.12c-16.213 0-29.44-13.227-29.44-29.44v-197.547c0-16.213 13.227-29.44 29.44-29.44h197.12c16.213 0 29.44 13.227 29.44 29.44v197.547c0 16.213-13.227 29.44-29.44 29.44zM952.32 232.533h-197.12c-16.213 0-29.44-13.227-29.44-29.44v-197.547c0-16.213 13.227-29.44 29.44-29.44h197.547c16.213 0 29.44 13.227 29.44 29.44v197.547c0 16.213-13.227 29.44-29.44 29.44z" />
<glyph unicode="&#xe544;" glyph-name="StackBar" d="M46.507 881.92c0 16.213 13.227 29.867 29.867 29.867 16.213 0 29.867-13.227 29.867-29.867v-837.973h841.813c16.64 0 29.867-13.227 29.867-29.867s-13.227-29.867-29.867-29.867h-901.547v897.707zM305.92 114.773h-210.773v148.053h210.773zM200.107 562.773h-104.96v148.053h104.96zM357.973 562.773h-139.093v148.053h139.093zM590.933 562.773h-214.187v148.053h214.187zM234.667 340.907h-139.52v148.053h139.52zM411.307 340.907h-157.013v148.053h157.013zM748.8 340.907h-317.867v148.053h317.867zM536.32 114.773h-210.773v148.053h210.773zM925.013 114.773h-369.067v148.053h369.067z" />
<glyph unicode="&#xe545;" glyph-name="StackColumn" d="M46.507 881.92c0 16.213 13.227 29.867 29.867 29.867 16.213 0 29.867-13.227 29.867-29.867v-837.973h841.813c16.64 0 29.867-13.227 29.867-29.867s-13.227-29.867-29.867-29.867h-901.547v897.707zM782.507 234.24v-210.773h-148.053v210.773zM334.507 128.427v-104.96h-148.053v104.96zM334.507 286.293v-139.093h-148.053v139.093zM334.507 519.253v-214.187h-148.053v214.187zM556.373 162.987v-139.52h-148.053v139.52zM556.373 339.627v-157.013h-148.053v157.013zM556.373 677.12v-317.867h-148.053v317.867zM782.507 464.64v-210.773h-148.053v210.773zM782.507 853.333v-369.067h-148.053v369.067z" />
<glyph unicode="&#xe546;" glyph-name="drag-01" d="M174.507 487.253v133.12l-174.080-174.080 174.080-174.080v133.12h675.84v-133.12l174.080 174.080-174.080 174.080v-133.12z" />
<glyph unicode="&#xe547;" glyph-name="hidetoolbar-01" d="M605.867 403.627c22.613 22.613 22.613 64 0 86.613l-15.36 17.067-346.027 346.027c-17.493 17.067-23.040 44.8-14.080 66.987 8.96 22.613 32.853 38.4 57.173 38.4 16.213 0 32.853-6.827 43.947-18.347l450.987-450.56c22.613-22.613 22.613-64 0-87.040l-450.987-450.987c-22.613-22.613-64-22.613-87.040 0-22.613 22.613-22.613 64 0 87.040l346.027 346.027 15.36 18.773z" />
<glyph unicode="&#xe548;" glyph-name="palettesstylestab-01" d="M867.84 809.813c27.307 0 49.92-22.187 49.92-49.92v-626.773c0-27.307-22.187-49.92-49.92-49.92h-710.4c-27.307 0-49.92 22.187-49.92 49.92v626.773c0 27.307 22.187 49.92 49.92 49.92h710.4zM867.84 916.907h-710.4c-86.613 0-156.587-70.4-156.587-156.587v-626.773c0-86.613 70.4-156.587 156.587-156.587h710.4c86.613 0 156.587 70.4 156.587 156.587v626.773c0 86.613-70.4 156.587-156.587 156.587v0zM425.813 581.12v-72.107h-180.48v72.107h180.48zM786.773 581.12v-72.107h-180.48v72.107h180.48zM425.813 393.387v-72.107h-180.48v72.107h180.48zM786.773 393.387v-72.107h-180.48v72.107h180.48z" />
<glyph unicode="&#xe549;" glyph-name="screenstemplatestab" d="M585.387 154.453h402.347c20.053 0 36.693 16.213 36.693 36.693v512c0 20.053-16.213 36.693-36.693 36.693h-951.040c-20.053 0-36.693-16.213-36.693-36.693v-512c0-20.053 16.213-36.693 36.693-36.693h548.693zM951.040 227.413h-877.653v439.040h877.653v-439.040zM951.040 446.72l-89.173-89.173c-11.093-11.093-20.48-7.68-20.48 8.533v51.627h-658.347v-51.627c0-16.213-9.387-20.053-20.48-8.533l-89.173 89.173 89.173 89.173c11.093 11.093 20.48 7.68 20.48-8.533v-51.627h658.347v51.627c0 16.213 9.387 20.053 20.48 8.533l89.173-89.173z" />
<glyph unicode="&#xe54a;" glyph-name="settings-01" d="M572.16 887.467l37.547-105.387c25.173-7.253 49.067-17.493 71.68-29.867l101.12 48.213 84.053-84.053-48.213-101.12c12.373-22.613 22.613-46.507 29.867-71.68l105.387-37.547v-118.613l-105.387-37.547c-7.253-25.173-17.067-49.067-29.867-71.68l48.213-101.12-84.053-84.053-101.12 48.213c-22.613-12.373-46.507-22.613-71.68-29.867l-37.547-105.387h-118.613l-37.547 105.387c-25.173 7.253-49.067 17.493-71.68 29.867l-101.12-48.213-84.053 84.053 48.213 101.12c-12.373 22.613-22.613 46.507-29.867 71.68l-105.387 37.547v118.613l105.387 37.547c7.253 25.173 17.493 49.067 29.867 71.68l-48.213 101.12 84.053 84.053 101.12-48.213c22.613 12.373 46.507 22.613 71.68 29.867l37.547 105.387h118.613zM512.853 285.44c89.173 0 161.707 72.533 161.707 161.707s-72.533 161.707-161.707 161.707c-89.173 0-161.707-72.533-161.707-161.707s72.533-161.707 161.707-161.707zM622.507 958.72h-219.307l-17.067-47.36-26.027-72.96c-5.547-2.133-11.093-4.693-16.64-6.827l-115.2 55.040-35.413-35.413-84.053-83.627-35.413-35.84 21.76-45.653 33.28-69.973c-2.56-5.547-4.693-11.093-6.827-16.64l-72.96-26.027-47.36-16.64v-219.307l47.36-16.64 72.96-26.027c2.133-5.547 4.267-11.093 6.827-16.64l-33.28-69.973-21.76-45.653 35.413-35.84 119.467-119.467 115.627 55.040c5.547-2.133 11.093-4.693 16.64-6.827l26.027-72.96 17.067-47.36h219.307l17.067 47.36 26.027 72.96c5.547 2.133 11.093 4.267 16.64 6.827l115.627-55.040 119.467 119.467 35.413 35.84-21.76 45.653-33.28 69.973c2.56 5.547 4.693 11.093 6.827 16.64l72.96 26.027 47.36 16.64v219.307l-47.36 16.64-72.96 26.027c-2.133 5.547-4.267 11.093-6.827 16.64l33.28 69.973 21.76 45.653-35.413 35.84-84.053 83.627-35.413 35.413-115.627-55.040c-5.547 2.56-11.093 4.693-16.64 6.827l-26.027 72.96-17.067 47.36zM512.853 356.693c-49.92 0-90.027 40.533-90.027 90.027 0 49.92 40.533 90.453 90.027 90.453 49.92 0 90.027-40.533 90.027-90.453s-40.533-90.027-90.027-90.027v0z" />
<glyph unicode="&#xe54b;" glyph-name="showtoolbar-01" d="M419.413 490.24c-22.613-22.613-22.613-64 0-86.613l15.36-17.067 346.027-346.027c17.493-16.64 23.040-44.8 14.080-66.987-8.96-22.613-32.853-38.4-57.173-38.4-16.213 0-32.853 6.827-43.947 18.347l-450.987 450.987c-22.613 22.613-22.613 64 0 86.613l450.56 450.56c22.613 22.613 64 22.613 87.040 0 22.613-22.613 22.613-64 0-87.040l-346.027-346.027-15.36-18.773z" />
</font>
</defs>
</svg>
