<?xml version="1.0" standalone="no"?>
<!DOCTYPE svg PUBLIC "-//W3C//DTD SVG 1.1//EN" "http://www.w3.org/Graphics/SVG/1.1/DTD/svg11.dtd">
<svg xmlns="http://www.w3.org/2000/svg">
<metadata>Copyright (C) 2020 by original authors @ fontello.com</metadata>
<defs>
<font id="fontello" horiz-adv-x="1000" >
<font-face font-family="fontello" font-weight="400" font-stretch="normal" units-per-em="1000" ascent="850" descent="-150" />
<missing-glyph horiz-adv-x="1000" />
<glyph glyph-name="new" unicode="&#xe800;" d="M969 475h-344v344c0 17-14 31-31 31h-188c-17 0-31-14-31-31v-344h-344c-17 0-31-14-31-31v-188c0-17 14-31 31-31h344v-344c0-17 14-31 31-31h188c17 0 31 14 31 31v344h344c17 0 31 14 31 31v188c0 17-14 31-31 31z" horiz-adv-x="1000" />

<glyph glyph-name="script" unicode="&#xe801;" d="M813 131l93-93 313 312-313 313-93-94 218-219z m-375 438l-94 94-313-313 313-312 94 93-219 219z m247 134l68-18-188-688-68 19 188 687z" horiz-adv-x="1250" />

<glyph glyph-name="dms" unicode="&#xe802;" d="M880 739c-6 6-15 10-25 10-9 0-18-4-25-10-6-6-10-15-10-25 0-10 4-19 10-25 7-6 15-11 25-11 10 0 19 4 25 11 7 6 11 15 11 25 0 9-4 18-11 25z m-135 0c-6 6-15 10-25 10-9 0-18-4-25-10-6-6-10-15-10-25 0-10 4-19 10-25 7-6 15-11 25-11 10 0 19 4 25 11 7 6 11 15 11 25 0 9-4 18-11 25z m160 71h-810c-15 0-29-7-39-17s-16-23-16-39v-809c0-15 6-29 16-39s24-16 39-16h810c15 0 29 6 39 16s16 24 16 39v809c0 16-6 29-16 39s-24 17-39 17z m-810 40h810c26 0 50-11 67-28 17-17 28-41 28-68v-809c0-26-11-50-28-67-17-17-41-28-67-28h-810c-26 0-50 11-67 28-18 17-28 41-28 67v809c0 26 10 50 28 68 17 17 41 28 67 28z m355-362c58 0 111-23 149-61 38-38 61-91 61-149 0-53-19-101-52-138l200-156-25-31-204 160c-36-28-80-44-129-44-58 0-110 23-148 61-38 38-62 91-62 149s23 110 62 148c38 38 90 62 148 62z m121-89c-31 31-73 49-121 49s-89-19-120-49c-31-31-50-74-50-121s20-89 50-120c31-31 73-50 120-50s90 20 121 50c31 31 49 73 49 120s-19 90-49 121z m-552 226h966v-40h-966z" horiz-adv-x="1000" />

<glyph glyph-name="setup" unicode="&#xe803;" d="M558 780l37-102c24-8 48-18 70-30l98 47 82-82-47-98c12-22 22-46 30-70l102-37v-116l-102-37c-8-24-18-47-30-70l47-98-82-82-98 47c-22-12-46-22-70-29l-37-103h-116l-37 103c-24 7-47 17-70 29l-98-47-82 82 47 98c-12 23-22 46-29 70l-103 37v116l103 37c7 24 17 48 29 70l-47 98 82 82 98-47c23 12 46 22 70 30l37 102h116z m-58-587c87 0 158 70 158 157s-71 158-158 158c-87 0-158-70-158-158s71-157 158-157z m107 657h-214l-17-46-25-71c-6-3-11-5-16-7l-113 54-34-35-83-82-34-35 21-44 33-69c-3-5-5-10-7-16l-71-25-47-16v-215l47-16 71-25c2-6 4-11 7-17l-33-68-21-44 151-152 45 21 68 33c5-2 10-5 16-7l25-71 17-46h214l17 46 25 71c6 2 11 4 16 7l113-54 151 152-21 44-33 68c3 6 5 11 7 17l71 25 47 16v215l-47 16-71 25c-2 6-4 11-7 16l33 69 21 44-34 35-82 82-35 35-45-22-68-32c-5 2-10 4-16 7l-25 71-17 46z m-107-588c-49 0-88 40-88 88 0 49 40 88 88 88 49 0 88-39 88-88s-40-88-88-88v0z" horiz-adv-x="1000" />

<glyph glyph-name="pulse" unicode="&#xe804;" d="M683 165l-104 233-121-335-176 659-129-505c-41-6-73-41-73-84 0-48 38-85 85-85 47 0 85 37 85 85 0 28-14 52-35 68l68 268 165-619 136 377 56-126h279v64h-237z m-220 685h169c33 0 61-10 81-28 20-19 31-46 31-80 0-30-9-55-28-77-18-22-46-33-84-33h-118v-160h-51v378z m199-52c-12 5-27 8-47 8h-100v-131h100c23 0 42 5 56 15 14 9 22 27 22 51 0 28-10 47-31 57z" horiz-adv-x="1000" />

<glyph glyph-name="move" unicode="&#xe805;" d="M625 848h-454c-49 0-66-30-66-57v-867c0-36 28-76 66-76h651c36 0 76 28 76 66v692l-273 242z m1-78l197-175h-140c-19 0-57 53-57 80v95z m214-532v-323c-1-4-11-10-19-10h-650c-3 1-10 11-10 19v866c2 0 5 1 9 1h413v-116c0-44 50-122 100-122h157v-315z m-232 263c5 3 11 2 15-2l160-144c6-6 6-17 0-22l-158-143c-2-3-7-5-12-5-8 0-15 7-14 15 0 0 0 0 0 0v76h-135c-8 0-14 7-14 15v106c0 8 6 14 14 14h135v77c0 6 3 11 9 13z m20-46v-58c0-4-2-8-4-11-3-3-7-4-11-4h-134v-77h134c4 0 8-1 11-4 2-3 4-6 4-10v-58l123 111-123 111z m-249-428c-6-2-11-1-16 3l-159 144c-6 5-6 16 0 21l157 143c3 3 7 5 12 5 8 0 15-6 15-14v0-77h134c8 0 15-7 15-14v-106c0-8-7-15-15-15h-134v-77c0-5-4-11-9-13z m-21 46v59c0 3 2 7 5 10 2 3 6 4 10 4h135v77h-135c-4 0-8 2-10 4-3 3-5 7-5 11v58l-123-111 123-112z" horiz-adv-x="1000" />

<glyph glyph-name="twitter20" unicode="&#xe806;" d="M747 100h-246c-35 0-64 12-88 36-24 24-36 54-36 88v88h352c32 0 59 11 82 34 22 23 34 50 34 82 0 32-12 59-35 81-22 23-50 35-82 35h-351v181c0 34-12 64-36 88-25 25-54 37-88 37-35 0-65-12-89-36-24-24-36-54-36-89v-501c0-103 36-191 109-264 73-74 161-110 264-110h246c35 0 64 12 89 37 24 24 36 54 36 88 0 34-12 64-36 88-25 25-54 37-89 37z" horiz-adv-x="1000" />

<glyph glyph-name="horizontal-menu" unicode="&#xe807;" d="M43 520c9 4 16 13 16 25 0 15-12 27-27 27h-14c-15 0-27-12-27-27v-14c0-15 12-27 27-27 11 0 20 6 25 16z m123 24c0-15 12-27 27-27h33c15 0 27 12 27 27s-12 27-27 27h-33c-15 0-27-12-27-27z m195 0c0-11 7-20 16-25 4-9 14-16 25-16 15 0 27 12 27 27v14c0 15-12 27-27 27h-14c-15 0-27-12-27-27z m68-181v28c0 7-2 13-6 18h542c15 0 27 12 27 27v384c0 15-12 28-27 28h-670c-15 0-27-13-27-28v-384c0-15 12-27 27-27h87c-4-4-7-11-7-18v-28c0-15 12-27 27-27s27 12 27 27z m-106 101v329h615v-329h-615z m106-269v28c0 15-12 27-27 27s-27-12-27-27v-28c0-15 12-27 27-27s27 12 27 27z m0-167v28c0 15-12 27-27 27s-27-12-27-27v-28c0-15 12-27 27-27s27 12 27 27z m0-153v13c0 15-12 27-27 27-11 0-20-6-25-16-9-4-16-14-16-25 0-15 12-27 27-27h14c15 0 27 12 27 27z m-176 0c0 15-12 27-27 27h-32c-15 0-27-12-27-27s12-28 27-28h32c15 0 27 13 27 28z m-194 0c0 11-7 20-16 25-5 9-14 16-25 16-15 0-28-12-28-27v-14c0-15 13-27 28-27h13c15 0 27 12 27 27z m-14 488v28c0 15-12 27-27 27s-27-12-27-27v-28c0-15 12-27 27-27s27 12 27 27z m0-335v28c0 15-12 27-27 27s-27-12-27-27v-28c0-15 12-27 27-27s27 12 27 27z m0 167v28c0 15-12 27-27 27s-27-12-27-27v-28c0-15 12-27 27-27s27 12 27 27z m599-131l22 22c11 11 23 29 12 40-5 5-12 8-19 8s-15-3-20-9l-71-71c-5-5-8-12-8-20 0-7 3-14 9-20l70-69c11-11 29-11 40 0 11 11-2 29-13 40l-22 22c-1 45 4 7 1 56z m250 214v-142c0-35-14-67-37-91s-55-37-90-37h-154v56h154c20 0 38 6 52 20s21 31 21 52c0 47 0 94 0 142-2 27 53 33 54 0z" horiz-adv-x="1000" />

<glyph glyph-name="vertical-menu" unicode="&#xe808;" d="M319 796c-4-9-14-16-25-16-15 0-27 12-27 27v14c0 15 12 27 27 27h14c15 0 27-12 27-27 0-11-7-21-16-25z m-24-123c15 0 27-13 27-28v-32c0-15-12-27-27-27s-27 12-27 27v32c0 15 12 28 27 28z m0-195c11 0 20-7 25-16 9-4 16-14 16-25 0-15-12-27-27-27h-14c-15 0-27 12-27 27v13c0 15 12 28 27 28z m180-68h-27c-7 0-13 2-18 6v-542c0-15-12-27-27-27h-385c-15 0-27 12-27 27v669c0 15 12 27 27 27h385c15 0 27-12 27-27v-86c4 4 10 7 18 7h27c15 0 28-12 28-27s-13-27-28-27z m-100 106h-330v-615h330v615z m268-106h-28c-15 0-27 12-27 27s12 27 27 27h28c15 0 27-12 27-27s-12-27-27-27z m168 0h-28c-15 0-27 12-27 27s12 27 27 27h28c15 0 27-12 27-27s-12-27-27-27z m153 0h-14c-15 0-27 12-27 27 0 11 7 20 17 25 4 9 13 16 25 16 15 0 27-12 27-27v-14c0-15-12-27-27-27z m0 175c-15 0-27 13-27 28v32c0 15 12 27 27 27s27-12 27-27v-32c0-15-12-28-27-28z m0 195c-11 0-20 7-25 16-9 4-16 14-16 25 0 15 12 27 27 27h14c15 0 27-12 27-27v-13c0-15-12-28-27-28z m-489 14h-27c-15 0-28 12-28 27s13 27 28 27h27c15 0 28-12 28-27s-13-27-28-27z m336 0h-28c-15 0-27 12-27 27s12 27 27 27h28c15 0 27-12 27-27s-12-27-27-27z m-168 0h-28c-15 0-27 12-27 27s12 27 27 27h28c15 0 27-12 27-27s-12-27-27-27z m140-592l-23-22c-11-11-29-23-40-12-5 5-7 12-7 19s2 15 8 20l71 71c6 5 13 8 20 7 8 0 15-2 20-8l70-70c11-11 11-29-1-40-11-11-28 2-39 13l-23 22c-44 1-7-4-56-1z m-215-250h142c35 0 67 14 90 37s38 55 38 90v154h-56v-154c0-20-7-39-20-52s-32-22-52-22c-47 0-95 0-142 0-28 3-33-52 0-53z" horiz-adv-x="1000" />

<glyph glyph-name="obj208" unicode="&#xe809;" d="M536 400h138v85h-149v149h-72c-2-11-4-21-7-31-3-13-8-25-13-37l0-1c-6-10-13-20-20-29s-16-18-25-25c-8-7-19-14-30-19-10-5-21-9-32-13v-61h81v-223c0-13 1-25 2-35 2-9 4-17 6-23l0-1c4-12 15-23 27-35 6-6 13-11 21-16s16-7 26-11c6-1 6-1 7-1 16-4 31-8 54-8 11 0 22 1 33 2s21 3 31 5c9 2 20 5 31 9 9 3 18 6 27 10v57c-7-3-14-6-22-8-13-4-26-5-42-5-11 0-20 1-29 4-8 2-16 5-24 9-5 3-11 8-16 13-5 6-9 13-13 19l-1 3c-3 10-3 32-3 67v150h14v0z m-36 404c-125 0-239-51-321-133s-133-196-133-321c0-125 51-239 133-321s196-133 321-133c125 0 239 51 321 133s133 196 133 321c0 125-51 239-133 321s-196 133-321 133z m-354-100c91 90 216 146 354 146s263-56 354-146c90-91 146-216 146-354s-56-263-146-354c-91-90-216-146-354-146s-263 56-354 146c-90 91-146 216-146 354s56 263 146 354z" horiz-adv-x="1000" />

<glyph glyph-name="obj209" unicode="&#xe80a;" d="M782 140h-111v240c0 28-8 47-43 47-57 0-67-47-67-47v-240h-111v389h111v-37c16 13 55 37 111 37 37 0 111-22 111-151v-238z m-440 412c-29 0-52 23-52 51s23 52 52 52c28 0 51-23 51-52s-23-51-51-51z m51-412h-111v390h111z m107 664c-125 0-239-51-321-133s-133-196-133-321c0-125 51-239 133-321s196-133 321-133c125 0 239 51 321 133s133 196 133 321c0 125-51 239-133 321s-196 133-321 133z m-354-100c91 90 216 146 354 146s263-56 354-146c90-91 146-216 146-354s-56-263-146-354c-91-90-216-146-354-146s-263 56-354 146c-90 91-146 216-146 354s56 263 146 354z" horiz-adv-x="1000" />

<glyph glyph-name="obj210" unicode="&#xe80b;" d="M623 350h-79v-286h-108v286h-70v99h70v57c0 81 22 129 117 129h79v-98h-48c-38 0-40-14-40-40v-48h88l-11-99h2z m-123 454c-125 0-239-51-321-133s-133-196-133-321c0-125 51-239 133-321s196-133 321-133c125 0 239 51 321 133s133 196 133 321c0 125-51 239-133 321s-196 133-321 133z m-354-100c91 90 216 146 354 146s263-56 354-146c90-91 146-216 146-354s-56-263-146-354c-91-90-216-146-354-146s-263 56-354 146c-90 91-146 216-146 354s56 263 146 354z" horiz-adv-x="1000" />

<glyph glyph-name="obj314" unicode="&#xe80c;" d="M500 804c-125 0-239-51-321-133s-133-196-133-321c0-125 51-239 133-321s196-133 321-133c125 0 239 51 321 133s133 196 133 321c0 125-51 239-133 321s-196 133-321 133z m-354-100c91 90 216 146 354 146s263-56 354-146c90-91 146-216 146-354s-56-263-146-354c-91-90-216-146-354-146s-263 56-354 146c-90 91-146 216-146 354s56 263 146 354z m575-301v-109h-54v109h-108v56h108v108h54v-108h109v-56h-109z m-339-346c-97 0-177 40-177 102 0 64 74 125 171 125h30c-14 12-24 28-24 48 0 12 4 22 8 32h-17c-78 0-132 56-132 127 0 68 72 127 151 127h173l-39-29h-54c36-14 56-56 56-100 0-36-20-69-48-91s-34-30-34-50c0-16 30-42 46-54 46-32 61-63 61-113 0-62-61-124-171-124v0z m54 203c-14 4-28 5-44 5-67 0-127-40-127-90s48-92 115-92c94 0 126 40 126 90 0 6 0 12-2 18-8 28-34 42-70 68v0h2z m28 225c-8 58-50 106-94 106-45 2-75-44-67-102s51-107 95-109c44-2 74 45 66 105v0z" horiz-adv-x="1000" />

<glyph glyph-name="cardview" unicode="&#xe80d;" d="M154 740h286v-781h-310v781h24z m238-48h-214v-685h214v685z m166-388h286v-346h-309v346h23z m238-48h-214v-251h214v251z m-238 484h286v-346h-309v346h23z m238-48h-214v-251h214v251z m-772 158h976v-1000h-1000v1000h24z m929-47h-905v-905h905v905z" horiz-adv-x="1000" />

<glyph glyph-name="tabview" unicode="&#xe80e;" d="M359 685v86c0 43-35 78-79 78h-202c-43 0-78-35-78-78v-843c0-43 35-78 78-78h844c43 0 78 35 78 78v754l-641 2z m551-745h-820v670h820v-670z m-253 765h-240v58c0 29 23 53 52 53h136c28 0 52-23 52-53v-58z m312 0h-240v58c0 29 23 53 52 53h136c28 0 52-23 52-53v-58z" horiz-adv-x="1000" />

<glyph glyph-name="graphchange2" unicode="&#xe80f;" d="M998 419c0 1 0 1-1 1-1 0-2 1-3 1h-79l-2 14c-20 108-78 203-159 271-80 67-182 107-294 107-127 0-242-52-326-135-84-84-135-199-135-326s51-242 135-326c83-84 199-135 326-135 82 0 161 22 230 61 69 40 128 98 169 169v0c4 6 4 13 2 20s-6 12-12 16v0c-6 4-14 4-20 3-6-2-12-6-16-12-36-63-88-115-150-150s-131-55-204-55c-113 0-215 46-289 120-74 74-119 176-119 288 0 113 46 215 119 289 75 74 177 120 289 120 96 0 184-34 254-90 72-56 123-137 144-228l5-21h-86c-1 0-1-1-2-1-1 0-1-1-2-2s0-1 0-2c0-1 0-2 1-3l108-130c1 0 1-1 2-1 0-1 1-1 2-1 0 0 1 0 1 1 1 0 2 1 2 1v0l109 130v1c0 0 1 1 1 1 0 2 0 3-1 4v0z m-423 79v-294c0-14 5-25 14-34s21-14 34-14c13 0 25 5 34 14s14 21 14 34v294c0 13-6 25-14 33s-21 14-34 14c-13 0-25-5-34-14s-14-21-14-33z m-163-65v-229c0-13 6-25 14-34s21-14 34-14c13 0 25 6 34 14s14 21 14 34v229c0 13-5 25-14 33s-21 14-34 14c-13 0-25-5-34-14s-14-21-14-33z m-163-66v-163c0-13 6-25 14-34s21-14 34-14c13 0 25 6 34 14s14 21 14 34v163c0 13-5 25-14 34s-21 14-34 14c-13 0-25-5-34-14s-14-21-14-34z" horiz-adv-x="1000" />

<glyph glyph-name="manageview" unicode="&#xe810;" d="M116 523h102v-99h-102v99z m0-166h102v-99h-102v99z m148 166h402v-99h-402v99z m0-166h402v-99h-402v99z m-223-387v618h774v-324c9 1 18 2 28 2 15 0 29-2 43-5v507c0 27-21 48-48 48h-821c-27 0-48-21-48-48v-821c0-27 21-48 48-48h600c-27 28-48 54-61 72 0 0-515 0-515 0z m749 253c-132 0-240-170-240-170s108-169 240-169c133 0 241 169 241 169s-108 170-241 170z m0-251c-45 0-81 37-81 82s36 81 81 81c45 0 82-36 82-81 0-45-37-82-82-82z" horiz-adv-x="1000" />

<glyph glyph-name="rss" unicode="&#xe811;" d="M250-25c0-69-56-125-125-125s-125 56-125 125c0 69 56 125 125 125s125-56 125-125z m-250 875v-187c449 0 813-364 813-813h187c0 553-447 1000-1000 1000z m438-1000h187c0 345-280 625-625 625v-187c242 0 438-196 438-438v0z" horiz-adv-x="1000" />

<glyph glyph-name="comment" unicode="&#xe812;" d="M933 601c-45 55-105 98-182 130s-161 48-251 48c-91 0-175-16-252-48-76-32-137-75-182-130-44-55-67-115-67-180 0-56 17-108 51-156s79-90 138-123c-5-15-9-29-15-43-5-13-10-24-15-33s-10-18-18-28c-8-10-14-18-18-22-4-4-10-11-19-21s-15-17-18-20c0 0-1-1-4-5-3-3-4-4-4-4l-3-5c-2-3-3-5-3-6s0-2-1-5c-1-3-1-5 0-7v0c2-6 5-11 9-16 5-3 10-5 15-5h3c24 3 46 7 64 12 97 25 183 70 257 135 27-3 55-5 80-5 91 0 175 16 252 48 76 32 137 75 182 130 44 55 67 115 67 180 0 64-23 124-67 179z m-63-322c-39-44-91-79-157-104-66-26-138-39-213-39-23 0-47 2-73 4l-32 4-24-21c-46-40-97-73-153-96 17 30 30 62 39 96l15 54-49 28c-48 27-85 60-112 98s-40 77-40 119c0 51 19 98 58 142 39 44 91 79 158 105 66 26 137 39 213 39s146-13 213-39c65-26 118-61 157-105 39-44 58-91 58-142 0-51-19-99-58-143z" horiz-adv-x="1000" />

<glyph glyph-name="favourite3" unicode="&#xe813;" d="M1000 457c0 15-11 24-34 28l-301 43-136 274c-7 16-17 24-29 24s-22-8-30-24l-135-274-302-43c-23-4-34-13-34-28 0-8 5-18 15-29l219-213-52-300c-1-5-1-10-1-12 0-8 2-16 6-21s11-9 19-9c7 0 15 2 24 7l270 142 270-142c9-5 16-7 24-7 17 0 25 10 25 30 0 5 0 9 0 12l-52 300 218 213c11 11 16 20 16 29z m-317-214l44-253-227 119-227-119 44 253-184 178 254 37 113 230 114-230 254-37-184-178z" horiz-adv-x="1000" />

<glyph glyph-name="gridview" unicode="&#xe814;" d="M0 788v-876h1000v876h-1000z m375-563v188h250v-188h-250z m250-62v-188h-250v188h250z m0 500v-188h-250v188h250z m-312 0v-188h-250v188h250z m-250-250h250v-188h-250v188z m625 0h250v-188h-250v188z m0 62v188h250v-188h-250z m-625-312h250v-188h-250v188z m625-188v188h250v-188h-250z" horiz-adv-x="1000" />

<glyph glyph-name="listview" unicode="&#xe815;" d="M950 702h-563c-28 0-50 23-50 51s22 50 50 50h563c28 0 50-23 50-50s-22-51-50-51z m0-402h-563c-28 0-50 22-50 50s22 50 50 50h563c28 0 50-22 50-50s-22-50-50-50z m0-403h-563c-28 0-50 23-50 51s22 50 50 50h563c28 0 50-22 50-50s-22-51-50-51z m-950 960h208v-209h-208v209z m0-403h208v-209h-208v209z m0-402h208v-208h-208v208z" horiz-adv-x="1000" />

<glyph glyph-name="notes" unicode="&#xe816;" d="M936 850h-803v-133h-97c-18 0-36-13-36-32v-66c0-19 18-36 36-36h97v-66h-97c-18 0-36-13-36-32v-66c0-19 18-36 36-36h97v-66h-97c-18 0-36-13-36-32v-66c0-19 18-36 36-36h97v-66h-97c-18 0-36-13-36-32v-66c0-19 18-36 36-36h97v-133h803c37 0 64 32 64 69v866c0 37-27 65-64 65z m-603-933h-133v66h36c18 0 31 17 31 36v66c0 19-13 32-31 32h-36v66h36c18 0 31 17 31 36v66c0 19-13 32-31 32h-36v66h36c18 0 31 17 31 36v66c0 19-13 32-31 32h-36v66h36c18 0 31 17 31 36v66c0 19-13 32-31 32h-36v66h133v-866z" horiz-adv-x="1000" />

<glyph glyph-name="bulk" unicode="&#xe817;" d="M880 721h-71v71c0 16-6 29-16 39s-24 17-39 17h-636c-15 0-29-7-39-17s-16-23-16-39v-762c0-16 6-30 16-40s24-16 39-16h72v-71c0-16 6-29 16-39s24-17 39-17h635c16 0 30 7 40 17s16 23 16 39v762c0 16-6 30-16 40s-24 16-40 16z m-770-691v770h651v-778h-651v8z m770-135h-643v79h516c16 0 30 6 40 16s16 24 16 40v643h79v-778h-8l0 0z m-673 337h440c8 0 16-3 22-8 6-4 9-11 9-19s-4-14-9-19c-6-5-14-8-22-8h-440c-9 0-17 3-22 8-6 4-9 12-9 19s4 14 9 19c6 5 14 8 22 8v0z m440-1h-440c-9 0-17-3-22-7-6-5-9-12-9-19s3-14 9-19c6-4 14-7 22-7h440c8 0 16 3 22 7 6 5 9 12 9 19s-4 14-9 19c-6 4-14 7-22 7z m-440 146h440c8 0 16-3 22-7 6-5 9-12 9-20s-4-14-9-19c-6-4-14-8-22-8h-440c-9 0-17 3-22 8-6 4-9 12-9 19s4 14 9 19c6 5 14 8 22 8v0z m440 0h-440c-9 0-17-3-22-8-6-4-9-11-9-19s3-13 9-18c6-5 14-8 22-8h440c8 0 16 3 22 8 6 4 9 11 9 18s-3 14-9 19c-6 5-14 8-22 8z m-440 146h440c8 0 16-3 22-8 6-5 9-12 9-19s-4-14-9-19c-6-5-14-8-22-8h-440c-9 0-17 3-22 8-6 4-9 11-9 19s4 14 9 19c6 5 14 8 22 8z m440-1h-440c-9 0-17-3-22-7-6-5-9-12-9-19s3-14 9-19c6-4 14-7 22-7h440c8 0 16 3 22 7 6 5 9 12 9 19s-3 14-9 19c-6 4-14 7-22 7z m-314 180h313c9 0 17-3 22-7 6-5 10-12 10-20s-4-14-10-19c-5-4-13-7-22-7h-313c-9 0-17 3-23 7-5 5-9 12-9 19s4 15 9 20c6 4 14 7 23 7z m314 0h-314c-9 0-17-3-22-8-6-4-9-11-9-19s3-13 9-18c6-5 14-8 22-8h314c8 0 16 3 22 8 6 4 9 11 9 18s-3 14-9 19c-6 5-14 8-22 8z" horiz-adv-x="1000" />

<glyph glyph-name="demographic" unicode="&#xe818;" d="M500 850c-276 0-500-224-500-500s224-500 500-500c276 0 500 224 500 500s-224 500-500 500z m435-484h-194c-1 72-14 140-37 202 44 19 84 43 121 71 65-73 106-168 110-273z m-453-451c-54 45-99 103-132 170 43 14 88 21 134 23v-193c-1 0-1 0-2 0z m36 870c61-51 110-119 144-198-46-16-95-25-146-26v224c1 0 2 0 2 0z m54-6c89-15 168-56 231-116-34-26-71-48-110-65-30 70-71 131-121 181z m-88 6v-225c-51 2-100 11-146 27 34 79 84 147 145 197 0 0 1 0 1 0z m-176-187c-40 17-76 39-110 65 62 60 142 101 231 116-50-50-91-111-120-181z m18-41c50-17 103-27 158-29v-162h-193c2 67 14 132 35 191z m158-223v-195c-51-1-100-10-146-24-28 66-45 140-46 219h193z m-55-413c-80 13-152 48-211 98 31 22 66 41 102 55 28-58 65-110 109-153z m87-6v192c47-2 91-9 134-22-33-67-78-125-132-170 0 0-1 0-2 0z m164 159c37-14 71-33 103-55-59-51-131-85-211-99 43 44 80 95 108 154z m-17 40c-46 15-95 24-146 25v194h193c-2-78-19-152-47-219z m-146 251v163c55 1 108 11 158 29 21-59 33-124 35-192h-193z m-341 273c37-28 77-53 120-70-22-63-35-131-37-203h-193c4 105 44 200 110 273z m-110-305h193c2-83 19-160 49-230-41-16-79-38-115-63-75 75-123 178-128 293z m742-293c-35 25-74 47-115 63 30 70 47 148 49 230h193c-4-114-52-217-128-292z" horiz-adv-x="1000" />

<glyph glyph-name="configure" unicode="&#xe819;" d="M231 69c-11 0-21 10-21 23s10 23 21 23h115c12 0 21-10 21-23s-9-23-21-23h-115z m0 143c-11 0-21 10-21 23s10 23 21 23h157c12 0 21-10 21-23s-9-23-21-23h-157z m0 155c-11 0-21 10-21 23s10 23 21 23h440c12 0 21-10 21-23s-9-23-21-23h-440z m0 131c-11 0-21 10-21 23s10 23 21 23h440c12 0 21-10 21-23s-9-23-21-23h-440z m422-360c0 0 2 0 2 0 8 3 14 3 19 0 7 0 14-2 18-4 7-3 12-7 16-12v0c7-7 12-12 14-21 5-7 5-16 5-23 0-9 0-16-5-25-2-7-7-14-14-21-4-7-11-12-20-14v0c-8-4-17-4-23-4-10 0-17 0-26 4-7 3-14 7-21 14v0c-4 5-9 9-11 16-10 21-7 22-7 40l-74 69c-5 2-7 7-9 11-3 5-3 10-3 14v0c0 5 0 9 3 14s4 9 7 12v0c2 4 7 7 11 7 5 2 10 2 14 2s9 0 14-2v0c5-3 9-5 12-7v0 0l78-70z m76-46c0 0 0-2 0-2 0-7 0-14 0-19 0-7-3-13-7-18v0c-3-5-7-12-12-16-7-7-14-12-21-14-7-3-16-5-25-5s-16 3-23 5c-7 2-14 7-21 14-7 7-12 13-14 21-2 7-4 16-4 25s2 16 4 23c3 7 7 14 14 21v0c5 4 9 9 16 11 5 3 12 5 19 7 7 0 13 0 18 0v0c0 0 2 0 2 0l33 33c4 2 7 4 11 7s9 2 14 2c5 0 9 0 14-2v0c4-3 7-5 11-7v0c3-5 5-8 7-12s3-9 3-14v0c0-4 0-9-3-14v0c-7-15-25-33-36-46z m-74 217c-57 0-110-23-150-62-39-37-62-90-62-148s23-108 62-147c40-37 93-62 150-62s110 22 150 62c39 36 62 90 62 147s-23 109-62 148c-40 36-92 62-150 62z m-180-30c47 46 111 74 180 74 71 0 134-28 180-74 46-46 73-109 73-178s-27-131-73-177c-47-47-111-74-180-74-71 0-134 27-180 74-46 46-73 108-73 177s27 132 73 178z m279 435h-136v-51c0-16-7-30-16-39-9-11-23-16-39-16v0 0h-230c-10 0-19 2-26 7-14 7-21 21-25 37-5 13-5 27-5 41 0 7 0 14 3 23h-127c-5 0-7-2-9-4-3-3-5-5-5-9v-703c0-3 3-8 5-10 2-2 7-4 9-4v0h279c-7 11-12 23-17 37-9 25-13 50-13 78 0 69 27 131 73 177s111 74 180 74c25 0 53-4 76-12 12-4 23-9 34-13v373c0 3-2 7-4 9-3 3-7 5-9 5v0h2z m-164 44h164c16 0 30-7 39-16 12-9 17-23 17-39v0-452l-35 23c-18 11-37 21-57 27-21 7-42 9-65 9-58 0-110-22-150-62-39-36-62-90-62-147 0-23 5-44 12-65s18-41 30-57l25-35h-361c-17 0-30 7-39 16-12 10-17 23-17 40v703c0 16 7 30 17 39s25 16 39 16h159c2 9 7 16 14 23 9 12 23 16 39 16h14c4 12 11 23 20 32 14 14 32 21 53 21s39-7 53-21c9-9 16-18 21-32h14c16 0 30-7 39-16 7-7 12-14 14-23h4z m-57-5h-48l-3 19c0 9-4 18-12 23s-13 9-22 9c-10 0-17-5-23-9-7-7-12-14-12-23l-3-19h-48c-2 0-7-2-7-4-2-3-5-7-5-9v-44c0-5 3-7 5-9 3-3 5-5 7-5v0h173c3 0 7 3 7 5 3 2 5 7 5 9v44c0 4-3 7-5 9-2 2-4 4-7 4v0h-2z" horiz-adv-x="1000" />

<glyph glyph-name="advanced" unicode="&#xe81a;" d="M651 197l19 19c8 8 33-3 55-24l245-246c22-22 33-47 24-55l-19-19c-8-9-33 2-55 24l-245 245c-22 22-33 47-24 56z m-10 485v0c-61 61-148 102-244 102-97 0-184-38-245-102v0c-61-62-102-149-102-245 0-96 38-184 102-244v0c61-62 149-103 245-103 96 0 183 38 244 103v0c62 61 102 148 102 244 0 96-38 184-102 245z m-244 151c110 0 207-44 281-115v0c70-71 115-171 115-281 0-110-45-207-115-281v0c-71-71-171-115-281-115-111 0-208 44-281 115v0c-71 71-116 171-116 281 0 111 45 208 116 281v0c71 71 171 115 281 115z" horiz-adv-x="1000" />

<glyph glyph-name="geography" unicode="&#xe81b;" d="M500 850c-276 0-500-224-500-500s224-500 500-500c276 0 500 224 500 500s-224 500-500 500z m435-484h-194c-1 72-14 140-37 202 44 19 84 43 121 71 65-73 106-168 110-273z m-453-451c-54 45-99 103-132 170 43 14 88 21 134 23v-193c-1 0-1 0-2 0z m36 870c61-51 110-119 144-198-46-16-95-25-146-26v224c1 0 2 0 2 0z m54-6c89-15 168-56 231-116-34-26-71-48-110-65-30 70-71 131-121 181z m-88 6v-225c-51 2-100 11-146 27 34 79 84 147 145 197 0 0 1 0 1 0z m-176-187c-40 17-76 39-110 65 62 60 142 101 231 116-50-50-91-111-120-181z m18-41c50-17 103-27 158-29v-162h-193c2 67 14 132 35 191z m158-223v-195c-51-1-100-10-146-24-28 66-45 140-46 219h193z m-55-413c-80 13-152 48-211 98 31 22 66 41 102 55 28-58 65-110 109-153z m87-6v192c47-2 91-9 134-22-33-67-78-125-132-170 0 0-1 0-2 0z m164 159c37-14 71-33 103-55-59-51-131-85-211-99 43 44 80 95 108 154z m-17 40c-46 15-95 24-146 25v194h193c-2-78-19-152-47-219z m-146 251v163c55 1 108 11 158 29 21-59 33-124 35-192h-193z m-341 273c37-28 77-53 120-70-22-63-35-131-37-203h-193c4 105 44 200 110 273z m-110-305h193c2-83 19-160 49-230-41-16-79-38-115-63-75 75-123 178-128 293z m742-293c-35 25-74 47-115 63 30 70 47 148 49 230h193c-4-114-52-217-128-292z" horiz-adv-x="1000" />

<glyph glyph-name="customer" unicode="&#xe81c;" d="M285 226c14 0 25-11 25-25s-11-26-25-26c-81 0-167-74-210-147-12-21-21-42-24-61-2-16-2-30 3-41 9-19 32-30 76-30h792c16 0 25 7 28 18 4 12 4 26 0 44-3 19-10 39-19 60-34 77-108 158-192 158-14 0-25 12-25 25s11 26 25 26c107 0 195-95 236-185 12-26 19-51 24-72 4-25 2-49-3-67-11-33-34-53-74-53h-792c-65 0-104 23-120 57-9 21-12 47-7 75 5 23 16 51 30 76 51 86 155 171 252 171v0-2z m215 625c81 0 155-39 209-104 53-62 86-148 86-243s-33-180-86-243c-54-65-127-104-209-104-80 0-155 39-208 104-53 63-86 148-86 243s33 181 86 243c53 65 127 104 208 104z m172-134c-44 53-104 86-172 86s-127-33-171-86c-44-53-71-129-71-210 0-84 27-158 71-213 44-54 104-86 171-86s128 32 172 86c44 53 71 129 71 213s-28 157-71 210z" horiz-adv-x="1000" />

<glyph glyph-name="reject" unicode="&#xe81d;" d="M500 810c-254 0-460-206-460-460s206-460 460-460c254 0 460 206 460 460s-206 460-460 460z m0-867c-225 0-407 182-407 407s182 407 407 407c225 0 407-182 407-407s-182-407-407-407z m202 623c12 12 31 12 43 0l7-7c12-12 12-31 0-44l-423-423c-12-12-32-12-44 0l-7 7c-12 12-12 31 0 44l424 423z" horiz-adv-x="1000" />

<glyph glyph-name="test" unicode="&#xe81e;" d="M732 850h73v-1000h-83v1000z m-182-348h74v-652h-83v652z m-179 230h74v-882h-83v882z m-166-463h73v-419h-83v419z" horiz-adv-x="1000" />

<glyph glyph-name="format_painter" unicode="&#xe81f;" d="M299 213c13 0 114 0 208 0 79-1 163-1 196-1v0c5 0 9 0 11 0 31 0 57 5 61 57 0 1 0 5 0 8s0 6 0 7c-4 53-31 57-60 58-8 0-48 1-106 1 1 115 15 212 24 234 20 28 30 61 30 96 1 102-58 170-146 171h-1c-87 0-146-68-146-169 0-36 10-70 30-99 14-37 18-120 13-233-60 0-105 0-113 0-31 0-57-5-61-57 0-1 0-5 0-8s0-6 0-7c4-53 31-58 60-58v0z m-39 71c3 37 14 39 40 39 2 0 6 0 12 0 21 0 61 0 110-1v0c6 0 10 4 11 10 3 71 7 198-14 253 0 1-1 2-1 3-18 25-28 55-28 87 0 73 39 148 126 148h1c76 0 126-59 125-150 0-30-9-60-27-85-1-1-1-1-2-2-10-26-26-131-25-254 0-6 4-10 10-10 55 0 107 0 115-1 26 0 37-2 40-38 0-2 0-5 0-5 0-1 0-1 0-1 0-1 0-4 0-6-3-36-14-38-40-38-1 0-5 0-10 0v0c-33 0-118 0-197 1-94 0-194 0-207 0-26 1-37 2-39 39 0 0-1 4-1 5 0 0 0 1 0 1 0 1 0 3 1 5v0z m552-427l-55 328c-1 5-5 9-11 9l-479 1c-5 0-9-3-10-8l-59-329c0-3 1-6 2-8 3-3 5-4 8-4l80-1c4 0 7 2 9 5 2-3 5-5 9-5l196 0c3 0 5 1 7 2 2-1 4-2 7-2l196-1c4 0 7 2 9 5 2-3 6-5 9-5l72-1c0 0 0 0 0 0 6 0 10 5 10 11 0 1 0 2 0 3v0z m-72 8l-8 55c-1 5-5 9-11 9v0c-5 0-9-4-10-9l-8-55-177 1-6 81c0 5-5 9-10 9v0c-5 0-10-4-10-9l-7-81-178 1-7 53c-1 5-5 9-11 9v0c-5 0-9-4-10-9l-7-54-59 1 55 308 462-2 52-308h-50z" horiz-adv-x="1000" />

<glyph glyph-name="fullscreen" unicode="&#xe820;" d="M917-149h-831c-47 0-84 38-84 84v831c0 47 38 84 84 84h831c47 0 84-37 84-84v-831c0-47-38-84-84-84z m-831 967c-28 0-51-23-51-51v-832c0-28 23-51 51-51h831c28 0 51 23 51 51v832c0 28-23 51-51 51h-831z m832-303v239h-241v-41h171l-187-186 29-29 187 187v-170z m-240-580h240v241h-41v-171l-187 186-28-28 187-188h-171z m-579 580v239h241v-41h-171l186-186-28-29-187 187v-170z m239-580h-239v241h41v-171l186 186 29-28-187-188h170z" horiz-adv-x="1000" />

<glyph glyph-name="applicationmanagement" unicode="&#xe821;" d="M235 9c-14 0-25 11-25 23s11 23 25 23h528c13 0 25-10 25-23s-12-23-25-23h-528z m0 173c-14 0-25 11-25 23s11 23 25 23h528c13 0 25-10 25-23s-12-23-25-23h-528z m0 173c-14 0-25 10-25 23s11 23 25 23h528c13 0 25-11 25-23s-12-23-25-23h-528z m625 363h-131v77c0 3-3 5-5 7-2 3-7 5-11 5s-10-3-12-5c-3-2-5-4-5-7v-77h-108v77c0 3-3 5-5 7-2 3-7 5-11 5s-10-3-12-5c-2-2-5-4-5-7v-77h-108v77c0 3-2 5-4 7-3 3-8 5-12 5s-10-3-12-5c-2-2-4-4-4-7v-77h-109v77c0 3-2 5-4 7-3 3-7 5-12 5s-10-3-12-5c-2-2-4-4-4-7v-77h-132c-4 0-9-3-12-5-2-3-4-5-4-7v-799c0-2 2-4 4-7 3-2 8-4 12-4v0h721c4 0 9 2 11 4 3 3 5 5 5 7v0 799c0 2-3 4-5 7-2 2-7 5-11 5v0z m-86 42h79c18 0 34-7 46-18 14-12 21-27 21-46v0-781c0-19-7-35-21-47-12-11-28-18-46-18v0h-705c-19 0-35 7-47 18-13 12-21 28-21 47v781c0 18 8 34 21 46 12 12 28 18 47 18h78v26c0 18 7 34 21 46 11 12 27 18 46 18 18 0 35-7 46-18 14-12 21-27 21-46v-26h5v26c0 18 7 34 20 46 12 12 28 18 47 18 18 0 34-7 46-18 14-12 21-27 21-46v-26h4v26c0 18 7 34 21 46 12 12 28 18 46 18 19 0 35-7 47-18 13-12 21-27 21-46v-26h4v26c0 18 7 34 21 46 12 12 27 18 46 18 19 0 35-7 46-18 14-12 21-27 21-46v-26z m-539-235c-14 0-25 11-25 23s11 23 25 23h528c13 0 25-10 25-23s-12-23-25-23h-528z" horiz-adv-x="1000" />

<glyph glyph-name="customize" unicode="&#xe822;" d="M23 731h762l215-215v-547h-999v762h23z m744-48h-718v-668h905v481l-187 187z m-631-56h296v-46h-296v46z m0-85h296v-46h-296v46z m0-86h296v-46h-296v46z m0-83h296v-46h-296v46z m0-85h296v-46h-296v46z m0-86h296v-46h-296v46z m0-83h296v-46h-296v46z m354 508h212v-46h-212z m0-84h212v-46h-212z m0-86h295v-46h-295z m0-84h295v-46h-295z m0-84h295v-46h-295z m0-86h295v-45h-295z m0-84h295v-46h-295z m480 365h-208c-14 0-23 11-23 23v201c0 13 12 22 23 22 7 0 14-2 18-7l206-198c9-10 9-23 0-35-5-5-12-7-16-7v0 0z" horiz-adv-x="1000" />

<glyph glyph-name="manage" unicode="&#xe823;" d="M880 721h-71v71c0 16-6 29-16 39s-24 17-39 17h-636c-15 0-29-7-39-17s-16-23-16-39v-762c0-16 6-30 16-40s24-16 39-16h72v-71c0-16 6-29 16-39s24-17 39-17h635c16 0 30 7 40 17s16 23 16 39v762c0 16-6 30-16 40s-24 16-40 16z m-770-691v770h651v-778h-651v8z m770-135h-643v79h516c16 0 30 6 40 16s16 24 16 40v643h79v-778h-8l0 0z m-673 337h440c8 0 16-3 22-8 6-4 9-11 9-19s-4-14-9-19c-6-5-14-8-22-8h-440c-9 0-17 3-22 8-6 4-9 12-9 19s4 14 9 19c6 5 14 8 22 8v0z m440-1h-440c-9 0-17-3-22-7-6-5-9-12-9-19s3-14 9-19c6-4 14-7 22-7h440c8 0 16 3 22 7 6 5 9 12 9 19s-4 14-9 19c-6 4-14 7-22 7z m-440 146h440c8 0 16-3 22-7 6-5 9-12 9-20s-4-14-9-19c-6-4-14-8-22-8h-440c-9 0-17 3-22 8-6 4-9 12-9 19s4 14 9 19c6 5 14 8 22 8v0z m440 0h-440c-9 0-17-3-22-8-6-4-9-11-9-19s3-13 9-18c6-5 14-8 22-8h440c8 0 16 3 22 8 6 4 9 11 9 18s-3 14-9 19c-6 5-14 8-22 8z m-440 146h440c8 0 16-3 22-8 6-5 9-12 9-19s-4-14-9-19c-6-5-14-8-22-8h-440c-9 0-17 3-22 8-6 4-9 11-9 19s4 14 9 19c6 5 14 8 22 8z m440-1h-440c-9 0-17-3-22-7-6-5-9-12-9-19s3-14 9-19c6-4 14-7 22-7h440c8 0 16 3 22 7 6 5 9 12 9 19s-3 14-9 19c-6 4-14 7-22 7z m-314 180h313c9 0 17-3 22-7 6-5 10-12 10-20s-4-14-10-19c-5-4-13-7-22-7h-313c-9 0-17 3-23 7-5 5-9 12-9 19s4 15 9 20c6 4 14 7 23 7z m314 0h-314c-9 0-17-3-22-8-6-4-9-11-9-19s3-13 9-18c6-5 14-8 22-8h314c8 0 16 3 22 8 6 4 9 11 9 18s-3 14-9 19c-6 5-14 8-22 8z" horiz-adv-x="1000" />

<glyph glyph-name="obj403" unicode="&#xe824;" d="M235 9c-14 0-25 11-25 23s11 23 25 23h528c13 0 25-10 25-23s-12-23-25-23h-528z m0 173c-14 0-25 11-25 23s11 23 25 23h528c13 0 25-10 25-23s-12-23-25-23h-528z m0 173c-14 0-25 10-25 23s11 23 25 23h528c13 0 25-11 25-23s-12-23-25-23h-528z m625 363h-131v77c0 3-3 5-5 7-2 3-7 5-11 5s-10-3-12-5c-3-2-5-4-5-7v-77h-108v77c0 3-3 5-5 7-2 3-7 5-11 5s-10-3-12-5c-2-2-5-4-5-7v-77h-108v77c0 3-2 5-4 7-3 3-8 5-12 5s-10-3-12-5c-2-2-4-4-4-7v-77h-109v77c0 3-2 5-4 7-3 3-7 5-12 5s-10-3-12-5c-2-2-4-4-4-7v-77h-132c-4 0-9-3-12-5-2-3-4-5-4-7v-799c0-2 2-4 4-7 3-2 8-4 12-4v0h721c4 0 9 2 11 4 3 3 5 5 5 7v0 799c0 2-3 4-5 7-2 2-7 5-11 5v0z m-86 42h79c18 0 34-7 46-18 14-12 21-27 21-46v0-781c0-19-7-35-21-47-12-11-28-18-46-18v0h-705c-19 0-35 7-47 18-13 12-21 28-21 47v781c0 18 8 34 21 46 12 12 28 18 47 18h78v26c0 18 7 34 21 46 11 12 27 18 46 18 18 0 35-7 46-18 14-12 21-27 21-46v-26h5v26c0 18 7 34 20 46 12 12 28 18 47 18 18 0 34-7 46-18 14-12 21-27 21-46v-26h4v26c0 18 7 34 21 46 12 12 28 18 46 18 19 0 35-7 47-18 13-12 21-27 21-46v-26h4v26c0 18 7 34 21 46 12 12 27 18 46 18 19 0 35-7 46-18 14-12 21-27 21-46v-26z m-539-235c-14 0-25 11-25 23s11 23 25 23h528c13 0 25-10 25-23s-12-23-25-23h-528z" horiz-adv-x="1000" />

<glyph glyph-name="process" unicode="&#xe825;" d="M0 684h1000v-127h-1000v127z m0-270h1000v-127h-1000v127z m0-271h1000v-127h-1000v127z" horiz-adv-x="1000" />

<glyph glyph-name="Area" unicode="&#xe826;" d="M100 243l68 119 79-72 118 141 182-156 353 317v-189l-366-229-161 158-140-114-65 60-76-135z m0-133l68 119 66-113 131 182 144-185 393 229v-89l-393-203-144 118-131-116-66 72-68-76v62z m390-170v0z m-390 73l68 52 66-49 131 78 144-79 393 149v-224h-802z m-55 761c0 16 13 29 30 29 15 0 29-13 29-29v-819h822c16 0 29-13 29-29s-13-29-29-29h-881v877z" horiz-adv-x="1000" />

<glyph glyph-name="Barometer" unicode="&#xe827;" d="M597 79v-199h-281v199z m0 299v-263h-281v264z m-281 442h281v-106h-281z m0-185l281-1v-220h-281c0 13 0 277 0 221z m0 55h288l79 85 1-186-80 70-288 1z" horiz-adv-x="1000" />

<glyph glyph-name="Composite" unicode="&#xe828;" d="M193 309h144v-95c-12 1-23-2-33-10l-112-91v196z m144-196v-148h-144v35l140 116 4-3z m74 396h145v-104c-1-2-2-4-3-7l-86-272-56 41v342z m145-392v-153h-145v95l54-39c19-14 46-10 60 10 3 3 5 8 7 12v0l23 75v0z m74 627h145v-288l-11-22-134-4v314z m145-397v-385h-145v381l145 4z m-719 453c0 16 13 30 29 30 16 0 29-13 29-30v-818h822c17 0 29-13 29-29s-12-29-29-29h-880v876z" horiz-adv-x="1000" />

<glyph glyph-name="custom-menu" unicode="&#xe829;" d="M583 350c0-46-37-83-83-83s-83 37-83 83c0 46 37 83 83 83s83-37 83-83z m0 292c0-46-37-84-83-84s-83 38-83 84c0 46 37 83 83 83s83-37 83-83z m0-584c0-46-37-83-83-83s-83 37-83 83c0 46 37 84 83 84s83-38 83-84z" horiz-adv-x="1000" />

<glyph glyph-name="Menu" unicode="&#xe82a;" d="M291 782c0 16-13 28-28 28h-193c-16 0-29-12-29-28v-193c0-16 13-29 29-29h193c16 0 29 13 29 29v193z m334 0c0 16-13 28-29 28h-192c-16 0-29-12-29-28v-193c0-16 13-29 29-29h192c16 0 29 13 29 29v193z m333 0c0 16-13 28-28 28h-193c-16 0-29-12-29-28v-193c0-16 13-29 29-29h193c16 0 29 13 29 29v193z m-667-336c0 16-13 29-28 29h-193c-16 0-29-13-29-29v-192c0-16 13-29 29-29h193c16 0 29 13 29 29v192z m334 0c0 16-13 29-29 29h-192c-16 0-29-13-29-29v-192c0-16 13-29 29-29h192c16 0 29 13 29 29v192z m333 0c0 16-13 29-28 29h-193c-16 0-29-13-29-29v-192c0-16 13-29 29-29h193c16 0 29 13 29 29v192z m-695-306h-193c-15 0-28-13-28-29v-193c0-16 13-29 28-29h193c16 0 29 13 29 29v193c0 16-13 29-29 29z m333 0h-192c-16 0-29-13-29-29v-193c0-16 13-29 29-29h192c16 0 29 13 29 29v193c0 16-13 29-29 29z m334 0h-192c-16 0-29-13-29-29v-193c0-16 13-29 29-29h192c16 0 29 13 29 29v193c0 16-13 29-29 29z" horiz-adv-x="1000" />

<glyph glyph-name="StackBar" unicode="&#xe82b;" d="M45 774c0 16 13 29 30 29 15 0 29-13 29-29v-819h822c16 0 29-13 29-29s-13-29-29-29h-881v877z m254-749h-206v144h206z m-104 437h-102v145h102z m155 0h-136v145h136z m227 0h-209v145h209z m-348-217h-136v145h136z m173 0h-154v145h154z m329 0h-310v145h310z m-207-220h-206v144h206z m379 0h-360v144h360z" horiz-adv-x="1000" />

<glyph glyph-name="StackColumn" unicode="&#xe82c;" d="M45 774c0 16 13 29 30 29 15 0 29-13 29-29v-819h822c16 0 29-13 29-29s-13-29-29-29h-881v877z m719-633v-206h-144v206z m-437-103v-103h-145v103z m0 154v-136h-145v136z m0 228v-210h-145v210z m216-348v-137h-144v137z m0 172v-153h-144v153z m0 330v-311h-144v311z m221-208v-206h-144v206z m0 380v-361h-144v361z" horiz-adv-x="1000" />

<glyph glyph-name="drag-01" unicode="&#xe82d;" d="M170 388v130l-170-170 170-170v130h660v-130l170 170-170 170v-130z" horiz-adv-x="1000" />

<glyph glyph-name="next2" unicode="&#xe82e;" d="M592 307c22 22 22 62 0 84l-15 17-338 338c-17 17-23 44-14 65 9 22 32 38 56 38 16 0 32-7 43-18l440-440c22-22 22-63 0-85l-440-441c-22-22-63-22-85 0-22 22-22 63 0 85l338 338 15 19z" horiz-adv-x="1000" />

<glyph glyph-name="palettesstylestab-01" unicode="&#xe82f;" d="M848 703c26 0 48-21 48-48v-612c0-27-21-49-48-49h-694c-27 0-49 21-49 49v612c0 26 22 48 49 48h694z m0 105h-694c-85 0-153-69-153-153v-612c0-85 69-153 153-153h694c84 0 152 69 152 153v612c0 85-68 153-152 153v0z m-432-328v-70h-176v70h176z m352 0v-70h-176v70h176z m-352-183v-71h-176v71h176z m352 0v-71h-176v71h176z" horiz-adv-x="1000" />

<glyph glyph-name="screenstemplatestab" unicode="&#xe830;" d="M572 63h393c19 0 35 16 35 36v500c0 20-15 36-35 36h-929c-20 0-36-16-36-36v-500c0-19 16-36 36-36h536z m357 72h-857v428h857v-428z m0 214l-87-87c-11-11-20-8-20 8v50h-643v-50c0-16-9-20-20-8l-87 87 87 87c11 11 20 7 20-8v-51h643v51c0 15 9 19 20 8l87-87z" horiz-adv-x="1000" />

<glyph glyph-name="previous" unicode="&#xe831;" d="M410 391c-22-22-22-62 0-84l15-17 338-338c17-16 22-44 13-65-8-22-32-38-56-38-15 0-32 7-42 18l-441 441c-22 22-22 62 0 84l440 440c22 22 63 22 85 0 22-22 22-62 0-85l-338-338-15-18z" horiz-adv-x="1000" />

<glyph glyph-name="and-01" unicode="&#xe832;" d="M685-151h154c22 0 40 18 40 40v722c0 17-9 38-22 49l-194 170c-12 10-32 18-48 18h-453c-23 0-41-18-41-40v-919c0-22 18-40 41-40h523z m89 804h-119v104l119-104z m44-743h-636v878h412v-155c0-23 18-41 40-41h184v-682z" horiz-adv-x="1000" />

<glyph glyph-name="compressfile-01" unicode="&#xe833;" d="M638 417l-158 63-155-63v-229l155-63 158 64v229z m-158 38l123-48-123-49-119 50 119 47z m-131-251v182l119-49v-182l-119 49z m265 0l-122-49v182l122 49v-182z m6 626h-438c-47 0-64-29-64-55v-837c0-35 27-73 64-73h627c35 0 73 27 73 64v667l-263 234z m1-74l190-169h-135c-18 0-55 51-55 76v93z m207-513v-313c-2-3-11-9-18-9h-627c-4 1-10 11-10 18v836c2 0 5 1 9 1h398v-112c0-42 48-118 96-118h151v-303z m-19-395h-628c-48 0-81 47-81 90v837c0 36 25 73 81 73h445l274-243v-676c0-48-48-82-91-82z m-628 965c-43 0-46-28-46-37v-837c0-26 20-56 46-56h628c26 0 56 21 56 47v659l-252 224h-431z m-2-910l-3 1c-12 4-21 21-21 34v850l13 3c3 1 8 2 13 2h415v-130c0-33 43-100 79-100h169l-1-638c-4-13-21-22-34-22h-630z m11 855v-819c0 0 0-1 0-1h619c0 0 0 0 0 0v590h-134c-58 0-114 85-114 135v95h-371z m667-188h-181c-32 0-73 63-73 93v132l254-226z m-219 147v-54c0-18 29-55 39-58h88l-127 112z" horiz-adv-x="1000" />

<glyph glyph-name="datawatcher-01" unicode="&#xe834;" d="M712 173c5 0 9 4 9 9v22c0 5-4 9-9 9-4 0-9-4-9-9v-22c0-5 4-9 9-9z m134-94h-23c-4 0-8-4-8-9s3-8 8-8h23c4 0 9 3 9 8 0 5-4 9-9 9z m-134-111c-4 0-9-4-9-9v-22c0-5 4-9 9-9 5 0 9 4 9 9v22c0 5-4 9-9 9z m-103 102c0 5-4 9-9 9h-22c-5 0-9-4-9-9s4-8 9-8h22c5 0 9 3 9 8z m-17 60l19-11c2-1 3-1 4-1 3 0 6 1 8 4 2 4 1 9-3 11l-20 12c-4 2-9 0-12-4s0-9 4-11z m171 29c2-1 3-1 5-1 2 0 5 2 7 4l11 20c3 4 1 9-3 11s-9 1-12-3l-11-20c-2-4-1-9 3-11z m69-148l-19 11c-5 3-10 1-12-3-3-4-1-9 3-11l20-12c1-1 3-1 4-1 3 0 6 2 7 4 3 4 1 9-3 12z m-172-29c-4 2-9 0-11-4l-11-19c-3-4-1-9 3-12 1-1 3-1 4-1 3 0 6 1 8 4l11 20c2 4 1 9-3 11z m-48 40l-20-12c-4-2-5-7-3-11 2-3 5-4 8-4 1 0 3 0 4 1l19 11c5 3 6 8 3 12s-7 5-11 3z m36 140c2-3 5-4 8-4 1 0 3 0 4 1 4 3 5 8 3 12l-11 19c-3 5-8 6-12 3s-5-7-3-11l11-20z m57-93c1-3 4-4 7-4 1 0 3 0 4 1l116 65c4 3 5 8 3 12-2 4-7 5-12 3l-115-65c-4-2-6-7-3-11z m70-90c-2 4-7 5-11 3s-6-8-3-12l11-20c2-3 5-4 8-4 1 0 3 1 4 1 4 3 5 8 3 12l-12 20z m-276 32c-29-2-60-3-95-3-196 0-293 39-297 52v106c66-33 198-45 297-45 29 0 61 1 94 3 4 16 9 31 17 46-33-3-70-5-111-5-195 0-293 39-296 52v137c65-33 199-45 296-45 98 0 231 11 297 45v-62c4 0 7 0 12 0 10 0 20-1 30-2v464c0 94-325 95-338 95s-339-1-339-95v-694c0-94 324-95 339-95 5 0 53 0 111 5-7 13-12 27-16 41z m-387 744c2 3 5 4 8 6 3 2 6 3 10 5 3 2 8 3 12 5 28 10 109 35 263 35 149 0 230-23 258-31 30-10 38-19 38-21-2-1-3-1-4-3-1-1-3-2-4-3l0-1c-3-1-4-2-8-4l3-5-5 5c-2-1-5-3-8-3l-2-1c-3-1-6-2-10-4l-3-1c-4-1-7-2-11-4l-5-1c-4-1-8-2-13-3l-6-1c-5 0-10-2-15-2-2-1-6-1-10-3l-10-2c-3 0-7 0-10-2h-2c-4-1-7-1-11-2-4-1-8-1-13-2-4-1-9-1-13-2-4 0-9-1-13-1-5-1-10-1-15-1-3 0-8 0-13 0-5 0-11-1-17-1l-13-1c-7 0-14-1-21-1h-11c-10 0-22 0-34 0-12 0-23 0-34 0h-10c-7 0-14 0-21 1l-13 1c-6 0-11 1-17 1-4 0-9 0-13 0-5 0-10 1-15 1-3 0-8 1-13 1-5 1-8 1-13 2-4 1-8 1-12 2-5 1-8 1-11 2l-7-1c-3 0-6 1-9 1l-10 2c-4 1-8 1-11 2-5 1-10 2-14 3l-6 1c-5 1-9 2-13 3l-5 2c-4 1-8 2-11 4l-4 0c-3 1-6 2-9 3l-3 1c-2 1-5 2-7 4l-1 1c-2 1-5 2-7 4l-1 1c-2 1-3 2-5 3-1 1-2 3-2 3s0 0 3 2z m-5-52c66-34 198-45 296-45 98 0 231 11 297 45v-133c-4-13-100-52-297-52-195 0-293 39-296 52v133z m0-183c66-34 198-46 296-46 98 0 231 12 297 46v-115c-4-13-100-52-297-52-195 0-293 39-296 52v115z m605-671c-122 0-222 99-222 222 0 122 100 222 222 222 122 0 222-100 222-222 0-122-99-222-222-222z m0 404c-100 0-182-82-182-182 0-101 82-182 182-182s182 82 182 182c0 100-82 182-182 182z" horiz-adv-x="1000" />

<glyph glyph-name="deletefile-01" unicode="&#xe835;" d="M624 848h-454c-49 0-66-30-66-57v-867c0-36 28-76 66-76h651c36 0 76 28 76 66v692l-273 242z m1-78l197-175h-139c-20 0-58 53-58 80v95z m215-532v-323c-2-4-12-10-19-10h-650c-3 1-10 11-10 19v866c2 0 5 1 9 1h413v-116c0-44 50-122 100-122h157v-315z m-223-134h-233c-7 0-12 5-12 12v285c0 7 5 12 12 12s12-5 12-12v-273h209v263c0 7 5 12 12 12s12-5 12-12v-275c0-7-6-12-12-12z m48 285h-329c-7 0-12 5-12 12s5 12 12 12h329c7 0 12-5 12-12s-5-12-12-12z m-212-235c-6 0-12 6-12 12v235c0 7 6 12 12 12s12-5 12-12v-235c0-6-5-12-12-12z m95 0c-7 0-13 6-13 12v235c0 7 6 12 13 12s12-5 12-12v-235c0-6-6-12-12-12z m-48 235c-6 0-12 5-12 12v49c0 7 6 13 12 13s13-6 13-13v-49c0-7-6-12-13-12z" horiz-adv-x="1000" />

<glyph glyph-name="export-01" unicode="&#xe836;" d="M816 238c9 10 23 16 37 16 15 0 28-6 37-16 10-9 15-23 15-37v-157c0-44-17-84-46-112v0 0c-29-29-69-47-113-47h-586c-44 0-84 18-112 47s-47 68-47 112v586c0 44 18 84 47 113s68 47 112 47h376c14 0 27-6 37-16s15-23 15-37c0-14-5-28-15-37-10-10-23-15-37-15h-376c-15 0-28-6-38-16-9-10-16-24-16-39v0-586c0-15 7-28 16-38 10-10 23-16 38-16h586c15 0 29 6 39 16v0c9 9 15 23 15 38v157c0 15 6 28 16 37v0z m185 315v-3l-1-2v-3c0-1 0-2 0-3v0-1l-1-2c0-2-1-3-1-4l-1-2 0-1-4-7-1-2-2-3-211-211c-5-5-11-9-17-11v0c-7-3-14-5-20-5s-14 2-21 5v0c-6 2-12 6-17 11v0 0 0c-10 10-15 24-15 37s5 27 15 37v0 0l136 135c-43 5-96 6-151-2-54-8-110-24-161-55-45-28-83-66-113-113-31-48-53-106-67-173-2-12-9-23-18-30v0c-9-7-21-12-33-12-2 0-3 0-6 0-1 0-3 1-5 1h0c-14 3-26 11-33 23v0c-8 11-11 25-8 39 17 82 44 152 82 211 38 59 88 108 147 144 70 42 145 63 215 72 39 4 77 5 111 4l-96 96c-11 11-16 24-16 37s5 27 16 38v0 0 0 0c10 10 24 15 37 15v0c13 0 27-5 37-15v0 0l209-210 1-1 1-1 2-3 0 0v0l2-2 1-2 1-3 1-1v0l1-3 1-3 1-2 0 0 1-1v-1l0-1 0-1 1-2 0-3 1-2v-3z" horiz-adv-x="1000" />

<glyph glyph-name="externalcall-01" unicode="&#xe837;" d="M26-126c-16 16-26 38-26 62v648c0 49 40 89 89 89h648c47 0 88-42 88-89v-648c0-49-39-88-88-88h-648c-24 0-46 9-63 26z m711 710h-649v-648c0 0 0 0 0 0h648v648z m242 244c9-10 9-25 0-34l-489-489c-10-10-25-10-35 0v0c-9 9-9 24 0 33l490 490c9 9 24 9 34 0v0z m-506-545c-11 0-20 4-28 11-15 15-15 40 0 55l489 489c15 15 40 15 55 0 8-7 11-17 11-28s-4-20-11-27l-489-489c-7-8-17-11-27-11z m489 537c-3 0-5-1-7-3l-489-489c-4-4-4-10 0-13 3-3 9-3 13 0l489 489c2 2 3 4 3 7s-1 4-3 7c-1 1-4 2-6 2z m-291-33c-13 0-24 11-24 24v0c0 13 11 24 24 24h291c13 0 24-11 24-24v0c0-13-11-24-24-24h-291z m291-15h-291c-21 0-38 17-38 38s17 39 38 39h291c21 0 38-17 38-39s-17-38-38-38z m-291 48c-5 0-9-5-9-10s4-9 9-9h291c5 0 9 4 9 9s-4 10-9 10h-291z m315-300c0-13-11-24-24-24v0c-14 0-24 11-24 24v290c0 14 10 25 24 25v0c13 0 24-11 24-25v-290z m-24-39c-22 0-39 18-39 39v290c0 22 17 39 39 39s38-17 38-39v-290c0-21-17-39-38-39z m0 339c-5 0-9-5-9-10v-290c0-5 4-9 9-9s9 4 9 9v290c0 5-4 10-9 10z" horiz-adv-x="1000" />

<glyph glyph-name="filetostream-01" unicode="&#xe838;" d="M624 848h-454c-49 0-66-30-66-57v-867c0-36 28-76 66-76h651c36 0 76 28 76 66v692l-273 242z m1-78l197-175h-139c-20 0-58 53-58 80v95z m215-532v-323c-2-4-12-10-19-10h-650c-3 1-10 11-10 19v866c2 0 5 1 9 1h413v-116c0-44 50-122 100-122h157v-315z m-443-127c-5 0-9 1-14 4-8 5-13 14-13 24v289c0 10 5 20 13 25 9 5 20 5 28 0l251-145c9-5 14-15 14-25s-5-19-14-24l-251-145c-4-2-9-4-13-4z m3 298v-251l218 125-218 126z" horiz-adv-x="1000" />

<glyph glyph-name="filewatcher-01" unicode="&#xe839;" d="M712 582h-142c-45 0-91 71-91 110v106h39v-106c0-24 35-72 52-72h142v-38z m-478-303h341v-39h-341v39z m0 120h341v-39h-341v39z m0 119h341v-38h-341v38z m377-575h-505c-35 0-60 36-60 69v786c0 23 16 51 60 51h411l247-219v-395h-26c-94 0-170-76-170-170 0-29 7-58 21-83l22-39z m-513 853v-785c0-6 5-16 9-17h420c-7 23-11 46-11 70 0 114 86 208 196 221v321l-214 191h-392c-4 0-7-1-8-1z m640-631c5 0 8 3 8 8v22c0 5-3 8-8 8s-8-3-8-8v-22c0-5 3-8 8-8z m130-92h-22c-4 0-8-4-8-8s4-9 8-9h22c5 0 9 4 9 9s-4 8-9 8z m-130-108c-5 0-8-4-8-9v-22c0-4 3-8 8-8s8 4 8 8v22c0 5-3 9-8 9z m-100 100c0 4-4 8-8 8h-22c-5 0-9-4-9-8s4-9 9-9h22c4 0 8 4 8 9z m-17 58l19-11c1-1 3-1 4-1 3 0 6 2 7 4 2 4 1 9-3 12l-19 11c-4 2-9 0-11-3-3-5-1-10 2-12z m167 28c1-1 3-1 4-1 3 0 6 2 7 4l11 19c3 5 1 10-3 12-4 2-9 1-11-3l-11-19c-2-4-1-9 3-11z m67-144l-19 11c-4 2-9 0-11-3-2-5-1-10 3-12l19-11c1-1 3-1 4-1 3 0 6 1 7 4 2 4 1 9-3 11z m-167-29c-4 2-9 1-12-3l-11-19c-2-4 0-9 3-11 2-1 3-2 5-2 2 0 5 2 7 4l10 20c3 4 1 9-2 11z m-48 39l-19-11c-4-3-6-8-3-12 2-2 5-4 7-4 2 0 3 0 4 1l19 12c4 2 5 7 3 11s-8 6-11 3z m36 137c2-2 4-4 7-4 1 0 3 0 4 1 4 3 6 8 3 12l-11 19c-3 4-8 5-12 3-4-3-5-8-3-12l11-19z m54-91c2-3 5-4 8-4 1 0 2 1 4 1l112 64c4 2 6 7 4 11-3 4-8 5-12 3l-112-63c-4-2-6-7-4-11z m70-88c-2 5-7 6-12 3s-5-7-3-11l11-19c2-3 5-4 7-4 2 0 3 0 5 1 4 2 5 7 2 12l-11 18z m-62-126c-119 0-216 97-216 216s97 216 216 216c119 0 216-97 216-216s-97-216-216-216z m0 393c-98 0-177-79-177-177s79-177 177-177c97 0 177 79 177 177 0 98-80 177-177 177z" horiz-adv-x="1000" />

<glyph glyph-name="flownotification-01" unicode="&#xe83a;" d="M833 804c-159 90-362 36-453-119l-133-224-248-160 259-146c-46-77-19-176 60-221s181-18 227 59l259-146 18 290 133 225c91 155 37 353-122 443v0z m-481-814c-48 27-64 86-37 133l173-97c-28-47-89-63-136-36v0z m545 404l-132-225-14-217-632 357 186 120 132 224c73 125 236 167 363 95s170-230 97-354v0z" horiz-adv-x="1000" />

<glyph glyph-name="ftp-01" unicode="&#xe83b;" d="M14 287c-9 9-14 21-14 34v354c0 26 22 48 48 48h354c26 0 48-23 48-48v-354c0-26-22-48-48-48h-354c-13 0-25 5-34 14z m388 388h-354v-354c0 0 0 0 0 0h354v354z m163-686c-10 9-15 21-15 34v353c0 27 22 49 49 49h353c26 0 48-23 48-49v-353c0-27-21-48-48-48h-353c-13 0-25 5-34 14z m387 387h-353v-353h353v353z m-484-311h-190c-6 0-12 6-12 13v135c0 7 6 12 12 12s12-5 12-12v-123h178c6 0 12-6 12-12s-6-13-12-13z m-235 112c-4 0-7 1-9 3-5 5-5 13 0 18l48 47c4 5 12 5 17 0l44-43c4-5 4-13 0-17s-13-5-18 0l-35 35-39-40c-3-2-6-4-9-4z m215-158c-3 0-6 1-9 4-4 5-4 12 0 17l35 35-39 40c-5 4-5 12 0 17s12 4 17 0l48-48c4-5 4-13 0-17l-44-44c-3-3-6-4-9-4z m190 667h86v-22h-59v-41h55v-23h-55v-62h-27z m140-23h-42v23h112v-23h-43v-125h-27z m87 21c10 1 23 3 42 3 20 0 34-4 43-12 9-7 15-19 15-33s-5-26-13-34c-11-11-27-16-47-16-5 0-9 1-13 1v-56h-27v146z m27-69c3-1 8-2 13-2 21 0 33 10 33 27 0 17-11 26-30 26-8 0-13-1-15-1v-50z" horiz-adv-x="1000" />

<glyph glyph-name="htmltopdf-01" unicode="&#xe83c;" d="M554 429c3 1 6 1 8-1l81-73c3-3 3-8 0-11l-80-72c-1-2-3-3-5-3-5 0-8 4-8 8 0 0 0 0 0 0v38h-68c-4 0-8 4-8 8v54c0 4 4 7 8 7h68v39c0 3 2 5 4 7z m11-23v-30c0-2-1-3-2-5-2-1-4-2-6-2h-68v-39h68c2 0 4-1 6-2 1-1 2-3 2-5v-30l62 56-62 56z m-567-8v-112h20v49h47v-49h21v112h-21v-45h-47v45h-20z m136-112h20v95h32v17h-84v-17h32v-95z m164 0h20l-6 112h-27l-15-45c-4-13-8-26-11-38h-1c-3 12-6 25-10 38l-15 45h-26l-8-111h19l3 45c1 15 2 33 2 47h0c3-14 7-29 12-43l15-48h15l17 49c5 14 9 29 13 42h0c0-15 1-32 2-46l2-46z m44 0h66v17h-45v95h-21v-112z m379 1h20v42c3-1 7-1 10-1 15 0 27 4 36 12 6 6 9 15 9 25 0 11-4 20-11 25-7 6-17 9-32 9-14 0-24-1-32-2v-110z m20 96c2 0 7 0 12 0 14 0 22-6 22-19 0-13-9-20-24-20-4 0-8 0-10 1v38z m76-96c7-1 16-2 28-2 21 0 39 5 50 16 10 9 18 24 18 44 0 19-7 32-18 41-10 9-25 13-45 13-12 0-24-1-33-2v-110z m21 95c2 1 7 1 13 1 26 0 40-14 40-38 0-29-16-43-42-43-4 0-9 0-11 1v79z m95-95h21v47h41v17h-41v31h44v16h-65v-111z" horiz-adv-x="1000" />

<glyph glyph-name="loop" unicode="&#xe83d;" d="M973 803c-20 4-39-8-43-27l-28-123c-84 142-238 232-406 232-262 0-473-211-473-470 0-22 16-38 36-38 21 0 37 16 37 38 0 218 179 398 400 398 143 0 274-76 346-199l-121 27c-20 4-39-10-45-29-4-20 10-39 29-43l207-45c4 0 8 0 12 0 6 0 12 2 16 6 7 6 13 13 15 23l45 207c4 20-8 39-27 43z m-37-342c-20 0-36-17-36-37 4-107-35-209-107-287-72-78-172-123-279-127-4 0-8 0-12 0-141 0-268 72-342 190l127-34c20-5 39 6 45 26 6 19-6 39-25 45l-205 54c-10 2-20 2-28-3-9-4-15-12-17-22l-55-205c-6-20 6-39 25-45 2 0 6-2 10-2 16 0 29 12 35 27l30 116c88-135 236-219 400-219 4 0 10 0 16 0 125 4 242 56 328 150 86 92 131 211 127 338 0 20-18 35-37 35z" horiz-adv-x="1000" />

<glyph glyph-name="insertuserteams-01" unicode="&#xe83e;" d="M845 209h-54c-13 0-24-11-24-24v-62h-9c-3 0-7-1-10-2-3-1-6-3-8-6-4-4-7-10-7-17 0-6 2-12 7-16l60-66c4-5 11-8 18-8 7 0 13 3 17 8l60 66c5 4 7 10 7 16s-3 12-7 17c-2 3-5 5-8 6-3 1-7 2-10 2h-9v62c0 13-10 24-24 24v0z m5-99c0-3 3-5 6-5h22c4 0 6-3 6-6 0-1 0-3-1-4l-60-66c-3-2-7-2-9 0l-60 66c-1 1-1 3-1 4 0 3 2 6 5 6h22c4 0 6 2 6 5v75c0 3 3 5 6 5h54c3 0 5-2 5-5v-75z m-117-11c0 6 3 12 7 17 2 2 5 4 8 6 3 1 7 2 10 2h9v61c0 14 11 25 24 25h54c14 0 25-12 25-25v-61h8c4 0 7-1 10-2s6-4 8-6c4-5 7-11 7-17 0-6-2-12-6-17l-60-66c-5-5-12-8-19-8s-13 3-18 8l-60 66c-4 5-7 11-7 17z m137 86c0 13-11 25-25 25h-53c-14 0-25-11-25-25v-62h-9c-3 0-6 0-10-2-3-1-5-3-8-5-4-5-6-11-6-17s2-12 6-16l60-66c5-5 11-8 18-8s13 3 18 8l60 66c4 5 6 10 6 16 0 6-2 12-7 17-2 2-5 4-7 5s-7 2-10 2h-9v62z m-117-86c0 3 2 6 5 6h22c3 0 6 2 6 5v75c0 3 2 5 6 5h53c4 0 6-2 6-5v-75c0-3 3-5 6-5h22c4 0 6-3 6-6 0-1-1-3-2-4l-60-66c-1-1-3-2-4-2s-4 1-4 2l-60 66c-1 1-2 3-2 4z m98 86c0 3-3 5-6 5h-53c-3 0-6-2-6-5v-75c0-3-2-5-6-5h-22c-3 0-5-3-5-6 0-1 0-2 1-4l60-65c1-2 3-2 4-2s3 1 5 2l60 65c0 1 1 3 1 4 0 3-2 6-5 6h-22c-4 0-6 2-6 5v75z m-198-105h-401c11 142 130 253 274 253 78 0 148-33 198-85 13 8 27 15 41 20-38 44-88 77-146 95 55 37 92 108 92 188 0 120-83 218-186 218-90 0-165-76-182-176-24 44-66 73-114 73-76 0-137-72-137-160 0-53 23-101 57-129-87-33-150-117-150-216 0-12 10-22 22-22h197c-7-26-11-53-11-81 0-12 10-22 22-22h438c-7 14-12 28-14 44z m-127 646c78 0 142-78 142-175s-64-174-142-174c-78 0-142 78-142 174s64 175 142 175z m-167-270c16-39 41-71 73-93-20-6-39-14-57-24-20 17-42 30-67 39 24 19 41 46 50 78z m-222 51c0 64 41 116 92 116s93-52 93-116c0-64-42-115-93-115s-92 51-92 115z m-92-323c11 92 90 164 184 164 39 0 76-12 106-34-44-34-80-79-102-130h-188z m927-75c0 42-17 81-45 109s-67 45-109 45c-43 0-81-18-109-45v0c-28-28-45-67-45-109s17-81 45-109c28-28 66-45 109-45s81 17 109 45c28 28 45 66 45 109z m-26 128c33-33 54-78 54-128s-21-96-54-129v0c-33-33-78-53-128-53s-95 20-128 53c-33 33-54 79-54 129s21 95 54 128v0 0c33 33 78 53 128 53s95-20 128-53z" horiz-adv-x="1000" />

<glyph glyph-name="insert-01" unicode="&#xe83f;" d="M1000-52v450c0 20-17 37-37 37s-38-17-38-37v-442h-850v441c0 20-17 37-37 37s-38-17-38-37v-449c0-36 30-66 66-66h867c37 0 66 30 66 66v0z m-1000 0v449c0 21 17 37 38 37s37-16 37-37v-440h850v441c0 21 17 38 38 38s37-17 37-38v-450c0-36-30-66-66-66h-867c-37 0-67 30-67 66z m75 449c0 20-17 36-37 36s-36-16-36-36v-449c0-36 29-66 65-66h867c36 0 66 30 66 66v450c0 20-17 36-37 36-20 0-36-16-36-36v-443h-852v442z m534 418h-211c-53 0-96-43-96-97v-241h-34c-14 0-27-3-40-8-11-5-22-13-30-22-17-18-27-42-27-66 0-24 9-47 25-65l236-258c18-20 44-32 71-32 27 0 53 12 71 32l236 258c16 18 25 41 25 65 0 24-10 48-27 66-8 9-19 16-30 22-13 5-26 8-40 8h-34v241c0 53-43 97-96 97v0z m22-390c0-12 10-22 22-22h86c14 0 22-10 22-22 0-5-1-10-6-14l-235-259c-9-9-24-9-33 0l-236 259c-4 4-6 9-6 14 0 12 9 22 23 22h85c12 0 22 10 22 22v293c0 12 10 22 23 22h211c12 0 22-10 22-22v-293z m-460-44c0 24 9 48 26 66 9 10 19 17 31 22 13 6 26 9 40 9h33v240c0 53 44 97 97 97h211c54 0 97-44 97-97v-240h34c13 0 27-3 39-9 11-5 22-12 31-22 17-18 26-42 26-66 0-24-9-47-25-65l-236-259c-18-20-44-32-71-32s-53 12-71 32l-236 258c-17 18-26 41-26 65z m534 337c0 53-43 96-96 96h-211c-53 0-95-43-95-96v-242h-35c-13 0-27-3-39-8-11-5-22-13-31-22-16-18-25-41-25-66 0-24 8-47 25-64l235-259c18-19 44-31 71-31 27 0 53 11 71 31l236 259c16 17 25 40 25 64 0 25-9 48-26 66-9 9-19 17-31 22-12 5-25 8-39 8h-34v242z m-460-337c0 11 9 23 23 23h85c12 0 22 9 22 21v293c0 13 10 23 23 23h211c12 0 22-10 22-23v-293c0-12 10-21 22-21h86c14 0 22-12 22-23 0-6-2-11-6-15l-235-258c-5-5-11-8-17-8s-13 3-17 8l-236 258c-3 4-5 9-5 15z m386 337c0 12-10 22-22 22h-211c-12 0-22-10-22-22v-293c0-12-10-22-22-22h-86c-13 0-22-12-22-22 0-6 2-11 6-15l236-258c4-5 10-7 16-7 6 0 11 2 16 7l235 258c4 4 6 9 6 15 0 10-8 22-21 22h-86c-13 0-23 10-23 22v293z" horiz-adv-x="1000" />

<glyph glyph-name="loggers-01" unicode="&#xe840;" d="M901 848h-450c-21 0-37-17-37-38s16-37 37-37h442v-851h-441c-20 0-37-16-37-37s17-37 37-37h449c36 0 66 30 66 66v867c0 37-30 66-66 66v0z m0-1000h-449c-21 0-37 17-37 38s16 37 37 37h441v850h-442c-21 0-38 17-38 38s17 37 38 37h450c37 0 67-30 67-66v-867c0-37-30-67-67-67z m-449 74c-20 0-36-16-36-36s16-36 36-36h449c36 0 65 29 65 65v867c0 36-29 66-65 66h-450c-20 0-37-17-37-37 0-20 16-36 37-36h442v-853h-441z m-418 535v-211c0-53 44-96 96-96h242v-35c0-13 3-26 8-39 5-11 13-22 22-31 18-16 41-26 66-26 24 0 47 9 65 25l259 236c20 18 31 44 31 71 0 27-11 53-31 71l-259 236c-18 16-41 25-65 25-24 0-48-10-66-27-9-8-17-19-22-31-5-12-8-25-8-39v-34h-242c-52 0-96-43-96-96v0z m389 22c12 0 22 10 22 22v86c0 13 11 22 23 22 5 0 10-1 14-6l258-235c10-9 10-24 0-33l-258-236c-4-4-9-6-14-6-12 0-23 9-23 22v87c0 12-10 22-22 22h-293c-12 0-22 10-22 22v211c0 12 10 22 22 22h293z m45-460c-25 0-49 9-67 26-9 9-16 19-22 31-5 13-8 26-8 39v34h-241c-53 0-96 44-96 97v211c0 53 43 97 96 97h241v34c0 13 3 27 8 39 6 11 13 22 22 31 18 17 42 26 67 26 24 0 47-9 65-25l258-236c20-18 32-44 32-71s-12-53-32-72l-258-235c-18-17-41-26-65-26z m-338 534c-53 0-95-43-95-96v-211c0-53 43-96 95-96h242v-34c0-13 3-27 8-39 5-12 13-22 22-31 18-16 41-26 66-26 24 0 47 9 64 25l259 236c19 18 31 44 31 71 0 27-11 53-31 71l-259 236c-17 16-40 25-64 25-25 0-48-9-66-26-9-9-17-19-22-31-5-12-8-25-8-39v-34h-242z m338-460c-11 0-23 9-23 22v87c0 12-10 21-22 21h-293c-12 0-22 10-22 23v211c0 13 10 23 22 23h293c12 0 22 9 22 21v86c0 14 11 23 23 23 5 0 10-2 15-6l258-236c4-4 7-10 7-17s-2-12-7-16l-258-236c-5-4-10-6-15-6z m-338 386c-12 0-22-10-22-22v-211c0-12 10-22 22-22h293c12 0 22-10 22-22v-87c0-13 12-21 22-21 6 0 11 2 15 6l258 235c5 5 7 10 7 16 0 7-2 12-7 16l-258 236c-4 4-9 6-15 6-10 0-22-9-22-22v-86c0-12-10-22-22-22h-293z" horiz-adv-x="1000" />

<glyph glyph-name="movefile-01" unicode="&#xe841;" d="M625 848h-454c-49 0-66-30-66-57v-867c0-36 28-76 66-76h651c36 0 76 28 76 66v692l-273 242z m1-78l197-175h-140c-19 0-57 53-57 80v95z m214-532v-323c-1-4-11-10-19-10h-650c-3 1-10 11-10 19v866c2 0 5 1 9 1h413v-116c0-44 50-122 100-122h157v-315z m-232 263c5 3 11 2 15-2l160-144c6-6 6-17 0-22l-158-143c-2-3-7-5-12-5-8 0-15 7-14 15 0 0 0 0 0 0v76h-135c-8 0-14 7-14 15v106c0 8 6 14 14 14h135v77c0 6 3 11 9 13z m20-46v-58c0-4-2-8-4-11-3-3-7-4-11-4h-134v-77h134c4 0 8-1 11-4 2-3 4-6 4-10v-58l123 111-123 111z m-249-428c-6-2-11-1-16 3l-159 144c-6 5-6 16 0 21l157 143c3 3 7 5 12 5 8 0 15-6 15-14v0-77h134c8 0 15-7 15-14v-106c0-8-7-15-15-15h-134v-77c0-5-4-11-9-13z m-21 46v59c0 3 2 7 5 10 2 3 6 4 10 4h135v77h-135c-4 0-8 2-10 4-3 3-5 7-5 11v58l-123-111 123-112z" horiz-adv-x="1000" />

<glyph glyph-name="or" unicode="&#xe842;" d="M500-151c-22 0-42 8-57 24l-419 419c-32 32-32 83 0 114l419 419c30 31 84 31 114 0l419-419c32-31 32-83 0-114l-419-419c-15-15-35-24-57-24z m0 919l-419-419 419-419c0 0 0 0 0 0l419 419-419 419z m158-408c0 43-18 83-46 111-29 29-68 47-112 47-43 0-83-18-112-47-28-28-46-68-46-111 0-44 18-83 46-112 29-28 68-46 112-46 43 0 83 17 112 46 28 28 46 68 46 112z m-8 149c38-38 62-91 62-149s-24-112-62-150c-38-38-91-62-150-62s-111 24-149 62c-38 38-62 91-62 150s24 111 62 149c38 39 91 62 149 62s112-23 150-62z" horiz-adv-x="1000" />

<glyph glyph-name="parallel" unicode="&#xe843;" d="M685-151h154c23 0 41 18 41 40v722c0 17-10 38-22 49l-194 170c-12 10-33 18-49 18h-453c-22 0-40-18-40-40v-919c0-22 18-40 40-40h523z m89 804h-119v104l119-104z m45-743h-637v878h412v-155c0-23 18-41 41-41h184v-682z" horiz-adv-x="1000" />

<glyph glyph-name="pass" unicode="&#xe844;" d="M500-151c-22 0-42 8-57 24l-419 419c-32 32-32 83 0 114l419 419c30 31 84 31 114 0l419-419c32-31 32-83 0-114l-419-419c-15-15-35-24-57-24z m0 919l-419-419 419-419c0 0 0 0 0 0l419 419-419 419z m-154-596c-7 0-13 3-19 8-10 10-10 28 0 38l308 307c10 11 27 11 38 0s10-27 0-37l-308-308c-5-5-12-8-19-8z m308 0c-7 0-14 3-19 8l-308 308c-10 10-10 27 0 37s28 11 38 0l308-307c10-10 10-28 0-38-6-5-13-8-20-8z" horiz-adv-x="1000" />

<glyph glyph-name="payments2" unicode="&#xe845;" d="M999 233l-68 437c-6 43-43 74-86 74-4 0-9-1-14-1l-681-106c-37-5-64-31-72-64-45-5-78-41-78-87v-442c0-49 38-87 88-87h690c49 0 87 38 87 87v80l61 9c23 4 44 16 57 35s20 42 16 65z m-165-114v-75c0-32-25-57-57-57h-690c-32 0-57 25-57 57v441c0 28 20 51 45 56 4 1 8 1 12 1h691c31 0 56-25 56-57v-366z m124 67c-9-12-22-20-38-22l-55-9v331c0 49-39 87-88 87h-155c-5 16-22 27-38 25l-156-25h-317c7 17 23 30 43 34l682 105c3 1 6 1 9 1 28 0 51-20 55-48l68-437c2-15-1-30-10-42z m-413 248c0 18-15 34-33 34h-384c-3 0-6-1-9-2-14-4-25-18-25-32 0-18 16-34 34-34h383c18 0 34 16 34 34z m100-284c0 8-1 16-3 24-10 49-52 86-103 91-3 0-6 0-9 0-63 0-115-50-115-113 0-24 7-46 19-64 7-10 16-20 26-27 19-15 43-24 70-24 39 0 74 19 95 49 7 10 12 22 15 34 3 10 5 20 5 30z m18 115c-10 0-16 0-23-2 21-23 37-52 43-85 1-9 2-18 2-28 0-8-1-16-2-24-1-11-4-22-7-32-8-22-20-41-36-57 7-2 16-2 23-2 48 0 90 30 107 73 4 11 6 22 7 33 1 3 1 6 1 9 0 29-11 56-30 76-20 24-51 39-85 39z" horiz-adv-x="1000" />

<glyph glyph-name="pdftotiff" unicode="&#xe846;" d="M482 440c3 1 6 0 9-2l91-82c3-3 3-9 0-13l-90-81c-2-2-4-4-7-4-5 0-9 4-8 9 0 0 0 0 0 0v43h-77c-5 0-9 4-9 9v61c0 4 4 8 9 8h77v44c0 3 2 6 5 7z m11-27v-33c0-2 0-5-2-6s-4-3-6-3h-77v-44h77c2 0 4-1 6-2s2-4 2-6v-34l71 64-71 64z m-495-135h23v48c3-1 7-1 11-1 16 0 31 4 40 13 7 7 11 17 11 29 0 12-5 22-13 28-7 7-20 10-37 10-15 0-27-1-35-2v-125z m23 109c2 0 7 1 13 1 16 0 26-8 26-22 0-15-10-23-28-23-4 0-8 0-11 1v42z m85-108c8-1 18-2 32-2 24 0 44 6 57 17 12 11 19 28 19 50 0 22-7 37-19 46-12 10-28 15-52 15-14 0-27-1-37-2v-125z m23 107c4 1 9 2 16 2 29 0 45-16 45-44 0-32-18-49-48-49-5 0-10 0-13 1v90z m109-108h23v54h46v19h-46v35h50v19h-73v-127z m457 0h23v107h36v20h-95v-20h36v-107z m78 127v-127h23v127h-23z m53-127h23v54h46v19h-46v35h50v19h-73v-127z m99 0h23v54h47v19h-47v35h50v19h-73v-127z" horiz-adv-x="1000" />

<glyph glyph-name="pool-01" unicode="&#xe847;" d="M600 48h363c20 0 37 17 37 37v525c0 21-17 38-37 38h-925c-21 0-38-17-38-38v-525c0-20 17-37 38-37h562z m325 75h-850v450h850v-450z m-861 254h872l1-59h-873z m255 239v-536l-59-1v537z" horiz-adv-x="1000" />

<glyph glyph-name="readfromdatasource2-01" unicode="&#xe848;" d="M901 315v380c1 8-6 53-65 88-58 35-163 66-366 66-202 0-308-31-366-66-58-35-65-79-65-88v-700c-1-10 10-50 67-77 58-28 162-53 364-53 61 0 113 2 157 6 19-4 38-6 58-6 153 0 278 124 278 277 0 66-23 126-62 173v0z m-431-389c-197 0-294 25-336 47-21 11-31 20-33 24-1 1 0 1 0 2v611c1-1 2-2 3-2 58-35 163-66 366-66 203 0 308 31 366 66 1 0 2 2 4 2v-238c-45 30-97 47-154 47-153 0-277-124-277-277 0-87 40-165 102-215-13-1-26-1-41-1v0z m215 0c-119 0-215 97-215 215 0 119 97 215 215 216 119 0 215-97 216-216 0-119-97-215-216-215v0z m124 308c-15 15-41 15-56 0l-153-152c-1-2-1-3-1-4l-6-54c0-4 2-6 6-6l54 6c1 0 3 1 4 1l151 152c16 16 16 41 0 56z" horiz-adv-x="1000" />

<glyph glyph-name="sequencial-01" unicode="&#xe849;" d="M892-82h-53v79h53c15 0 28 13 28 29h80c0-60-49-108-108-108z m-148 0h-160v79h160v-79z m-255 0h-160v79h160v-79z m-255 0h-126c-18 0-35 4-51 13l38 70c4-2 8-4 13-4h125v-79z m-154 130h-80v160h80v-160z m920 40h-79v160h79v-160z m-920 215h-80v160h80v-160z m920 40h-79v160h79v-160z m-920 215h-80v111c0 26 10 51 27 71l60-52c-3-4-7-10-7-18v-111z m920 40h-79v71c0 13-8 24-21 27l22 77c46-13 79-56 79-104v-71z m-185 100h-159v79h159v-79z m-255 0h-159v79h159v-79z m-255 0h-159v79h159v-79z" horiz-adv-x="1000" />

<glyph glyph-name="swimlane-01" unicode="&#xe84a;" d="M600 48h363c21 0 38 17 38 37v525c0 21-17 38-38 38h-925c-20 0-37-17-37-38v-525c0-20 17-37 37-37h563z m326 75h-850v450h850v-450z m-862 254h873v-59h-873z m256 239v-536l-59-1v537z" horiz-adv-x="1000" />

<glyph glyph-name="switch-01" unicode="&#xe84b;" d="M14 287c-9 9-14 21-14 34v354c0 26 22 48 48 48h354c26 0 48-23 48-48v-354c0-26-22-48-48-48h-354c-13 0-25 5-34 14z m388 388h-354v-354c0 0 0 0 0 0h354v354z m163-686c-10 9-15 21-15 34v353c0 27 22 49 49 49h353c26 0 48-23 48-49v-353c0-27-21-48-48-48h-353c-13 0-25 5-34 14z m387 387h-353v-353c0 0 0 0 0 0h353v353z m-484-311h-190c-6 0-12 6-12 13v135c0 7 6 12 12 12s12-5 12-12v-123h178c6 0 12-6 12-12s-6-13-12-13z m-235 112c-4 0-7 1-9 3-5 5-5 13 0 18l48 47c4 5 12 5 17 0l44-43c4-5 4-13 0-17s-13-5-18 0l-35 35-39-40c-3-2-6-4-9-4z m215-158c-3 0-6 1-9 4-4 5-4 12 0 17l35 35-39 40c-5 4-5 12 0 17s12 4 17 0l48-48c4-5 4-13 0-17l-44-44c-3-3-6-4-9-4z m190 667h85v-22h-58v-41h55v-23h-55v-62h-27z m140-23h-42v23h112v-23h-43v-125h-27z m87 21c10 1 23 3 42 3 20 0 34-4 43-12 9-7 15-19 15-33s-5-26-13-34c-11-11-27-16-47-16-5 0-9 1-13 1v-56h-27v146z m27-69c3-1 8-2 13-2 21 0 33 10 33 27 0 17-11 26-30 26-8 0-13-1-15-1v-50z" horiz-adv-x="1000" />

<glyph glyph-name="task-01" unicode="&#xe84c;" d="M957 735c-18 18-47 18-65 0l-268-268c-18-18-47-18-65 0l-105 105c-18 18-47 18-65 0l-29-29c-18-18-18-47 0-65l199-199c18-18 47-18 65 0l363 363c18 18 18 47 0 65l-29 29z m-695-585c0-25-21-46-47-46h-17c-25 0-46 21-46 46v5c0 25 21 46 46 46h17c26 0 47-21 47-46v-5z m0 188c0-26-21-47-47-47h-17c-25 0-46 21-46 47v4c0 26 21 46 46 46h17c26 0 47-20 47-46v-4z m0 187c0-26-21-47-47-47h-17c-25 0-46 21-46 47v4c0 26 21 46 46 46h17c26 0 47-20 47-46v-4z m441-450c0-25-21-46-46-46h-530c-25 0-46 21-46 46v530c0 25 21 46 46 46h530c25 0 46 0 46 0s15 14 32 32l16 16c18 18 33 33 33 33s-21 0-46 0h-693c-25 0-46-21-46-47v-692c0-25 21-46 46-46h693c25 0 46 21 46 46v287c0 25-15 31-33 13l-16-16c-17-18-32-53-32-79v-124z" horiz-adv-x="1000" />

<glyph glyph-name="transportfile-01" unicode="&#xe84d;" d="M624 848h-454c-49 0-67-30-67-57v-867c0-36 29-76 67-76h650c36 0 76 28 76 66v692l-272 242z m1-78l197-175h-140c-19 0-57 53-57 80v95z m214-532v-323c-1-4-11-10-19-10h-649c-4 1-10 11-10 19v866c2 0 5 1 9 1h412v-116c0-44 51-122 100-122h157v-315z m-584 213c-2 6-1 12 3 16l144 159c6 7 16 7 22 0l142-157c4-3 6-7 6-12 0-8-7-15-15-14 0 0 0 0 0 0h-77v-135c0-8-6-15-14-15h-106c-8 0-15 7-15 15v135h-76c-6 0-11 3-14 8z m47 21h58c4 0 8-2 10-4 3-3 5-7 5-11v-134h76v134c0 4 2 8 4 11 3 2 7 4 11 4h58l-111 123-111-123z m428-249c2-6 1-12-3-16l-144-159c-5-7-16-7-22 0l-142 157c-4 3-6 7-6 12 0 8 7 15 15 14 0 0 0 0 0 0h77v135c0 8 6 14 14 14h106c8 0 15-6 15-14v-135h76c6 0 12-3 14-8z m-47-21h-58c-4 0-7 2-10 4-3 3-5 7-5 11v134h-76v-134c0-4-2-8-4-11-3-2-7-4-11-4h-58l111-123 111 123z" horiz-adv-x="1000" />

<glyph glyph-name="uncompressfile-01" unicode="&#xe84e;" d="M494 126c-2 0-4 0-5 1l-122 75c-3 2-4 5-4 8v138c0 5 3 9 8 9s9-4 9-9v-134l114-69 127 72v131c0 5 4 9 9 9s8-4 8-9v-136c0-4-1-7-4-8l-136-77c-2-1-3-1-5-1z m2 0c-5 0-8 4-8 9v233c0 5 3 9 8 9s9-4 9-9v-233c0-5-4-9-9-9z m-66 178c-2 0-4 1-5 1l-132 81c-3 2-4 4-4 7s1 6 4 8l72 45c3 2 7 2 9 1l131-71c2-1 4-4 4-7s-1-6-3-7l-71-56c-2-1-3-2-5-2z m-115 90l114-70 56 44-115 61-55-35z m257-90c-2 0-4 1-6 2l-71 56c-2 1-3 4-3 7s2 6 5 7l129 71c3 1 6 1 9-1l73-45c2-2 4-5 4-8s-2-5-4-7l-132-81c-1 0-3-1-5-1z m-55 64l56-44 114 70-57 35-113-61z m113 62c-1 0-2 0-3 0l-131 48-123-48c-4-1-9 1-11 5s1 10 5 12l126 48c2 0 4 0 6 0l134-48c5-2 7-7 5-12-1-3-4-5-8-5z m-5 418h-455c-48 0-66-30-66-57v-867c0-36 29-76 66-76h651c36 0 76 28 76 66v692l-272 242z m1-78l197-175h-140c-19 0-57 53-57 80v95z m214-532v-323c-1-4-11-10-19-10h-649c-4 1-10 11-10 19v866c1 0 5 1 9 1h412v-116c0-44 51-122 100-122h157v-315z" horiz-adv-x="1000" />

<glyph glyph-name="uploadfile" unicode="&#xe84f;" d="M624 848h-454c-49 0-67-30-67-57v-867c0-36 29-76 67-76h650c36 0 76 28 76 66v692l-272 242z m1-78l197-175h-140c-19 0-57 53-57 80v95z m214-532v-323c-1-4-11-10-19-10h-650c-3 1-10 11-10 19v866c2 0 5 1 10 1h412v-116c0-44 51-122 100-122h157v-315z m-497 55c-2 6-1 12 3 16l144 159c5 7 16 7 21 0l143-157c3-3 5-7 5-12 0-8-6-15-14-14 0 0 0 0 0 0h-77v-135c0-8-7-15-14-15h-106c-8 0-15 7-15 15v135h-77c-5 0-10 3-13 8z m46 21h59c3 0 7-2 10-4 3-3 4-7 4-11v-134h77v134c0 4 2 8 4 11 3 2 7 4 11 4h58l-111 123-112-123z" horiz-adv-x="1000" />

<glyph glyph-name="verifyfile-01" unicode="&#xe850;" d="M624 848h-454c-49 0-67-30-67-57v-867c0-36 29-76 67-76h650c36 0 76 28 76 66v692l-272 242z m1-78l197-175h-140c-19 0-57 53-57 80v95z m214-532v-323c-1-4-11-10-19-10h-650c-3 1-10 11-10 19v866c2 0 5 1 10 1h412v-116c0-44 50-122 100-122h157v-315z m-190 219c-14 11-35 8-46-7l-155-206-55 54c-13 13-33 13-46 0-12-12-12-33 0-45l108-108 200 267c11 14 8 34-6 45z" horiz-adv-x="1000" />

<glyph glyph-name="wait-01" unicode="&#xe851;" d="M752 464c18 13 62 43 62 117v152h21c10 0 17 7 17 17v81c0 9-8 17-17 17h-669c-9 0-17-8-17-17v-81c0-10 8-17 17-17h21v-155c0-73 22-90 61-114l171-104v-44c-43-26-155-93-170-104-19-13-62-43-62-117v-131h-21c-9 0-17-8-17-17v-81c0-10 8-17 17-17h669c10 0 17 8 17 17v81c0 10-8 17-17 17h-21v134c0 72-22 90-61 113l-171 104v45c43 25 156 93 170 103v0z m-217-192l186-113c14-9 22-14 25-19 4-7 7-21 7-42v-133h-503v130c0 42 20 56 35 66 12 9 115 71 182 111 9 6 15 16 15 26v80c0 11-6 21-15 27l-186 113c-14 8-21 13-25 19-4 6-6 20-6 41v155h503v-152c0-41-21-55-36-66-12-8-115-70-182-110-9-5-15-16-15-27v-79c0-11 6-21 15-27v0z" horiz-adv-x="1000" />

<glyph glyph-name="xor-01" unicode="&#xe852;" d="M500-151c-22 0-42 8-57 24l-420 419c-31 32-31 83 0 114l420 419c30 31 83 31 114 0l419-419c32-31 32-83 0-114l-419-419c-16-15-36-24-57-24z m0 919l-420-419 420-419c0 0 0 0 0 0l419 419-419 419z m-154-596c-7 0-14 3-19 8-11 10-11 28 0 38l307 307c11 11 28 11 38 0s11-27 0-37l-307-308c-6-5-12-8-20-8z m307 0c-7 0-13 3-19 8l-307 308c-11 10-11 27 0 37s27 11 38 0l307-307c11-10 11-28 0-38-5-5-12-8-19-8z" horiz-adv-x="1000" />

<glyph glyph-name="approval2" unicode="&#xe853;" d="M862 831c-13 12-30 19-48 19h-628c-37 0-68-29-68-64v-872c0-35 31-64 68-64h628c37 0 68 29 68 64v872c0 17-7 33-20 45z m-52-909h-620v856h620v-856z m-422 290c8-7 18-11 29-11 11 0 22 4 30 12l233 222c16 16 18 40 4 55-6 6-15 9-25 9-11 0-23-4-31-12l-212-202c0 0-2 0-2 0l-44 38c-8 7-19 11-30 11s-20-4-26-11c-13-15-10-39 7-54l67-56z" horiz-adv-x="1000" />

<glyph glyph-name="bargraph" unicode="&#xe854;" d="M945-42h-890c-30 0-55-24-55-53s24-54 55-54h890c30 0 55 24 55 54s-25 53-55 53z m-766 87c29 0 53 25 53 54v194c0 30-24 54-53 54-30 0-54-24-54-54v-194c0-29 24-54 54-54z m321 0c30 0 53 25 53 54v445c0 30-24 54-53 54-30 0-54-24-54-54v-445c0-29 24-54 54-54z m321 0c30 0 54 25 54 54v696c0 30-24 54-54 54s-53-24-53-54v-696c0-29 24-54 53-54z" horiz-adv-x="1000" />

<glyph glyph-name="blog" unicode="&#xe855;" d="M281 620h439v-55h-439v55z m0-127h439v-55h-439v55z m0-128h439v-55h-439v55z m658 485h-871c-25 0-48-30-48-55v-651c0-26 19-46 44-46l680-1 236-247v945c0 25-16 55-41 55z m-22-821l-124 131h-710v623h834v-754z" horiz-adv-x="1000" />

<glyph glyph-name="book2" unicode="&#xe856;" d="M986 823c-8 7-18 10-30 10h-2l-452-161-457 161h-1c-24 0-44-16-44-37v-736c0-20 18-30 42-37l455-156 33 11h1l16 6 411 139c25 11 42 17 42 38v735c0 11-5 21-14 28z m-350-181l280 102v-640l-374-132v632l94 38z m-553 102l282-102 95-38v-656l-92 32-285 112v652z m324-254l-275 109v-62l275-109z m0-157l-275 109v-62l275-109z m0-157l-275 110v-62l275-109z m459 423l-275-104v-62l275 104z m0-157l-275-103v-62l275 103z m0-218v62l-275-103v-63z" horiz-adv-x="1000" />

<glyph glyph-name="cards" unicode="&#xe857;" d="M907 674c-11 10-25 16-40 16h-150v107c0 14-6 28-17 38s-25 15-40 15h-527c-32 0-57-24-57-53v-732c0-30 25-54 57-54h150v-107c0-29 25-54 57-54h527c31 0 57 25 57 54v732c0 14-6 28-17 38z m-771-604v720h520v-100h-317c-31 0-56-24-56-54v-565h-148z m580 560h147v-720h-520v719h373z" horiz-adv-x="1000" />

<glyph glyph-name="collape" unicode="&#xe858;" d="M71 421h358v358l-108-108-178 179-143-143 179-178z m786-571l143 143-179 178 107 108h-357v-357l107 107z" horiz-adv-x="1000" />

<glyph glyph-name="document2" unicode="&#xe859;" d="M945 707h-88v87c0 26-11 56-37 56h-782c-26 0-38-30-38-56v-783c0-26 12-47 38-47h77v-78c0-26 22-36 48-36h782c26 0 55 10 55 36v782c0 26-29 39-55 39z m-823-46v-635h-58v769h735v-96h-629c-25 0-48-12-48-38z m822-746h-762v721h762v-721z m-609 546h457v-57h-457v57z m0-172h457v-57h-457v57z m0-171h457v-57h-457v57z" horiz-adv-x="1000" />

<glyph glyph-name="expand" unicode="&#xe85a;" d="M357 850h-357v-357l107 107 179-179 143 143-179 179z m357-571l-143-143 179-179-107-107h357v357l-107-107z" horiz-adv-x="1000" />

<glyph glyph-name="grid" unicode="&#xe85b;" d="M320 411h-192c-69 0-125 55-125 124v191c0 69 56 124 125 124h192c69 0 125-55 125-124v-191c0-68-56-124-125-124z m-192 362c-26 0-47-21-47-47v-191c0-26 21-47 47-47h192c26 0 47 21 47 47v191c0 26-21 47-47 47h-192z m744-362h-192c-69 0-125 55-125 124v191c0 69 56 124 125 124h192c69 0 125-55 125-124v-191c0-68-56-124-125-124z m-192 362c-26 0-47-21-47-47v-191c0-26 21-47 47-47h192c26 0 47 21 47 47v191c0 26-21 47-47 47h-192z m-360-923h-192c-69 0-125 56-125 124v191c0 68 56 124 125 124h192c69 0 125-56 125-124v-191c0-68-56-124-125-124z m-192 362c-26 0-47-21-47-47v-191c0-26 21-47 47-47h192c26 0 47 21 47 47v191c0 26-21 47-47 47h-192z m744-362h-192c-69 0-125 56-125 124v191c0 68 56 124 125 124h192c69 0 125-56 125-124v-191c0-68-56-124-125-124z m-192 362c-26 0-47-21-47-47v-191c0-26 21-47 47-47h192c26 0 47 21 47 47v191c0 26-21 47-47 47h-192z" horiz-adv-x="1000" />

<glyph glyph-name="lock" unicode="&#xe85c;" d="M750 413v187c0 138-112 250-250 250s-250-112-250-250v-187c-52 0-94-43-94-94v-375c0-52 42-94 94-94h500c52 0 94 42 94 94v375c0 51-42 94-94 94z m-437 187c0 103 84 188 187 188s188-85 188-188v-187h-375v187z m468-656c0-17-14-32-31-32h-500c-17 0-31 15-31 32v375c0 17 14 31 31 31h500c17 0 31-14 31-31v-375z m-250 210v71c0 18-14 31-31 31s-31-14-31-31v-71c-19-11-31-31-31-54 0-35 27-62 62-62s63 27 63 62c0 23-13 43-32 54z" horiz-adv-x="1000" />

<glyph glyph-name="mobile3" unicode="&#xe85d;" d="M729 850h-458c-58 0-104-47-104-104v-792c0-57 46-104 104-104h458c58 0 104 47 104 104v792c0 57-46 104-104 104z m-521-208h584v-584h-584v584z m63 166h458c35 0 63-28 63-62v-63h-584v63c0 34 28 62 63 62z m458-916h-458c-35 0-63 28-63 62v63h584v-63c0-34-28-62-63-62z m-187 62c0-23-19-42-42-42s-42 19-42 42c0 23 19 42 42 42s42-19 42-42z m-146 771h208c12 0 21 9 21 21s-9 21-21 21h-208c-12 0-21-9-21-21s9-21 21-21z" horiz-adv-x="1000" />

<glyph glyph-name="pin" unicode="&#xe85e;" d="M838 652c-121 70-227 131-323 186-14 8-28 12-42 12-25 0-49-12-67-33-33-39-34-74-5-120l-124-183c-18 8-36 12-53 12-31 0-58-13-77-38-22-29-31-62-25-93s27-59 58-77c25-14 49-28 74-42l26-15c0-2-1-5-2-7l-56-157c-22-64-45-127-67-191-1-2-2-4-2-5-3-6-5-13-6-21 0-9 4-22 13-27 3-2 8-3 12-3 7 0 14 2 18 4 6 2 10 7 13 11 0 1 1 2 2 3l239 279c4 4 8 8 11 13 10-6 19-11 29-17l1-1c28-16 54-32 81-47 16-8 33-12 51-12 32 0 61 13 79 36 39 49 40 103 2 144-5 6-5 8-2 15l6 17c22 55 44 113 64 170 5 15 9 18 20 18 1 0 2 0 3 0 39-2 74 25 86 69 11 36-6 81-38 99z m-431-464l-155-180 79 223 76-43z m244 44c22-18 24-44 5-72-8-12-24-20-41-20-8 0-16 3-23 7-144 83-273 158-396 230-22 13-26 39-10 68 10 17 24 27 39 27 7 0 13-2 20-4 18-8 29-13 40-13 17 0 26 13 42 36l121 174 58-35c3-2 5-3 8-5 2-1 5-3 7-4 7-4 14-6 19-6 7 0 15 2 22 13 4 6 12 24-12 39-14 8-27 17-40 25-18 11-36 22-54 33-10 7-16 16-18 26-2 11 2 22 10 31 11 13 27 16 42 7 104-60 210-122 315-184 14-8 21-23 17-35-7-20-16-28-33-28-2 0-4 0-6 0-8 1-15 1-20 1-28 0-32-13-43-42-7-19-14-38-21-57l-1-1c-19-52-39-106-60-159-9-22-5-37 12-51z" horiz-adv-x="1000" />

<glyph glyph-name="power" unicode="&#xe85f;" d="M848 478c-41 74-103 132-176 169-23 11-50 1-61-22s-1-52 21-63c58-28 106-74 137-131 86-156 35-355-115-445-49-29-108-42-153-43-52 1-105 14-154 43-150 89-202 289-116 445 32 57 79 103 136 131 23 11 32 39 21 63s-38 33-60 22c-74-37-135-96-175-169-111-201-44-458 149-573 63-37 131-55 199-55 59 0 134 18 197 55 194 115 260 372 149 573z m-348 41c27 0 49 23 49 51v229c0 28-22 51-49 51s-49-23-49-51v-229c0-28 22-51 49-51z" horiz-adv-x="1000" />

<glyph glyph-name="product2" unicode="&#xe860;" d="M920 581c0 0 0 0 0 1 0 1 0 2 0 3 0 0 0 0 0 0-1 2-1 3-2 4 0 0 0 0 0 1 0 0 0 1-1 1 0 1 0 1 0 1 0 1-1 1-1 1-1 1-1 2-2 2 0 0 0 0 0 1-1 1-1 2-2 2 0 0-1 1-1 1-1 1-1 1-2 2 0 0-1 0-1 0 0 1-2 2-3 2 0 0 0 0 0 0l-124 59v38c0 2 0 3-1 4 0 1 0 1 0 1 0 1 0 2 0 3 0 0 0 1 0 1-1 1-1 2-2 3 0 1 0 1 0 1s0 1-1 2c0 0 0 0 0 0 0 1-1 1-1 1-1 1-1 2-2 3 0 0 0 0-1 0 0 1-1 1-2 2 0 0-1 1-1 1 0 1-1 1-2 2 0 0 0 0 0 0-2 1-3 1-4 2 0 0 0 0 0 0l-251 120c-8 4-18 4-25 0l-251-120c-2-1-3-1-4-2 0 0 0 0 0-1-1 0-2-1-3-2 0 0 0 0 0 0-1-1-2-2-2-3 0 0 0 0 0 0-1-1-2-2-3-3 0 0 0 0 0 0 0-1 0-1 0-1-1-1-1-1-1-2 0 0-1 0-1-1 0-1 0-2-1-3 0 0 0 0 0 0 0-1 0-3-1-4 0 0 0 0 0-1 0-1 0-2 0-3v0-39l-124-59c0 0 0 0 0 0-1 0-2-1-3-2 0 0-1 0-1 0 0 0-1-1-2-2 0 0-1 0-1 0 0-1-1-2-2-3 0 0 0 0 0 0-1-1-1-2-2-3 0 0-1-1-1-1 0 0 0 0 0-1 0 0-1-1-1-1s0-1 0-1c-1-1-1-3-1-3 0 0 0-1 0-1-1-1-1-2-1-3 0 0 0 0 0-1 0-1-1-2-1-3v-482c0-11 6-20 15-25l391-217c0 0 0 0 0 0 1 0 2-1 3-1 0 0 1 0 1-1 1 0 2 0 2-1 1 0 1 0 1 0 1 0 2 0 3 0 0 0 0 0 1 0 0 0 2 0 3 0s2 0 3 0c1 0 1 0 1 0 1 0 2 0 3 0 0 0 0 0 0 0 1 1 2 1 3 1 0 0 0 0 0 1 2 0 2 0 4 1 0 0 0 0 0 0l390 217c10 5 15 15 15 25v482c1 1 1 2 1 3z m-140 17l48-23-48-26v49z m-560 0v-49l-47 26 47 23z m251-274v-395l-333 184v415l97-54c0 0 0 0 0 0l236-130v-20z m0 87l-192 106v134l192-106v-134z m29 185l-187 103 187 89 187-89-187-103z m221 55v-134l-192-106v134l192 106z m141-538l-332-184v415l235 130c0 0 0 0 0 0l97 53v-414z" horiz-adv-x="1000" />

<glyph glyph-name="recent" unicode="&#xe861;" d="M80 519c-19 7-37 15-55 22-29 12-33 40-9 60 53 42 107 83 159 124 11 9 23 14 37 8 14-5 19-17 21-32 9-67 19-135 28-202 4-27-18-45-44-36-10 4-19 8-29 12-10 4-19 8-32 13-6-26-15-50-18-75-20-153 27-280 149-374 230-179 570-48 623 237 40 214-98 419-312 459-23 5-47 5-71 7-26 2-44 18-43 42s18 40 44 40c215 1 407-151 458-359 65-267-101-529-371-582-261-51-499 118-554 363-20 89-13 177 16 263 1 3 2 5 3 9z m473 55c0-29 0-58 0-87 0-8 2-11 10-14 59-18 94-70 91-133-3-56-46-105-104-116-24-5-48-3-71 6-8 3-12 2-19-4-32-33-65-66-98-99-12-12-28-17-44-10-16 6-25 18-27 35-2 14 4 25 14 35 33 33 65 66 98 98 6 5 7 10 3 18-28 70 9 147 82 170 8 2 11 6 11 15-1 60-1 119 0 178 0 16 11 27 25 28 15 1 27-9 29-24 1-4 0-8 0-12 0-28 0-56 0-84z m27-224c0 31-25 56-56 55-30 0-54-25-54-55 0-30 25-55 55-55 30 0 55 25 55 56z" horiz-adv-x="1000" />

<glyph glyph-name="tag" unicode="&#xe862;" d="M962 853h-413c-21 0-51-13-66-28l-472-474c-15-15-15-40 0-55l436-438c7-7 17-11 27-11 10 0 19 4 27 11l154 156v109l-181-183-381 383 444 447c3 2 10 5 13 5h373v-375c0-3-3-10-5-13l-108-109v277c23 14 38 39 38 68 0 42-35 77-77 77s-77-35-77-77c0-29 15-54 38-68v-576c0-21 18-39 38-39 22 0 39 17 39 39v190l164 164c15 15 27 45 27 67v415c0 21-17 38-39 38z" horiz-adv-x="1000" />

<glyph glyph-name="trophy" unicode="&#xe863;" d="M842 797c-9 3-19 4-28 6-2 1-4 2-4 5-5 15-18 25-34 26-1 0-3 0-4 0-155 0-120 0-272 0-152 0-117 0-272 0-1 0-3 0-4 0-16-1-29-11-34-26 0-3-2-4-4-5-9-2-19-4-28-6-111-35-177-149-153-263 19-90 91-159 182-175 4-1 6-3 6-6 2-14 5-28 8-42 22-80 71-134 149-162 17-6 34-10 52-15 0-1-1-2-2-4-12-20-23-40-35-60-28-49-56-99-85-148-4-7-7-16-5-25 3-18 17-31 36-31 99 0 93 0 185 0 3 0 5 0 7 0 93 0 87 0 185 0 20 0 34 13 37 31 1 9-1 17-5 25-29 50-57 99-86 148-11 20-23 40-34 60-1 2-2 3-2 4 17 5 35 9 52 15 78 28 127 82 148 162 4 14 6 28 9 42 1 3 1 5 6 6 91 16 162 85 182 175 24 114-43 228-154 263z m-667-349c-25 6-47 17-65 35-25 22-38 49-41 80-6 68 45 142 106 156 0-84 0-187 0-271z m434-510c-58 0-161 0-219 0l110 172 109-172z m133 458c0-168-169-193-241-192v0c-1 0-1 0-1 0s-1 0-2 0v0c-72 0-241 24-241 192 0 114 0 359 0 360 134 0 109 0 241 0 1 0 2 0 3 0 132 0 107 0 241 0 0-1 0-246 0-360z m148 86c-18-17-40-28-65-34 0 83 0 187 0 270 61-14 112-88 106-155-3-32-16-59-41-81z" horiz-adv-x="1000" />

<glyph glyph-name="clock3" unicode="&#xe864;" d="M500 850c-276 0-500-224-500-500s224-500 500-500v0c276 0 500 224 500 500s-224 500-500 500z m0-935v0c-240 0-435 195-436 435 0 240 196 435 436 435s435-195 435-435c0-240-195-435-435-435z m223 679l-207-192c-8 2-16 4-23 4-11 0-22-3-32-8l-138 121c-13 12-33 11-45-3s-10-33 3-45l141-124c-1-4-2-9-2-13 0-19 8-37 21-51 14-14 32-21 51-21s37 7 51 21c20 20 25 47 17 72l207 191c13 12 14 33 2 46-12 13-33 14-46 2z m-225-265c-4-4-8-4-11 0-2 1-2 4-2 5s0 3 2 5c2 2 4 2 5 2s3 0 6-2c2-3 2-7 0-10z" horiz-adv-x="1000" />

<glyph glyph-name="document3" unicode="&#xe865;" d="M275 455h450c17 0 30 14 30 30s-13 30-30 30h-450c-17 0-30-13-30-30s13-30 30-30z m0 136h450c17 0 30 14 30 30 0 17-13 30-30 30h-450c-17 0-30-13-30-30s13-30 30-30z m0-271h450c17 0 30 13 30 30s-13 30-30 30h-450c-17 0-30-14-30-30 0-17 13-30 30-30z m0-136h450c17 0 30 14 30 31s-13 30-30 30h-450c-17 0-30-14-30-30 0-17 13-31 30-31z m0-135h450c17 0 30 14 30 30s-13 30-30 30h-450c-17 0-30-13-30-30s13-30 30-30z m573 801h-696c-15 0-28-12-28-28v-944c0-16 13-28 28-28h696c15 0 28 12 28 28v944c0 16-13 28-28 28z m-28-56v-889h-640v889h640z" horiz-adv-x="1000" />

<glyph glyph-name="member" unicode="&#xe866;" d="M663 287c90 53 150 150 150 261 0 166-136 302-303 302s-302-136-302-302c0-108 56-203 141-256-164-62-281-219-281-405 0-20 17-37 37-37s37 17 37 37c0 198 161 358 358 358 197 0 358-160 358-358 0-20 17-37 37-37s37 17 37 37c0 181-111 336-269 401z m-381 260c0 126 102 228 228 228s228-102 228-228c0-126-103-228-228-228-126 0-228 103-228 228z" horiz-adv-x="1000" />

<glyph glyph-name="not-equal-to" unicode="&#xe867;" d="M260 582c-11 11-28 11-39 0l-213-212c-11-11-11-29 0-40l213-212c5-5 12-8 19-8s15 3 20 8c11 11 11 28 0 39l-193 193 193 193c11 11 11 28 0 40z m732-212l-213 212c-11 11-28 11-39 0s-11-28 0-39l193-193-193-193c-11-11-11-28 0-39 5-5 13-8 20-8s14 3 19 8l213 212c11 11 11 29 0 40z m-309 467c-14 5-30-2-36-16l-355-921c-5-14 2-30 16-36 3-1 7-2 10-2 11 0 22 7 26 18l355 921c5 14-2 30-16 36z" horiz-adv-x="1000" />

<glyph glyph-name="Edit" unicode="&#xe868;" d="M757 491c-9 0-17-8-17-17v-589h-608v804h391c10 0 17 8 17 18s-7 17-17 17h-408c-10 0-18-8-18-17v-839c0-10 8-18 18-18h642c10 0 18 8 18 18v606c0 9-8 17-18 17z m112 326c-44 44-121 44-165 0l-445-446c-4-3-6-7-6-12v-140c0-9 8-17 18-17h140c5 0 9 2 12 5l446 446c46 45 46 119 0 165z m-580-580v79l80-79h-80z m122 7l-115 115 386 386 115-115-386-386z m411 411l-115 115 10 10 115-115-10-10z m34 36l-113 112c31 20 75 16 102-10 27-28 31-70 11-102z" horiz-adv-x="1000" />

<glyph glyph-name="edit_connections" unicode="&#xe869;" d="M253 652h89c-5-35-24-121-102-246l-9-15 13-12c148-149 223-294 234-318v0c1-2 1-3 2-3l21-47 19 48c0 0 1 1 1 2h1v2c11 24 72 154 234 316l13 13-11 15c-75 108-98 203-105 245h95c20 0 37 16 37 37v123c0 21-17 38-37 38h-495c-20 0-37-17-37-38v-123c0-21 17-37 37-37z m247-259c-28 0-51 23-51 51s23 51 51 51c28 0 51-22 51-51s-23-51-51-51z m212 4c-95-97-154-182-190-239v194c42 10 73 47 73 92 0 53-42 96-95 96s-95-43-95-96c0-45 31-82 73-92v-199c-37 61-99 151-191 245 78 129 96 218 99 255h221c6-42 28-140 104-255z m-452 409h480v-109h-480v109z m684-741h-122c-25 0-45-20-45-45v-40h-554v40c0 25-20 45-45 45h-122c-25 0-45-20-45-45v-125c0-25 20-45 45-45h122c25 0 45 20 45 45v40h554v-40c0-25 20-45 45-45h122c24 0 45 20 45 45v125c0 25-20 45-45 45z m-765-170c0 0-1-1-1-1h-122c-1 0-1 1-1 1v125c0 0 0 1 1 1h122c0 0 1-1 1-1v-125z m765 0c0 0 0-1-1-1h-122c0 0-1 1-1 1v125c0 0 1 1 1 1h122c1 0 1-1 1-1v-125z" horiz-adv-x="1000" />

<glyph glyph-name="Linegraph" unicode="&#xe86a;" d="M964-69h-884v881c0 20-20 36-40 36s-40-16-40-36v-928c0-20 20-33 40-33h924c20 0 36 20 36 40s-16 39-36 39z m-757 220c12 0 23 6 30 17l127 190 194-161c8-7 20-10 30-7 11 2 20 9 25 19l225 449c9 17 1 39-17 48s-39 2-48-16l-204-408-189 158c-8 7-19 9-29 8-10-2-19-7-25-16l-149-224c-12-17-7-39 10-50 6-5 13-7 20-7z" horiz-adv-x="1000" />

<glyph glyph-name="Pie" unicode="&#xe86b;" d="M970 344h-473v474c0 16-18 30-34 30-249 0-463-228-463-498 0-265 242-498 517-498 262 0 483 211 483 465 0 17-13 27-30 27z m-452-435c-243 0-454 208-454 441 0 222 163 418 373 436v-466c0-17 5-36 22-36h480c-16-195-201-375-420-375z m70 510h374c16 0 29 14 29 31 0 209-189 393-403 393-17 0-31-13-31-30v-363c0-17 15-31 32-31z m28 363c165-16 298-154 314-304h-314v304z" horiz-adv-x="1000" />

<glyph glyph-name="redo3" unicode="&#xe86c;" d="M860 290c0-198-162-360-360-360-199 0-360 162-360 360 0 195 155 353 349 360v-120l180 160-180 160v-120c-238-6-429-201-429-440 0-242 198-440 440-440s440 198 440 440h-80z" horiz-adv-x="1000" />

<glyph glyph-name="smiley" unicode="&#xe86d;" d="M500 850c-276 0-500-224-500-500s224-500 500-500c276 0 500 224 500 500s-224 500-500 500z m0-906c-224 0-406 182-406 406 0 225 182 406 406 406s406-181 406-406c0-224-182-406-406-406z m-114 577c0-31-26-57-57-57s-57 26-57 57c0 32 25 57 57 57s57-25 57-57z m342 0c0-31-25-57-57-57s-57 26-57 57c0 32 26 57 57 57s57-25 57-57z m-228-371c-73 0-137 39-172 97l-73-44c50-83 141-139 245-139s195 56 245 139l-73 44c-35-58-99-97-172-97z" horiz-adv-x="1000" />

<glyph glyph-name="undo3" unicode="&#xe86e;" d="M140 290c0-198 162-360 360-360 199 0 360 162 360 360 0 195-155 353-349 360v-120l-180 160 180 160v-120c238-6 429-201 429-440 0-242-197-440-440-440s-440 198-440 440h80z" horiz-adv-x="1000" />

<glyph glyph-name="align" unicode="&#xe86f;" d="M934 560h-869c-36 0-65-29-65-65s29-66 65-66h869c36 0 66 29 66 66 0 36-30 65-66 65z m0-289h-869c-36 0-65-29-65-66s29-65 65-65h869c36 0 66 29 66 65s-30 66-66 66z m-259-290h-350c-37 0-66-29-66-65s29-66 66-66h350c37 0 66 30 66 66s-29 65-66 65z m-609 738h869c36 0 65 29 65 65s-29 66-65 66h-869c-36 0-66-30-66-66s30-65 66-65z" horiz-adv-x="1000" />

<glyph glyph-name="cal" unicode="&#xe870;" d="M969 740h-125v32c0 18-14 33-31 33h-94c-17 0-31-15-31-33v-32h-375v32c0 18-15 33-32 33h-93c-18 0-32-15-32-33v-32h-125c-17 0-31-15-31-33v-779c0-18 14-33 31-33h938c17 0 31 15 31 33v779c0 18-14 33-31 33z m-219 13h31v-91h-31v91z m-531 0h31v-91h-31v91z m719-792h-875v714h93v-33c0-18 14-32 32-32h93c17 0 32 14 32 32v33h375v-33c0-18 14-32 31-32h94c17 0 31 14 31 32v33h94v-715z m-639 552h-132c-18 0-33-15-33-34v-137c0-19 15-34 33-34h132c19 0 33 15 33 34v137c0 19-14 34-33 34z m-16-154h-99v102h99v-102z m282 154h-132c-18 0-33-15-33-34v-137c0-19 15-34 33-34h132c19 0 33 15 33 34v137c0 19-14 34-33 34z m-16-154h-99v102h99v-102z m150 154c-18 0-33-15-33-34v-137c0-19 15-34 33-34h132c19 0 33 15 33 34v137c0 19-14 34-33 34h-132z m115-154h-98v102h98v-102z m-515-123h-132c-18 0-33-16-33-34v-137c0-19 15-35 33-35h132c19 0 33 16 33 35v137c0 18-14 34-33 34z m-16-154h-99v102h99v-102z m282 154h-132c-18 0-33-16-33-34v-137c0-19 15-35 33-35h132c19 0 33 16 33 35v137c0 18-14 34-33 34z m-16-154h-99v102h99v-102z m282 154h-132c-18 0-33-16-33-34v-137c0-19 15-35 33-35h132c19 0 33 16 33 35v137c0 18-14 34-33 34z m-16-154h-99v102h99v-102z" horiz-adv-x="1000" />

<glyph glyph-name="document4" unicode="&#xe871;" d="M676 548h-352c-12 0-21 10-21 20 0 12 9 20 21 20h352c12 0 21-9 21-20 0-11-9-20-21-20z m0-158h-352c-12 0-21 9-21 20 0 11 9 20 21 20h352c12 0 21-9 21-20 0-11-9-20-21-20z m0-158h-352c-12 0-21 9-21 20 0 11 9 20 21 20h352c12 0 21-9 21-20 0-12-9-20-21-20z m0-158h-352c-12 0-21 9-21 20 0 11 9 20 21 20h352c12 0 21-9 21-20 0-11-9-20-21-20z m192-224h-736c-23 0-41 18-41 40v888c0 22 19 40 41 40h119c23 0 42-18 42-40 0-22-19-40-42-40h-78v-807h653v807h-78c-23 0-41 17-41 40s18 40 41 40h120c22 0 41-18 41-40v-888c0-22-19-40-41-40z m-198 855h-340c-39 0-71 33-71 73 0 40 32 72 71 72h340c39 0 71-32 71-72s-32-73-71-73z m-340 105c-16 0-29-15-29-32 0-18 13-33 29-33h340c16 0 29 15 29 33 0 17-13 32-29 32h-340z" horiz-adv-x="1000" />

<glyph glyph-name="exclation" unicode="&#xe872;" d="M571-3h-433c-30 0-52 8-59 22s-1 36 16 61c0 1 1 3 2 3l316 580c19 26 42 40 65 40s46-14 65-40l162-298c10-18 33-25 52-15s25 33 15 51l-164 299c-1 2-1 3-2 3-32 48-79 76-128 76v0c-48 0-95-28-128-76 0 0-1-2-1-3l-317-579c-33-49-40-98-19-138 22-40 67-62 127-62h433c20 0 37 17 37 38s-16 38-37 38z m-52 507c0 21-17 38-38 38s-38-17-38-38v-256c0-20 17-38 38-38s38 18 38 38v256z m-6-364c0-17-14-32-32-32s-32 15-32 32c0 18 15 33 32 33s32-15 32-33z m472 174l-88 66c0 0 0 0 0 0l-1 0c0 0 0 0-1 0-3 3-7 5-11 6-1 0-2 1-3 1-1 0-2 1-3 1-3 0-6 0-9-1 0 0-1 0-1 0-5-1-9-2-13-4 0 0-1-1-2-2-3-2-6-4-9-7 0-1-1-1-1-1 0 0 0-1 0-1s-1-1-1-1l-56-84c-12-18-7-41 10-53 18-11 41-6 53 11v0c-9-63-51-121-114-146-35-14-72-16-108-8-21 5-41-8-46-28s8-41 29-45c19-5 38-7 58-7 32 0 64 6 95 18 99 39 161 134 163 234l13-9c7-5 15-8 23-8 11 0 23 6 30 16 13 16 9 40-8 53z" horiz-adv-x="1000" />

<glyph glyph-name="export" unicode="&#xe873;" d="M474 303c-11 2-19 12-19 23 0 5 1 114 84 197 54 55 131 85 227 89v84c0 10 6 19 15 23s20 1 27-6l185-185c8-8 10-21 3-30-1-2-2-3-3-5-8-7-185-184-185-184-7-7-18-9-27-6s-15 13-15 23v85c-6 0-13 0-21 0-70 0-195-12-244-97-4-8-12-13-21-13-2 0-4 1-6 1z m341 334v-49c0-13-11-24-25-24-178 0-245-91-270-161 70 48 165 57 225 57 28 0 47-2 48-2 12-1 22-12 22-24v-49l125 126-125 126z m-30-657h-753c-18 0-32 14-32 31v508c0 17 15 31 32 31h388c18 0 32-14 32-31 0-18-14-31-32-31h-357v-445h691v167c0 18 14 31 31 31 18 0 32-14 32-31v-199c0-17-14-31-32-31z" horiz-adv-x="1000" />

<glyph glyph-name="Fav" unicode="&#xe874;" d="M200-136c-7 0-13 2-19 6-11 7-16 19-15 32l27 294-185 232c-8 10-10 22-6 34s14 19 26 21l286 52 141 281c6 12 17 19 30 19 13 1 25-6 31-17l158-283 298-52c13-2 23-11 27-24 4-12 0-26-9-35l-212-198v-140c0-18-15-34-34-34s-34 16-34 34v154c0 10 4 19 10 25l173 162-246 43c-10 1-19 8-24 17l-135 240-119-239c-5-10-14-17-25-18l-246-45 158-197c6-8 9-16 8-25l-23-244 224 123c9 5 21 6 31 1l284-138c17-8 24-28 16-45s-29-25-46-16l-268 129-265-146c-5-3-11-4-16-4z" horiz-adv-x="1000" />

<glyph glyph-name="icon1" unicode="&#xe875;" d="M871-105h-835c-20 0-36 16-36 36v838c0 20 16 36 36 36h764c20 0 35-17 35-36 0-20-15-36-35-36h-728v-766h763v372c0 20 17 36 36 36 20 0 36-16 36-36v-408c0-20-16-36-36-36z m-422 216c-9 0-18 3-25 10-14 14-14 37-1 51l515 536c14 14 37 15 51 0 14-13 15-36 1-50l-515-536c-7-8-17-12-26-12z" horiz-adv-x="1000" />

<glyph glyph-name="member4" unicode="&#xe876;" d="M719 199c23 22 4 44 4 44-35 32-76 57-120 76 84 50 140 141 140 246 0 157-128 285-285 285s-285-128-285-285c0-102 53-191 133-242-154-58-265-207-265-381 0-20 16-35 35-35s35 15 35 35c0 186 151 337 337 337 85 0 163-31 222-83 0 0 26-20 49 3z m-476 366c0 118 96 215 215 215 118 0 215-97 215-215 0-119-97-215-215-215-119 0-215 96-215 215z m715-546c0 2 0 5-1 7-1 3-3 6-6 8l-138 138c-10 10-26 10-37 0-10-10-10-27 0-37l94-94h-317c-14 0-26-11-26-26s12-25 26-25h317l-96-97c-10-10-10-26 0-36 5-5 12-8 19-8s13 3 18 8l140 140c1 1 2 3 3 3 1 2 2 3 3 5 1 3 2 6 2 9 0 1 0 1 0 1 0 1 0 3-1 3z" horiz-adv-x="1000" />

<glyph glyph-name="message" unicode="&#xe877;" d="M500 631c-186 0-344-100-344-218 0-9 7-16 16-16s16 7 16 16c0 100 145 187 312 187 9 0 16 7 16 15 0 9-7 16-16 16z m0 157c-276 0-500-168-500-375 0-129 87-243 219-310 0-1 0-2 0-3 0-56-42-116-61-148v0c-1-3-2-7-2-11 0-16 12-29 28-29 3 0 8 1 8 1 98 16 190 106 211 132 32-5 64-7 97-7 276 0 500 167 500 375s-224 375-500 375z m0-688c-29 0-58 2-87 7-3 0-7 1-10 1-18 0-36-9-48-23-13-17-51-53-96-80 12 28 21 60 22 92 0 2 1 4 1 6 0 23-14 45-34 56-116 59-185 154-185 254 0 173 196 313 437 313s438-141 438-313c0-172-197-312-438-312z" horiz-adv-x="1000" />

<glyph glyph-name="play" unicode="&#xe878;" d="M500 850c-276 0-500-224-500-500s224-500 500-500c276 0 500 224 500 500s-224 500-500 500z m0-945c-246 0-445 199-445 445s199 445 445 445c246 0 445-199 445-445s-199-445-445-445z m-134 289l268 156-268 156z" horiz-adv-x="1000" />

<glyph glyph-name="rupees" unicode="&#xe879;" d="M757 560h-122c-6 75-38 142-88 193h210c27 0 48 22 48 49s-21 48-48 48h-514c-27 0-48-21-48-48 0-27 21-49 48-49h82c110 0 200-87 213-193h-295c-27 0-48-22-48-49 0-27 21-49 48-49h283c-30-82-108-142-201-142-19 0-37-12-45-30-7-18-3-39 11-53l368-373c9-9 22-14 34-14s25 4 35 14c19 18 19 49 0 68l-303 307c101 34 178 119 203 223h129c27 0 48 22 48 49 0 27-21 49-48 49z" horiz-adv-x="1000" />

<glyph glyph-name="addtofav" unicode="&#xe87a;" d="M163-29c-5 0-10 1-15 5-9 6-13 16-13 26l23 241-152 189c-6 8-8 18-4 28 3 9 12 15 21 18l234 42 116 230c4 9 14 15 24 15 11 1 20-5 25-14l129-231 244-42c10-2 19-9 22-20 3-10 0-21-8-28l-174-162v-114c0-16-12-28-27-28s-28 12-28 28v126c0 8 3 15 8 20l142 133-202 35c-8 1-15 6-19 13l-110 197-98-195c-3-8-11-14-20-15l-201-37 130-161c4-6 6-13 6-20l-19-200 183 101c8 4 17 4 25 1l233-112c14-7 20-24 13-38s-23-20-37-13l-219 106-217-119c-4-3-8-4-13-4z m677-36c-15 0-28 12-28 27v265c0 15 13 28 28 28s28-13 28-28v-265c0-15-13-27-28-27z m132 132h-264c-15 0-28 12-28 28s13 28 28 28h264c16 0 28-13 28-28s-12-28-28-28z" horiz-adv-x="1000" />

<glyph glyph-name="designer" unicode="&#xe87b;" d="M1000 669c-5-9-9-17-14-23-11-12-23-23-34-34-214-214-428-429-643-643-7-7-16-13-26-17-79-32-159-65-238-97-16-6-28-4-37 5-11 11-10 23-5 36 33 81 66 163 100 245 2 7 7 13 13 19 202 203 405 405 608 608 22 22 45 45 68 67 17 18 33 18 50 1 48-48 95-95 142-143 6-6 10-15 16-24z m-115 40c-3-4-5-9-8-13-203-203-406-406-609-609-3-3-6-7-10-10-6-4-13-4-18 1-6 6-7 13-2 20 3 3 7 6 10 9 203 203 407 407 610 611 3 2 6 6 7 7-16 18-32 35-49 52-1-2-3-3-5-4-216-217-433-434-650-650-3-4-6-8-8-13-11-27-22-55-34-83-2-7-2-11 3-16 13-12 26-24 38-38 5-5 9-5 15-3 25 11 51 21 77 32 9 4 18 10 25 16 213 213 426 427 640 640 3 3 6 6 8 9-12 13-25 26-40 41z m-384-608c36 36 71 71 105 107 6 5 11 11 17 16 13 11 30 11 41-1 11-11 12-28 0-41-24-24-49-49-73-73-2-2-4-5-6-7 12-12 24-24 38-37 12 12 25 26 38 39 8 8 21 8 28 0s7-18-1-27c-3-3-6-6-10-9-10-10-20-20-30-30 15-14 29-28 43-42 23 22 46 46 69 69 4 4 8 8 12 12 13 11 29 10 41-1s11-29-1-41c-23-24-47-48-70-71-3-3-7-5-10-8 12-11 22-21 32-31 52 52 105 106 159 160-73 72-146 145-219 218 15 15 29 28 44 43 14-15 30-31 45-48 63-63 126-125 189-188 18-19 18-33-1-52-64-65-128-129-193-193-18-18-33-18-50 0-78 77-155 154-232 232-1 1-3 3-4 5z m-8 497c-14-15-27-28-40-41-73 72-145 145-216 217-55-55-109-108-162-161 8-8 16-16 26-25 14 14 29 30 44 46 11 11 21 21 32 31 14 14 32 14 44 2 11-11 11-30-2-43-24-24-47-47-71-70-2-3-5-6-8-9 12-10 22-20 35-32 9 10 18 20 28 30 3 4 7 7 10 10 9 7 20 7 27 0 8-8 8-19 0-28-9-9-18-18-27-27-5-4-9-7-13-10 17-17 32-32 48-48 1 2 4 4 7 7 23 24 47 47 71 71 9 9 19 11 31 8 11-3 18-11 19-23 0-8-2-18-7-24-40-41-80-81-121-121 0 0-1 0-5-2-17 17-34 36-52 54-58 58-117 117-176 175-18 19-19 34 0 53 65 65 130 130 194 194 16 16 33 16 48 1 78-78 156-155 233-233 1-1 2-2 3-3z" horiz-adv-x="1000" />

<glyph glyph-name="equals2" unicode="&#xe87c;" d="M75 437c-41 0-75 33-75 75 0 41 33 75 75 75h850c42 0 75-34 75-75 0-42-33-75-75-75h-850z m0-323c-41 0-75 33-75 75 0 41 33 75 75 75h850c42 0 75-34 75-75 0-41-33-75-75-75h-850z" horiz-adv-x="1000" />

<glyph glyph-name="excel" unicode="&#xe87d;" d="M778 98h-168l-115 162-121-162h-169l209 264-169 231h171l79-126 85 126h173l-177-231 202-264z m222-226h-1000v956h1000v-956z m-954 50h907v857h-907z m0 0v0 0z" horiz-adv-x="1000" />

<glyph glyph-name="file2" unicode="&#xe87e;" d="M739 785c3 0 6 0 10 0 0-291 0-580 0-870-116 0-451 0-568 0v-65c140 0 499 0 638 0 0 333 0 666 0 1000-6 0-11 0-16 0-134 0-488 0-622 0v-65c113 0 445 0 558 0z m-361-162h248v-45h-248z m0-117h248v-45h-248z m0-117h248v-45h-248z m0-117h248v-45h-248z m0-117h248v-45h-248z m-197-305h76v983h-76z" horiz-adv-x="1000" />

<glyph glyph-name="file1" unicode="&#xe87f;" d="M570-150c-5 0-9 1-13 2-14 6-22 19-22 33v298c0 20 16 35 35 35h254v562h-649v-860h181c19 0 35-16 35-35s-16-35-35-35h-216c-20 0-35 16-35 35v930c0 20 16 35 35 35h719c19 0 35-16 35-35v-632c0-9-3-17-9-23v0 0 0c0 0 0-1 0-1l-290-299c-7-7-16-10-25-10z m35 298v-176l172 176h-172z m-295 488h425v-41h-425z m0-128h425v-40h-425z" horiz-adv-x="1000" />

<glyph glyph-name="icon12" unicode="&#xe880;" d="M675 548h-350c-11 0-20 10-20 20 0 12 9 20 20 20h350c11 0 20-9 20-20 0-11-9-20-20-20z m0-158h-350c-11 0-20 9-20 20 0 11 9 20 20 20h350c11 0 20-9 20-20 0-11-9-20-20-20z m0-158h-350c-11 0-20 9-20 20 0 11 9 20 20 20h350c11 0 20-9 20-20 0-12-9-20-20-20z m0-158h-350c-11 0-20 9-20 20 0 11 9 20 20 20h350c11 0 20-9 20-20 0-11-9-20-20-20z m190-224h-730c-23 0-42 18-42 40v888c0 22 19 40 42 40h118c23 0 41-18 41-40 0-22-18-40-41-40h-77v-808h648v808h-77c-23 0-41 18-41 40s18 40 41 40h118c23 0 42-18 42-40v-888c0-22-19-40-42-40z m-196 855h-338c-39 0-71 33-71 73 0 40 32 72 71 72h338c39 0 70-33 70-72 0-40-31-73-70-73z m-338 105c-16 0-29-15-29-32 0-18 13-33 29-33h338c16 0 29 15 29 33 0 17-13 32-29 32h-338z" horiz-adv-x="1000" />

<glyph glyph-name="icon2" unicode="&#xe881;" d="M0 415c57 0 115 1 172-1 17-1 38-6 50-16 52-47 101-96 151-145 10-9 18-19 28-30 5 5 10 10 14 14 47 46 93 92 140 138 24 23 57 24 78 3 23-23 23-53-3-78-62-64-126-127-189-190-24-24-61-24-87 0-36 34-71 68-107 102-4 4-9 8-17 15 0-98 0-192 0-288-78 0-154 0-230 0 0 159 0 318 0 476z m0 340c29 5 58 10 88 2 80-22 129-102 109-182-19-81-99-131-181-113-5 1-11 2-16 3 0 97 0 194 0 290z m350 3c216 0 433 0 650 0 0-273 0-545 0-818-217 0-433 0-650 0 0 27 0 53 0 82 188 0 377 0 567 0 0 214 0 427 0 640-162 0-322 0-486 0 0-7 0-14 0-21 0-85-1-170 1-255 1-33-11-53-37-71-15 15-29 30-42 45-3 3-5 9-5 14 0 125 0 251 0 376 0 2 1 4 2 8z" horiz-adv-x="1000" />

<glyph glyph-name="lisitng" unicode="&#xe882;" d="M948-126h-883c-36 0-65 29-65 65v822c0 36 29 65 65 65h871c35 0 64-29 64-65v-822c0-59-35-65-51-65z m-883 900c-7 0-13-6-13-13v-822c0-7 6-13 13-13h883c0 2 1 6 1 13v822c0 7-6 13-13 13h-871z m258-177h493v-52h-493v52z m0-228h493v-52h-493v52z m-13-228h493v-52h-493v52z m-159 394c42 0 42 64 0 64s-41-64 0-64z m0-224c42 0 42 64 0 64s-41-64 0-64z m0-254c42 0 42 65 0 65s-41-65 0-65z" horiz-adv-x="1000" />

<glyph glyph-name="notequals" unicode="&#xe883;" d="M678 829l-332-979-61 21 332 979z m-581-367c-39 0-71 31-71 71s32 70 71 70h806c39 0 71-31 71-70s-32-71-71-71h-806z m0-307c-39 0-71 32-71 71s32 71 71 71h806c39 0 71-32 71-71s-32-71-71-71h-806z" horiz-adv-x="1000" />

<glyph glyph-name="nottaget" unicode="&#xe884;" d="M684 839l-336-989-32 11 336 989z m101-489c0 79-32 150-83 202-52 51-123 83-202 83s-150-32-202-83c-51-52-83-123-83-202s32-150 83-202v0c52-51 123-83 202-83s150 32 202 83c51 52 83 123 83 202z m-36 249c64-64 103-152 103-249s-39-185-103-249c-64-64-152-104-249-104-97 0-185 40-249 104v0 0c-64 64-103 152-103 249s39 185 103 249c64 64 152 103 249 103 97 0 185-39 249-103v0z m-114-249c0 37-15 71-40 95-24 25-58 40-95 40s-71-15-95-40c-25-24-40-58-40-95s15-71 40-95c24-25 58-40 95-40s71 15 95 40c25 24 40 58 40 95z m-17 118c30-30 49-72 49-118 0-46-19-88-49-118s-72-49-118-49c-46 0-88 19-118 49s-49 72-49 118c0 46 19 88 49 118s72 49 118 49c46 0 88-19 118-49z" horiz-adv-x="1000" />

<glyph glyph-name="pdf" unicode="&#xe885;" d="M894-11c-42 2-77 21-110 43-54 35-101 79-144 128-12 13-23 15-38 13-93-15-184-35-273-67-6-2-12-8-16-13-42-61-85-121-140-171-24-22-50-42-82-51-25-8-51-12-73 9-21 20-20 47-15 73 6 35 27 62 52 85 55 50 119 84 186 110 23 9 38 21 50 42 49 83 94 168 126 260 3 9 3 16 0 25-26 67-44 136-44 208 0 27 5 55 10 82 15 65 95 95 153 42 21-19 17-46 15-71-8-89-27-176-52-262-2-6 2-16 6-24 37-68 84-130 135-189 9-10 17-14 30-13 55 4 108-2 161-13 40-8 79-20 112-45 34-27 57-59 56-104 0-40-19-68-55-83-16-7-34-10-51-15z m-428 386c-28-59-57-118-86-176 62 14 123 27 185 41-33 45-66 90-99 135z m258-196c-1-1-1-3-2-5 46-43 91-86 151-109 7-2 15-3 22-3 13 1 27 2 33 16 7 14 0 27-8 38-13 17-31 30-51 36-27 8-55 15-83 21-20 4-41 5-62 7z m-267 413c1 4 2 6 3 8 8 49 15 97 22 146 1 5-4 17-5 16-7 0-15-3-22-7-3-2-4-8-5-13-11-47-7-94 3-141 0-3 2-5 4-9z m-269-552c-1 2-2 3-3 4-12-8-25-14-36-23-23-19-46-40-67-61-5-4-7-12-9-18 1 0 2-2 3-2 47 22 79 61 112 100z" horiz-adv-x="1000" />

<glyph glyph-name="question2" unicode="&#xe886;" d="M427-10h134v-140h-134z m-144 772c54 58 129 88 225 88 88 0 159-25 212-76 53-50 79-114 79-193 0-47-9-86-29-116-20-29-59-72-118-130-43-42-71-77-84-106-13-29-19-71-19-128h-119c0 64 7 116 23 155s48 84 100 135l53 53c17 15 29 31 39 47 18 29 28 59 28 91 0 44-14 82-40 114-26 32-69 49-130 49-75 0-126-28-155-84-16-31-25-75-28-133h-119c0 96 27 174 82 233 0 0-55-59 0 0v0z" horiz-adv-x="1000" />

<glyph glyph-name="stamp" unicode="&#xe887;" d="M425 182c-2 9-2 12-4 14-33 48-33 56 6 100 6 7 9 22 8 32-12 91-42 177-85 259-66 125 23 260 145 263 156 3 221-151 167-257-34-66-65-133-81-206-5-20-10-41-11-61-1-11 2-26 9-34 31-33 33-58 5-93-3-4-5-9-11-18 38-1 72-1 106-1 49-1 99 0 149-2 38-2 68-33 69-71 1-34 0-69 0-107-43 0-84 0-125 1-83 0-166 1-249 2-117 0-234 1-350 2-15 0-31-1-46-1-17 0-27 6-25 26 2 26 0 53 1 79 0 39 28 70 70 72 54 2 107 1 160 1 30 0 59 0 92 0z m-290-324c-10 66-10 68 50 69 97 0 194-1 290-2 83 0 167 0 250-1 40 0 81-1 122-1 15 0 20-7 21-21 5-44-4-53-47-52-119 1-238 2-357 3-104 1-208 2-312 3-5 0-10 1-17 2z" horiz-adv-x="1000" />

<glyph glyph-name="target3" unicode="&#xe888;" d="M905 350c0 112-46 213-119 286s-175 119-286 119c-112 0-213-45-287-119s-118-174-118-286c0-112 45-213 118-286s175-119 287-119c111 0 213 45 286 119s119 174 119 286z m-52 354c91-91 147-216 147-354 0-138-56-263-147-354-90-90-215-146-353-146-138 0-263 56-354 146-91 91-146 216-146 354 0 138 55 263 146 354 90 90 215 146 354 146 138 0 263-56 353-146z m-161-354c0 53-22 101-57 135-34 35-82 57-135 57s-101-22-135-57c-35-34-57-82-57-135s22-101 57-135v0c34-35 82-57 135-57s101 22 135 57c35 34 57 82 57 135z m-24 168c42-43 69-103 69-168s-27-125-69-167c-43-43-103-70-168-70s-125 27-167 70v0 0c-43 42-70 102-70 167s27 125 70 168c42 42 102 69 167 69s125-27 168-69v0z" horiz-adv-x="1000" />

<glyph glyph-name="word" unicode="&#xe889;" d="M844 542l-146-444h-122l-83 257-88-257h-120l-137 444h124l80-287 97 287h94l90-287 87 287h124z m156-670h-1000v956h1000v-956z m-947 56h894v844h-894z m0 0v0 0z" horiz-adv-x="1000" />

<glyph glyph-name="bargraph2" unicode="&#xe88a;" d="M223 523h109v-495h-109v495z m3-551h551v-122h-551v122z m219 677h108v-621h-108v621z m221 201h109v-822h-109v822z" horiz-adv-x="1000" />

<glyph glyph-name="folder2" unicode="&#xe88b;" d="M934-56h-868c-36 0-66 30-66 66v679c0 36 30 66 66 66h254c29 0 65-16 84-38l61-69c8-10 28-19 41-19h427c37 0 66-29 66-66v-553c0-36-29-66-66-66z m-868 755c-5 0-10-4-10-10v-679c0-5 4-10 10-10h868c5 0 9 5 9 10v553c0 5-4 10-9 10h-428c-28 0-65 16-83 38l-61 69c-8 10-29 19-41 19h-255z" horiz-adv-x="1000" />

<glyph glyph-name="list3" unicode="&#xe88c;" d="M935 850h-870c-36 0-65-29-65-65v-870c0-36 29-65 65-65h883c16 0 52 6 52 65v870c0 36-29 65-65 65z m13-935c0-7 0-11-1-13h-883c-7 0-13 5-13 13v870c0 8 6 13 13 13h871c8 0 13-5 13-13v-870z m-618 676h474v-62h-474v62z m0-210h474v-62h-474v62z m0-210h474v-62h-474v62z m-65 389c0-19-15-35-34-35s-35 16-35 35c0 19 16 35 35 35s34-16 34-35z m0-210c0-19-15-35-34-35s-35 16-35 35c0 19 16 35 35 35s34-16 34-35z m0-210c0-19-15-35-34-35s-35 16-35 35c0 19 16 35 35 35s34-16 34-35z" horiz-adv-x="1000" />

<glyph glyph-name="additionalinfo" unicode="&#xe88d;" d="M901 379c-16 0-29-13-29-29 0-225-182-407-407-407s-407 182-407 407c0 225 182 407 407 407 58 0 114-12 167-35 14-7 31 0 38 14 6 15 0 32-15 38-60 27-124 41-190 41-256 0-465-208-465-465s209-464 465-464c256 0 465 208 465 464 0 16-13 29-29 29z m-436 102c-22 0-39-18-39-39v-356c0-21 17-38 39-38 21 0 38 17 38 38v356c0 21-17 39-38 39z m0 172c-27 0-49-22-49-49s22-49 49-49c27 0 48 22 48 49s-21 49-48 49z m506-27h-110v110c0 16-13 29-28 29s-29-13-29-29v-110h-110c-16 0-29-13-29-29s13-29 29-29h110v-110c0-15 13-28 29-28s28 13 28 28v110h110c16 0 29 13 29 29s-13 29-29 29z" horiz-adv-x="1000" />

<glyph glyph-name="fileexport" unicode="&#xe88e;" d="M1000 350l-162 139v-69h-259v-139h259v-70z m-275-166c-13 0-25-11-25-25v-146h-650v674h650v-158c0-14 12-25 25-25s25 11 25 25v184c0 13-11 25-25 25h-700c-13 0-25-12-25-25v-725c0-14 12-25 25-25h700c14 0 25 11 25 25v171c0 14-11 25-25 25z m-105 374c0 14-11 25-25 25h-437c-14 0-25-11-25-25s11-25 25-25h437c14 0 25 12 25 25z m-190-113h-272c-14 0-25-12-25-25s11-25 25-25h272c14 0 25 11 25 25s-11 25-25 25z m-272-190h272c14 0 25 12 25 25s-11 25-25 25h-272c-14 0-25-11-25-25s11-25 25-25z m0-138h437c14 0 25 11 25 25s-11 25-25 25h-437c-14 0-25-12-25-25s11-25 25-25z" horiz-adv-x="1000" />

<glyph glyph-name="file3" unicode="&#xe88f;" d="M953 850h-906c-17 0-32-14-32-31v-938c0-17 14-31 32-31h906c17 0 31 13 31 31v938c0 17-14 31-31 31z m-31-938h-844v876h844v-876z m-689 667h534c17 0 31 14 31 31s-14 30-31 30h-534c-18 0-31-13-31-30s13-31 31-31z m0-131h534c17 0 31 14 31 31s-14 31-31 31h-534c-18 0-31-14-31-31s13-31 31-31z m0-130h534c17 0 31 14 31 31s-14 31-31 31h-534c-18 0-31-14-31-31s13-31 31-31z m0-130h534c17 0 31 13 31 30s-14 31-31 31h-534c-18 0-31-14-31-31s13-30 31-30z m0-128h534c17 0 31 13 31 30s-14 31-31 31h-534c-18 0-31-13-31-31s13-30 31-30z" horiz-adv-x="1000" />

<glyph glyph-name="info2" unicode="&#xe890;" d="M501 673c-26 0-47 7-65 23s-27 37-27 66c0 26 9 46 27 63s40 25 64 25c24 0 45-7 63-22s27-38 27-66c0-28-9-50-27-66s-38-23-63-23z m89-188v-525c0-36-8-63-25-82-18-19-40-28-66-28s-49 10-65 29c-17 19-25 46-25 81v520c0 35 8 63 25 81s38 27 65 27c26 0 48-9 66-27 17-18 25-43 25-76z" horiz-adv-x="1000" />

<glyph glyph-name="a-z" unicode="&#xe891;" d="M500 850c-276 0-500-224-500-500s224-500 500-500c276 0 500 224 500 500s-224 500-500 500z m0-954c-250 0-454 204-454 454s204 454 454 454c250 0 454-204 454-454s-204-454-454-454z m-25 715c-8-1-14-3-16-3-10-2-18-7-24-13-6-7-9-15-9-24 0-7 2-13 6-19s8-10 15-14c7-3 14-5 23-5 10 0 18 2 26 5 7 3 15 7 24 14 3-7 7-11 10-14s8-5 11-5c4 0 8 1 11 4s5 6 5 9c0 2-1 7-3 14s-3 13-3 20c0 6 0 13 0 18s0 12 0 20c0 13-2 23-5 31-3 7-10 13-18 16s-21 6-35 6c-14 0-25-2-34-6-9-3-15-8-19-13-5-6-7-12-7-18 0-4 2-7 5-9 2-2 6-4 10-4 4 0 7 1 8 3s3 4 7 9c2 5 6 9 11 11 4 3 11 4 19 4 10 0 17-2 20-6 3-4 5-11 5-20-7-2-13-4-20-5-6-2-13-3-22-5z m42-15c0-11-2-20-5-25-2-5-7-8-12-11s-12-5-19-5c-6 0-11 2-16 5-3 4-5 8-5 13s1 9 5 12c3 3 6 5 10 5s10 3 20 5c9 2 16 4 21 6v-5z m39-535h-72l68 76c2 3 4 5 6 7s3 4 4 5c1 1 2 3 3 5s1 4 1 6c0 6-2 10-6 13s-10 3-18 3h-85c-6 0-10-1-13-3s-4-6-4-10c0-6 2-10 5-11 4-2 10-2 18-2h55c-3-4-6-7-10-12-3-4-8-10-14-16s-11-13-19-20c-6-8-14-16-22-25-7-9-13-14-15-17-2-4-3-7-3-10 0-5 1-10 5-12 3-3 9-5 16-5h100c6 0 11 1 14 4s4 6 4 10c0 4-1 8-4 11-3 2-8 4-14 4z m-223 317h250c8 0 14 1 17 5 4 3 6 8 6 14s-2 10-6 13c-3 4-9 6-17 6h-255l25 22c4 5 4 12-1 16-5 4-12 4-17-1l-53-49c-4-4-4-11 0-15l55-42c2-3 6-4 8-4 3 0 6 0 8 2 5 5 5 12 1 16l-22 17z m330-27c-3 3-6 4-9 4-2 0-5-1-7-3-5-4-5-11-2-16l23-16h-250c-8 0-14-2-18-5-4-4-6-8-6-14s2-11 6-14c4-4 10-5 18-5h251l-29-22c-4-5-3-12 2-17 4-4 11-3 16 2l60 48c4 4 4 11 0 15l-55 42z" horiz-adv-x="1000" />

<glyph glyph-name="favourite2" unicode="&#xe892;" d="M977 734h-468c-13 0-23-11-23-24s10-23 23-23h444v-674h-444c-13 0-23-10-23-23s10-23 23-23h468c13 0 23 10 23 23v721c0 13-10 23-23 23z m-319-165h189c13 0 23 10 23 23s-10 23-23 23h-189c-13 0-24-10-24-23s11-23 24-23z m0-121h189c13 0 23 10 23 23s-10 24-23 24h-189c-13 0-24-11-24-24s11-23 24-23z m0-121h189c13 0 23 10 23 23s-10 23-23 23h-189c-13 0-24-10-24-23s11-23 24-23z m0-122h189c13 0 23 11 23 24s-10 23-23 23h-189c-13 0-24-10-24-23s11-24 24-24z m0-121h189c13 0 23 11 23 24s-10 23-23 23h-189c-13 0-24-11-24-23s11-24 24-24z m-197 102l-168 81c-6 3-13 2-19-1l-132-73 13 145c1 5-1 10-4 15l-94 117 146 26c6 1 12 5 15 11l70 141 80-142c2-6 8-9 14-10l146-26-103-95c-4-4-6-9-6-15v-91c0-11 9-20 21-20s20 9 20 20v83l125 117c6 6 8 14 6 21-2 7-8 13-16 14l-177 30-93 168c-4 6-11 11-18 10-8 0-14-4-18-11l-83-167-169-30c-7-1-13-6-16-13s-1-14 4-20l110-138-17-174c0-8 3-15 10-19 3-2 7-3 11-3 3 0 6 1 9 2l157 86 159-76c10-5 22-1 27 9s1 23-10 27z" horiz-adv-x="1000" />

</font>
</defs>
</svg>
